<svg width="1386" height="386" viewBox="0 0 1386 386" fill="none" xmlns="http://www.w3.org/2000/svg">
<path d="M317.854 166.326C317.525 165.47 316.87 164.778 316.033 164.401C315.195 164.024 314.243 163.992 313.382 164.312L292.035 172.309C288.711 173.576 286.027 176.109 284.573 179.351C283.118 182.593 283.013 186.279 284.279 189.598C284.66 190.593 284.695 191.686 284.378 192.703C284.062 193.72 283.413 194.602 282.535 195.207L273.54 201.386C272.423 202.153 271.597 203.272 271.195 204.565C270.792 205.857 270.836 207.246 271.32 208.51L275.463 219.339C275.947 220.602 276.842 221.666 278.005 222.36C279.168 223.055 280.531 223.339 281.875 223.168L292.706 221.789C293.766 221.653 294.841 221.876 295.758 222.423C296.676 222.97 297.382 223.809 297.763 224.806C299.034 228.124 301.573 230.803 304.821 232.253C308.069 233.704 311.762 233.808 315.087 232.543L336.402 224.56C336.831 224.399 337.223 224.154 337.557 223.841C337.891 223.528 338.16 223.152 338.348 222.735C338.537 222.317 338.641 221.867 338.655 221.41C338.669 220.953 338.592 220.497 338.43 220.07L317.854 166.326Z" fill="#EDEDED"/>
<path d="M271.733 215.386C271.733 215.386 67.7221 302.708 122.955 218.225C178.188 133.742 88.069 115.544 51.5651 122.2C15.0611 128.857 0.685547 136.876 0.685547 136.876" stroke="url(#paint0_linear_288_3453)" stroke-width="2.82" stroke-miterlimit="10"/>
<path d="M1056.89 162.886C1056.7 162.385 1056.4 161.926 1056.03 161.537C1055.65 161.148 1055.21 160.836 1054.71 160.619C1054.21 160.402 1053.68 160.284 1053.14 160.272C1052.59 160.26 1052.05 160.353 1051.55 160.548L1049.66 161.273L1073.36 221.907L1075.24 221.182C1076.27 220.789 1077.09 220.01 1077.53 219.016C1077.97 218.022 1078 216.895 1077.6 215.882" fill="#EDEDED"/>
<path d="M1043.15 215.15C1042.91 214.547 1042.92 213.875 1043.2 213.283C1043.47 212.69 1043.98 212.226 1044.61 211.992L1062.66 205.569L1064.51 210.119L1046.47 216.544C1045.83 216.777 1045.13 216.761 1044.51 216.5C1043.88 216.239 1043.4 215.754 1043.15 215.15Z" fill="#EDEDED"/>
<path d="M1053.38 179.976L1034.7 186.83C1034.05 187.078 1033.32 187.061 1032.68 186.782C1032.03 186.503 1031.53 185.986 1031.28 185.344C1031.15 185.025 1031.09 184.685 1031.1 184.343C1031.11 184.001 1031.18 183.665 1031.32 183.352C1031.46 183.039 1031.67 182.756 1031.92 182.52C1032.17 182.284 1032.47 182.099 1032.79 181.976L1051.47 175.123L1053.38 179.976Z" fill="#EDEDED"/>
<path d="M1080.94 215.223L1098.51 208.394C1101.48 207.239 1103.87 204.951 1105.15 202.032C1106.44 199.112 1106.51 195.801 1105.36 192.827C1105.02 191.935 1104.98 190.953 1105.26 190.038C1105.54 189.123 1106.12 188.329 1106.9 187.783L1114.92 182.196C1115.91 181.502 1116.65 180.493 1117 179.331C1117.36 178.169 1117.31 176.921 1116.87 175.788L1113.12 166.08C1112.68 164.947 1111.88 163.994 1110.83 163.375C1109.79 162.756 1108.57 162.506 1107.37 162.665L1097.68 163.951C1096.73 164.077 1095.77 163.882 1094.95 163.396C1094.13 162.91 1093.5 162.163 1093.15 161.272C1092.58 159.799 1091.73 158.452 1090.64 157.309C1089.55 156.167 1088.24 155.25 1086.8 154.612C1085.36 153.974 1083.8 153.627 1082.23 153.591C1080.65 153.554 1079.08 153.83 1077.61 154.401L1060.06 161.224L1080.94 215.223Z" fill="#EDEDED"/>
<path d="M1078.37 185.011L1096.67 185.518C1096.9 185.525 1097.14 185.465 1097.35 185.346C1097.55 185.226 1097.72 185.052 1097.83 184.843C1097.94 184.634 1097.98 184.399 1097.96 184.164C1097.94 183.929 1097.86 183.705 1097.72 183.517L1095.48 180.595C1095.35 180.429 1095.27 180.233 1095.24 180.027C1095.21 179.82 1095.23 179.609 1095.3 179.412C1095.37 179.215 1095.49 179.04 1095.65 178.901C1095.81 178.763 1096 178.666 1096.21 178.619L1101.41 177.398C1102.85 177.06 1102.64 174.981 1101.16 174.93L1085.31 174.381C1085.08 174.372 1084.85 174.428 1084.64 174.543C1084.44 174.659 1084.27 174.828 1084.15 175.033C1084.04 175.237 1083.99 175.469 1084 175.701C1084.02 175.934 1084.09 176.158 1084.23 176.349L1086.03 178.885C1086.15 179.051 1086.23 179.244 1086.25 179.446C1086.28 179.648 1086.25 179.853 1086.18 180.044C1086.11 180.235 1085.99 180.405 1085.84 180.54C1085.68 180.675 1085.5 180.77 1085.3 180.819L1078.11 182.541C1076.67 182.89 1076.89 184.971 1078.37 185.011Z" fill="white"/>
<path d="M1117.73 169.613C1117.73 169.613 1292.18 79.1305 1257.19 186.394C1222.2 293.658 1384.68 212.878 1384.68 212.878" stroke="url(#paint1_linear_288_3453)" stroke-width="2.82" stroke-miterlimit="10"/>
<g clip-path="url(#clip0_288_3453)">
<path d="M1062.01 322.533C1061.53 322.138 1060.91 321.95 1060.29 322.012C1059.67 322.073 1059.1 322.378 1058.7 322.86C1058.3 323.342 1058.12 323.961 1058.18 324.581C1058.24 325.201 1058.54 325.772 1059.03 326.167L1077.84 341.563C1078.32 341.958 1078.94 342.146 1079.56 342.085C1079.87 342.055 1080.17 341.964 1080.44 341.819C1080.71 341.674 1080.95 341.476 1081.15 341.238C1081.35 340.999 1081.49 340.725 1081.58 340.43C1081.67 340.134 1081.7 339.825 1081.67 339.518C1081.64 339.211 1081.55 338.913 1081.41 338.64C1081.26 338.368 1081.06 338.128 1080.82 337.932L1062.01 322.533Z" fill="#EDEDED"/>
<path d="M1006.38 342.527C1005.76 342.428 1005.13 342.576 1004.63 342.938C1004.12 343.301 1003.78 343.849 1003.68 344.463L999.718 368.435C999.663 368.742 999.67 369.055 999.738 369.359C999.806 369.662 999.934 369.949 1000.11 370.203C1000.29 370.457 1000.52 370.673 1000.79 370.837C1001.05 371.002 1001.34 371.113 1001.65 371.164C1001.96 371.215 1002.27 371.204 1002.58 371.132C1002.88 371.06 1003.17 370.929 1003.42 370.747C1003.67 370.564 1003.88 370.333 1004.05 370.067C1004.21 369.802 1004.31 369.507 1004.36 369.199L1008.32 345.233C1008.37 344.928 1008.36 344.616 1008.29 344.315C1008.22 344.015 1008.09 343.73 1007.91 343.479C1007.73 343.228 1007.5 343.015 1007.24 342.851C1006.98 342.688 1006.68 342.578 1006.38 342.527Z" fill="#EDEDED"/>
<path d="M1033.82 336.008C1033.24 336.229 1032.76 336.672 1032.51 337.239C1032.25 337.807 1032.23 338.454 1032.44 339.037L1049.6 384.478C1049.82 385.063 1050.26 385.537 1050.83 385.795C1051.4 386.053 1052.05 386.074 1052.64 385.853C1053.23 385.633 1053.7 385.189 1053.96 384.619C1054.22 384.049 1054.24 383.401 1054.02 382.815L1036.85 337.381C1036.63 336.798 1036.19 336.326 1035.62 336.069C1035.05 335.812 1034.4 335.79 1033.82 336.008Z" fill="#EDEDED"/>
</g>
<g clip-path="url(#clip1_288_3453)">
<path d="M334.796 68.425C335.314 68.8512 335.98 69.0535 336.647 68.9875C337.314 68.9215 337.927 68.5925 338.353 68.073C338.778 67.5534 338.979 66.8859 338.914 66.2172C338.848 65.5484 338.52 64.9333 338.001 64.5072L317.816 47.9088C317.298 47.4826 316.633 47.2801 315.966 47.3459C315.636 47.3784 315.315 47.4758 315.023 47.6325C314.73 47.7892 314.471 48.0022 314.261 48.2592C314.051 48.5163 313.893 48.8124 313.796 49.1306C313.7 49.4488 313.667 49.7829 313.7 50.1139C313.732 50.4449 313.829 50.7662 313.985 51.0595C314.142 51.3528 314.354 51.6124 314.611 51.8234L334.796 68.425Z" fill="#EDEDED"/>
<path d="M394.502 46.8689C395.162 46.9763 395.838 46.817 396.381 46.4259C396.925 46.0349 397.292 45.4439 397.401 44.7824L401.65 18.9369C401.709 18.6068 401.702 18.2684 401.629 17.9413C401.556 17.6141 401.419 17.3047 401.226 17.0311C401.033 16.7574 400.787 16.5249 400.504 16.3471C400.22 16.1693 399.905 16.0496 399.575 15.9951C399.245 15.9406 398.907 15.9523 398.582 16.0295C398.257 16.1067 397.95 16.248 397.679 16.445C397.409 16.642 397.18 16.891 397.006 17.1773C396.832 17.4637 396.717 17.7818 396.667 18.1133L392.421 43.9523C392.367 44.2808 392.377 44.6169 392.452 44.9412C392.528 45.2656 392.666 45.572 392.859 45.8428C393.052 46.1137 393.297 46.3437 393.579 46.5197C393.861 46.6958 394.174 46.8144 394.502 46.8689Z" fill="#EDEDED"/>
<path d="M365.055 53.8971C365.682 53.6594 366.189 53.1822 366.466 52.5701C366.742 51.958 366.766 51.2609 366.53 50.6316L348.123 1.64076C347.886 1.00986 347.409 0.499233 346.796 0.221207C346.183 -0.0568161 345.486 -0.079464 344.857 0.158249C344.227 0.395958 343.718 0.874561 343.441 1.48876C343.163 2.10296 343.141 2.80245 343.378 3.43335L361.801 52.4178C362.038 53.0461 362.513 53.5547 363.123 53.832C363.733 54.1094 364.428 54.1327 365.055 53.8971Z" fill="#EDEDED"/>
</g>
<g clip-path="url(#clip2_288_3453)">
<path d="M444.853 327.448L500.61 323.076L536.063 302.667L521.539 294.111L545.709 280.164L543.933 270.658L556.745 263.178L555.858 256.585L538.475 246.57L487.54 262.371L489.001 269.456L421.76 308.178L422.774 314.771L444.853 327.448Z" fill="#CCDEFE"/>
<path d="M554.986 184.926V219.906L541.893 227.46V257.146L510.426 275.299V245.614L488.015 258.542L443.014 284.508V251.114L494.464 91.835L530.066 71.2949L509.183 136.732L502.597 157.353L489.458 198.536L479.99 228.187L510.426 210.634V161.868L541.893 143.715V177.372V192.481L554.986 184.926Z" fill="#ACC8FE"/>
<path d="M510.427 245.614V275.299L488.016 262.371V258.542L510.427 245.614Z" fill="#ACC8FE"/>
<path d="M554.988 184.927L541.895 192.481V177.372L554.988 184.927Z" fill="white"/>
<path d="M510.427 161.868V210.635L489.459 198.536L502.598 157.353L510.427 161.868Z" fill="#ACC8FE"/>
<path d="M443.015 251.114V284.508L420.604 271.579V238.185L443.015 251.114Z" fill="#ACC8FE"/>
<path d="M494.465 91.8351L443.015 251.114L420.604 238.185L472.054 78.9067L494.465 91.8351Z" fill="#ACC8FE"/>
<path d="M510.426 210.634L479.99 228.187L489.458 198.536L510.426 210.634Z" fill="white"/>
<path d="M530.067 71.2949L494.464 91.8349L472.053 78.9065L507.655 58.3665L530.067 71.2949Z" fill="white"/>
<path d="M541.894 143.715L510.427 161.868L502.598 157.353L509.184 136.732L519.488 130.786L541.894 143.715Z" fill="white"/>
<path d="M555.681 184.789C555.684 184.759 555.684 184.728 555.681 184.697L555.647 184.606C555.648 184.593 555.648 184.579 555.647 184.566C555.647 184.566 555.647 184.566 555.618 184.537C555.602 184.51 555.583 184.485 555.561 184.463C555.544 184.435 555.52 184.411 555.492 184.394L555.418 184.331H555.389L542.651 176.983V143.715C542.651 143.715 542.651 143.715 542.651 143.675C542.651 143.634 542.651 143.612 542.651 143.577C542.651 143.543 542.651 143.514 542.622 143.486C542.613 143.456 542.601 143.428 542.588 143.4C542.59 143.385 542.59 143.369 542.588 143.354L542.536 143.28C542.516 143.252 542.491 143.229 542.462 143.211L542.387 143.154L519.976 130.225C519.948 130.213 519.919 130.204 519.89 130.197C519.847 130.173 519.801 130.157 519.752 130.151C519.709 130.145 519.664 130.145 519.621 130.151C519.575 130.145 519.529 130.145 519.483 130.151C519.435 130.158 519.389 130.174 519.346 130.197C519.316 130.204 519.288 130.213 519.26 130.225L510.56 135.244L530.749 71.5124C530.749 71.5124 530.749 71.4724 530.749 71.4495C530.755 71.4077 530.755 71.3654 530.749 71.3236C530.749 71.2949 530.749 71.2663 530.749 71.2377V71.1805C530.741 71.1395 530.73 71.0993 530.715 71.0603C530.707 71.0304 530.695 71.0016 530.68 70.9744V70.9401C530.659 70.9071 530.634 70.8764 530.606 70.8485L530.537 70.7741L530.48 70.7398C530.48 70.7398 530.48 70.7398 530.446 70.7398L508.017 57.737C507.989 57.7249 507.96 57.7153 507.931 57.7084L507.793 57.6626H507.656H507.524L507.381 57.7084C507.381 57.7084 507.324 57.7084 507.301 57.737L471.699 78.2885C471.699 78.2885 471.699 78.2885 471.664 78.2885L471.573 78.3629L471.504 78.4316C471.489 78.4493 471.475 78.4685 471.464 78.4888V78.5232C471.464 78.5232 471.464 78.569 471.464 78.5918C471.452 78.6155 471.438 78.6384 471.424 78.6605L419.922 237.968C419.919 238.004 419.919 238.04 419.922 238.076C419.92 238.113 419.92 238.149 419.922 238.185V271.579C419.919 271.608 419.919 271.637 419.922 271.665C419.925 271.714 419.935 271.762 419.951 271.808C419.966 271.852 419.985 271.894 420.008 271.934C420.029 271.974 420.056 272.011 420.088 272.043C420.119 272.081 420.156 272.114 420.197 272.14C420.197 272.14 420.237 272.186 420.26 272.197L442.672 285.126C442.689 285.129 442.706 285.129 442.723 285.126H442.775C442.85 285.155 442.929 285.17 443.01 285.172C443.09 285.17 443.169 285.154 443.244 285.126H443.296C443.313 285.129 443.33 285.129 443.348 285.126L487.3 259.761V262.348C487.3 262.377 487.3 262.405 487.3 262.434C487.308 262.482 487.32 262.53 487.335 262.577C487.348 262.62 487.367 262.66 487.392 262.697C487.413 262.737 487.438 262.776 487.466 262.812L487.575 262.909C487.597 262.929 487.62 262.948 487.644 262.966L510.05 275.895H510.102H510.159C510.234 275.921 510.314 275.937 510.394 275.94C510.474 275.937 510.553 275.921 510.628 275.895H510.686H510.737L542.239 257.741L542.302 257.684C542.34 257.654 542.377 257.622 542.41 257.586C542.442 257.552 542.469 257.514 542.491 257.472C542.513 257.434 542.532 257.393 542.548 257.352C542.563 257.305 542.572 257.257 542.576 257.209C542.579 257.18 542.579 257.151 542.576 257.123V227.872L555.314 220.53C555.337 220.51 555.358 220.489 555.377 220.467C555.419 220.44 555.456 220.408 555.486 220.369C555.539 220.346 555.588 220.313 555.629 220.272C555.651 220.233 555.67 220.193 555.687 220.152C555.692 220.104 555.692 220.056 555.687 220.009C555.689 219.978 555.689 219.948 555.687 219.917V184.926C555.687 184.926 555.687 184.898 555.687 184.881L555.681 184.789ZM541.54 226.842C541.516 226.86 541.493 226.879 541.471 226.899C541.432 226.929 541.396 226.961 541.362 226.997C541.334 227.033 541.309 227.071 541.288 227.111C541.263 227.149 541.242 227.19 541.225 227.231C541.219 227.279 541.219 227.327 541.225 227.374C541.225 227.374 541.225 227.432 541.225 227.46V256.728L511.144 274.069V245.625C511.146 245.612 511.146 245.598 511.144 245.585C511.149 245.538 511.149 245.49 511.144 245.442C511.144 245.396 511.115 245.351 511.098 245.31C511.081 245.27 511.098 245.282 511.098 245.27C511.098 245.259 511.058 245.225 511.041 245.202C511.013 245.161 510.98 245.125 510.943 245.093L510.835 245.019C510.794 244.994 510.752 244.973 510.709 244.956L510.565 244.927H510.48H510.439C510.39 244.928 510.342 244.937 510.296 244.956C510.25 244.965 510.206 244.98 510.165 245.001H510.119L487.713 257.93L443.726 283.266V251.217L495.061 92.3158L528.825 72.8573L508.504 136.515L501.917 157.118L488.778 198.324L479.31 227.981C479.302 228.036 479.302 228.092 479.31 228.147C479.307 228.185 479.307 228.223 479.31 228.261C479.319 228.298 479.331 228.335 479.345 228.37C479.353 228.424 479.371 228.476 479.396 228.525C479.435 228.589 479.483 228.647 479.54 228.696L479.58 228.725C479.636 228.772 479.7 228.809 479.769 228.834C479.83 228.852 479.894 228.861 479.958 228.862C480.024 228.861 480.089 228.851 480.152 228.834H480.215C480.247 228.825 480.278 228.813 480.307 228.799L510.737 211.241C510.818 211.215 510.892 211.172 510.955 211.115C510.955 211.115 510.955 211.115 510.989 211.075L511.029 211.024C511.029 211.024 511.058 210.995 511.064 210.978C511.069 210.961 511.064 210.978 511.064 210.938L511.098 210.852C511.101 210.82 511.101 210.787 511.098 210.755C511.101 210.724 511.101 210.693 511.098 210.663C511.1 210.65 511.1 210.636 511.098 210.623V162.28L541.133 144.951V192.481C541.131 192.494 541.131 192.508 541.133 192.521C541.134 192.568 541.144 192.615 541.162 192.658C541.171 192.706 541.187 192.752 541.208 192.796C541.208 192.796 541.208 192.824 541.208 192.836C541.237 192.886 541.274 192.932 541.316 192.973C541.375 193.03 541.442 193.077 541.517 193.11H541.574C541.653 193.139 541.736 193.156 541.82 193.162C541.905 193.159 541.988 193.142 542.067 193.11H542.124H542.181L554.209 186.174V219.505L541.54 226.842ZM509.712 246.873V274.069L488.732 261.959V258.954L509.712 246.873ZM421.32 238.3L472.466 79.9711L493.606 92.167L442.334 250.896C442.328 250.932 442.328 250.969 442.334 251.005C442.331 251.041 442.331 251.077 442.334 251.114V283.266L421.32 271.167V238.3ZM507.656 59.1964L528.636 71.2949L494.465 91.0109L473.486 78.9123L507.656 59.1964ZM519.489 131.61L540.463 143.715L510.428 161.044L503.458 157.038L509.758 137.23L519.489 131.61ZM542.611 178.614L553.556 184.909L542.611 191.205V178.614ZM503.011 158.417L509.712 162.28V209.398L490.336 198.204L503.011 158.417ZM489.872 199.623L508.996 210.657L481.235 226.682L489.872 199.623Z" fill="#175DA3"/>
<path d="M645.771 97.8367L652.902 87.4379L661.505 77.9834L671.58 69.4789L683.12 61.9244L694.61 56.1957L704.662 53.1052L713.264 52.6531L720.412 54.8393L742.904 67.8192L735.75 65.6273L727.153 66.0794L717.107 69.1698L705.612 74.8986L694.066 82.4588L683.997 90.9633L675.394 100.412L668.258 110.817L662.662 121.965L640.17 108.991L645.771 97.8367Z" fill="white"/>
<path d="M640.171 108.991L662.663 121.965L658.666 133.675L636.168 120.695L640.171 108.991Z" fill="#E3EDFF"/>
<path d="M636.168 120.695L658.665 133.674L656.265 145.945L633.773 132.965L636.168 120.695Z" fill="#C8DAFE"/>
<path d="M701.679 184.758V115.458L701.479 113.34L705.614 110.015L709.325 108.716L713.913 107.108L719.675 109.414L723.049 116.631L724.171 128.438V197.738L723.049 210.838L700.557 197.864L701.679 184.758Z" fill="#ACC8FE"/>
<path d="M691.42 217.929L697.182 208.967L719.674 221.947L713.912 230.909L705.612 237.577L697.313 240.484L691.551 238.172L690.899 236.787L688.172 230.955L687.829 227.315L687.256 221.277L691.42 217.929Z" fill="white"/>
<path d="M700.555 197.865L723.047 210.839L719.674 221.947L697.182 208.967L700.555 197.865Z" fill="#D6E3FF"/>
<path d="M735.832 243.403L752.493 253.103C752.866 253.32 753.163 253.646 753.344 254.037C753.525 254.428 753.582 254.865 753.507 255.29L750.323 273.558C749.985 275.567 749.042 277.426 747.619 278.886C744.406 282.177 736.737 288.684 718.34 300.605C718.34 300.605 664.685 335.098 652.732 333.02L630.114 320.43C629.642 320.165 629.261 319.763 629.022 319.278C628.783 318.793 628.696 318.246 628.774 317.711L631.208 301.292C631.412 299.858 632.007 298.508 632.926 297.388C636.683 292.856 647.445 280.832 660.155 275.12L735.832 243.403Z" fill="#CCDEFE"/>
<path d="M633.773 132.965L656.264 145.945L655.468 158.764V246.688L656.27 258.529L658.681 267.995L662.696 275.074L668.321 279.773L645.823 266.799L640.199 262.094L636.184 255.015L633.773 245.555L632.971 233.708V145.79L633.773 132.965Z" fill="#ACC8FE"/>
<path d="M662.697 275.074L668.321 279.773L675.452 281.959L684.043 281.507L694.089 278.416L705.584 272.693L717.154 265.15L727.229 256.566L735.82 247.054L742.951 236.564L748.546 225.352L752.556 213.654L754.955 201.476L755.752 188.816V100.898L754.95 89.0574L752.544 79.5972L748.535 72.5178L742.911 67.8191L735.763 65.6272L727.171 66.0793L717.125 69.1698L705.63 74.8928L694.072 82.4587L683.997 90.9632L675.406 100.412L668.27 110.817L662.674 121.965L658.665 133.674L656.265 145.945L655.469 158.764V246.688L656.271 258.529L658.682 268.012L662.697 275.074ZM687.05 149.854L688.196 136.748L691.575 125.645L697.337 116.683L701.501 113.34L705.636 110.015L709.347 108.716L713.929 107.108L719.691 109.397L723.065 116.608L724.21 128.415V197.738L723.065 210.839L719.691 221.947L713.929 230.909L705.63 237.577L697.331 240.484L691.569 238.195L690.916 236.787L688.19 230.955L687.846 227.315L687.274 221.277L687.067 219.154L687.05 149.854Z" fill="#ACC8FE"/>
<mask id="mask0_288_3453" style="mask-type:luminance" maskUnits="userSpaceOnUse" x="632" y="52" width="125" height="231">
<path d="M632.256 233.708L633.069 245.6C633.067 245.623 633.067 245.646 633.069 245.669C633.066 245.69 633.066 245.711 633.069 245.732L635.48 255.192C635.48 255.232 635.515 255.267 635.526 255.301C635.538 255.335 635.526 255.347 635.526 255.37L639.536 262.449C639.576 262.516 639.626 262.575 639.684 262.626L645.309 267.325C645.327 267.339 645.346 267.35 645.366 267.359L645.412 267.4L667.904 280.374L667.984 280.408H668.041L675.189 282.6C675.258 282.618 675.33 282.628 675.401 282.629H675.435L684.027 282.176H684.073C684.115 282.179 684.157 282.179 684.199 282.176L694.245 279.086L694.331 279.052L705.826 273.329H705.871L717.55 265.723V265.694H717.59L727.693 257.138C727.693 257.138 727.693 257.138 727.693 257.104C727.693 257.069 727.693 257.104 727.728 257.075L736.319 247.558L736.365 247.506L743.495 237.021C743.495 237.021 743.495 237.021 743.495 236.987L743.53 236.936L749.126 225.718V225.684C749.126 225.684 749.126 225.65 749.154 225.633L753.163 213.935C753.166 213.921 753.166 213.908 753.163 213.895V213.843L755.638 201.624C755.64 201.609 755.64 201.594 755.638 201.579C755.64 201.563 755.64 201.548 755.638 201.533L756.44 188.868V100.898L755.638 89.0517C755.638 89.0517 755.638 89.0116 755.638 88.9887C755.638 88.9658 755.638 88.9486 755.638 88.9257L753.232 79.4598C753.232 79.4598 753.203 79.4083 753.192 79.3797C753.181 79.3511 753.192 79.3167 753.158 79.2824L749.148 72.2029C749.123 72.1679 749.094 72.1354 749.063 72.1057C749.039 72.0707 749.012 72.0382 748.982 72.0084L743.358 67.3097C743.338 67.3004 743.318 67.2889 743.301 67.2754C743.301 67.2754 743.301 67.2754 743.255 67.2353L720.769 54.2211C720.744 54.2187 720.719 54.2187 720.694 54.2211L720.625 54.1867L713.506 52.0062H713.38C713.329 51.9979 713.277 51.9979 713.226 52.0062L704.634 52.4584C704.608 52.4558 704.581 52.4558 704.554 52.4584H704.462L694.416 55.5488L694.359 55.5774H694.308L682.813 61.3005H682.778H682.738L671.186 68.8836C671.186 68.8836 671.186 68.8836 671.157 68.8836H671.117L661.042 77.4338V77.4682L661.002 77.4968L652.411 86.9513C652.409 86.9646 652.409 86.9781 652.411 86.9913C652.411 86.9913 652.382 86.9913 652.371 87.0257L645.177 97.4646V97.5103L645.148 97.5447L639.547 108.699V108.745V108.79L635.538 120.494C635.538 120.494 635.538 120.529 635.538 120.546C635.534 120.561 635.534 120.576 635.538 120.591L633.069 132.827C633.069 132.827 633.069 132.862 633.069 132.873C633.069 132.885 633.069 132.907 633.069 132.919L632.267 145.744L632.256 233.708ZM634.484 245.44L633.688 233.674V145.813L634.484 133.056L636.861 120.883L640.83 109.271L646.386 98.2028L653.465 87.9013L662.005 78.5155L672.016 70.0568L683.471 62.5539L694.875 56.8651L704.783 53.8205L713.174 53.397L720.127 55.503L737.092 65.2895L736.01 64.9575H735.964C735.939 64.9548 735.914 64.9548 735.889 64.9575C735.832 64.9575 735.775 64.9575 735.717 64.9575L727.126 65.4097H727.04C727.012 65.4069 726.983 65.4069 726.954 65.4097L716.903 68.5001L716.851 68.5287C716.832 68.5262 716.813 68.5262 716.794 68.5287L705.299 74.2518H705.264C705.264 74.2518 705.264 74.2518 705.224 74.2518L693.683 81.8062C693.683 81.8062 693.683 81.8062 693.655 81.8062H693.615L683.534 90.4137L683.506 90.4538H683.465L674.874 99.9026L674.846 99.9484C674.833 99.9583 674.821 99.9699 674.811 99.9827L667.675 110.382V110.427C667.675 110.427 667.675 110.427 667.646 110.467L662.045 121.616C662.045 121.616 662.045 121.65 662.045 121.667C662.044 121.681 662.044 121.694 662.045 121.707L658.035 133.417C658.032 133.432 658.032 133.448 658.035 133.463C658.035 133.463 658.035 133.491 658.035 133.508L655.636 145.779C655.638 145.794 655.638 145.809 655.636 145.824C655.636 145.824 655.636 145.824 655.636 145.87L654.753 158.701V246.734L655.555 258.58C655.555 258.58 655.555 258.62 655.555 258.643C655.555 258.666 655.555 258.683 655.555 258.706L657.961 268.166C657.976 268.206 657.993 268.244 658.012 268.281C658.012 268.281 658.012 268.321 658.012 268.344L661.959 275.303L646.242 266.203L640.767 261.625L636.861 254.757L634.484 245.44ZM668.666 279.132L663.253 274.611L659.347 267.743L656.981 258.443L656.185 246.682V158.793L656.976 146.03L659.358 133.858L663.322 122.245L668.878 111.183L675.957 100.881L684.496 91.5011L694.497 83.0539L705.952 75.5452L717.355 69.8622L727.287 66.7889L735.666 66.3483L742.539 68.4601L747.957 72.9813L751.863 79.849L754.229 89.1547L755.065 100.927V188.805L754.275 201.395L751.892 213.488L747.9 225.089L742.344 236.22L735.265 246.625L726.725 256.068L716.725 264.549L705.27 272.075L693.849 277.741L683.947 280.786L675.562 281.226L668.666 279.132Z" fill="white"/>
</mask>
<g mask="url(#mask0_288_3453)">
<path d="M639.69 35.0833H620.973V53.7862H639.69V35.0833Z" fill="#175DA3"/>
<path d="M639.69 53.7861H620.973V72.4891H639.69V53.7861Z" fill="#175DA3"/>
<path d="M639.69 72.4893H620.973V91.1922H639.69V72.4893Z" fill="#175DA3"/>
<path d="M639.69 91.1921H620.973V109.895H639.69V91.1921Z" fill="#175DA3"/>
<path d="M639.69 109.895H620.973V128.598H639.69V109.895Z" fill="#175DA3"/>
<path d="M639.69 128.598H620.973V147.301H639.69V128.598Z" fill="#175DA3"/>
<path d="M639.69 147.307H620.973V166.01H639.69V147.307Z" fill="#175DA3"/>
<path d="M639.69 166.01H620.973V184.713H639.69V166.01Z" fill="#175DA3"/>
<path d="M639.69 184.713H620.973V203.416H639.69V184.713Z" fill="#175DA3"/>
<path d="M639.69 203.416H620.973V222.119H639.69V203.416Z" fill="#175DA3"/>
<path d="M639.69 222.119H620.973V240.822H639.69V222.119Z" fill="#175DA3"/>
<path d="M639.69 240.822H620.973V259.525H639.69V240.822Z" fill="#175DA3"/>
<path d="M639.69 259.525H620.973V278.228H639.69V259.525Z" fill="#175DA3"/>
<path d="M639.69 278.228H620.973V296.931H639.69V278.228Z" fill="#175DA3"/>
<path d="M658.407 35.0833H639.689V53.7862H658.407V35.0833Z" fill="#175DA3"/>
<path d="M658.407 53.7861H639.689V72.4891H658.407V53.7861Z" fill="#175DA3"/>
<path d="M658.407 72.4893H639.689V91.1922H658.407V72.4893Z" fill="#175DA3"/>
<path d="M658.407 91.1921H639.689V109.895H658.407V91.1921Z" fill="#175DA3"/>
<path d="M658.407 109.895H639.689V128.598H658.407V109.895Z" fill="#175DA3"/>
<path d="M658.407 128.598H639.689V147.301H658.407V128.598Z" fill="#175DA3"/>
<path d="M658.407 147.307H639.689V166.01H658.407V147.307Z" fill="#175DA3"/>
<path d="M658.407 166.01H639.689V184.713H658.407V166.01Z" fill="#175DA3"/>
<path d="M658.407 184.713H639.689V203.416H658.407V184.713Z" fill="#175DA3"/>
<path d="M658.407 203.416H639.689V222.119H658.407V203.416Z" fill="#175DA3"/>
<path d="M658.407 222.119H639.689V240.822H658.407V222.119Z" fill="#175DA3"/>
<path d="M658.407 240.822H639.689V259.525H658.407V240.822Z" fill="#175DA3"/>
<path d="M658.407 259.525H639.689V278.228H658.407V259.525Z" fill="#175DA3"/>
<path d="M658.407 278.228H639.689V296.931H658.407V278.228Z" fill="#175DA3"/>
<path d="M677.126 35.0833H658.408V53.7862H677.126V35.0833Z" fill="#175DA3"/>
<path d="M677.126 53.7861H658.408V72.4891H677.126V53.7861Z" fill="#175DA3"/>
<path d="M677.126 72.4893H658.408V91.1922H677.126V72.4893Z" fill="#175DA3"/>
<path d="M677.126 91.1921H658.408V109.895H677.126V91.1921Z" fill="#175DA3"/>
<path d="M677.126 109.895H658.408V128.598H677.126V109.895Z" fill="#175DA3"/>
<path d="M677.126 128.598H658.408V147.301H677.126V128.598Z" fill="#175DA3"/>
<path d="M677.126 147.307H658.408V166.01H677.126V147.307Z" fill="#175DA3"/>
<path d="M677.126 166.01H658.408V184.713H677.126V166.01Z" fill="#175DA3"/>
<path d="M677.126 184.713H658.408V203.416H677.126V184.713Z" fill="#175DA3"/>
<path d="M677.126 203.416H658.408V222.119H677.126V203.416Z" fill="#175DA3"/>
<path d="M677.126 222.119H658.408V240.822H677.126V222.119Z" fill="#175DA3"/>
<path d="M677.126 240.822H658.408V259.525H677.126V240.822Z" fill="#175DA3"/>
<path d="M677.126 259.525H658.408V278.228H677.126V259.525Z" fill="#175DA3"/>
<path d="M677.126 278.228H658.408V296.931H677.126V278.228Z" fill="#175DA3"/>
<path d="M695.842 35.0833H677.125V53.7862H695.842V35.0833Z" fill="#175DA3"/>
<path d="M695.842 53.7861H677.125V72.4891H695.842V53.7861Z" fill="#175DA3"/>
<path d="M695.842 72.4893H677.125V91.1922H695.842V72.4893Z" fill="#175DA3"/>
<path d="M695.842 91.1921H677.125V109.895H695.842V91.1921Z" fill="#175DA3"/>
<path d="M695.842 109.895H677.125V128.598H695.842V109.895Z" fill="#175DA3"/>
<path d="M695.842 128.598H677.125V147.301H695.842V128.598Z" fill="#175DA3"/>
<path d="M695.842 147.307H677.125V166.01H695.842V147.307Z" fill="#175DA3"/>
<path d="M695.842 166.01H677.125V184.713H695.842V166.01Z" fill="#175DA3"/>
<path d="M695.842 184.713H677.125V203.416H695.842V184.713Z" fill="#175DA3"/>
<path d="M695.842 203.416H677.125V222.119H695.842V203.416Z" fill="#175DA3"/>
<path d="M695.842 222.119H677.125V240.822H695.842V222.119Z" fill="#175DA3"/>
<path d="M695.842 240.822H677.125V259.525H695.842V240.822Z" fill="#175DA3"/>
<path d="M695.842 259.525H677.125V278.228H695.842V259.525Z" fill="#175DA3"/>
<path d="M695.842 278.228H677.125V296.931H695.842V278.228Z" fill="#175DA3"/>
<path d="M714.559 35.0833H695.842V53.7862H714.559V35.0833Z" fill="#175DA3"/>
<path d="M714.559 53.7861H695.842V72.4891H714.559V53.7861Z" fill="#175DA3"/>
<path d="M714.559 72.4893H695.842V91.1922H714.559V72.4893Z" fill="#175DA3"/>
<path d="M714.559 91.1921H695.842V109.895H714.559V91.1921Z" fill="#175DA3"/>
<path d="M714.559 109.895H695.842V128.598H714.559V109.895Z" fill="#175DA3"/>
<path d="M714.559 128.598H695.842V147.301H714.559V128.598Z" fill="#175DA3"/>
<path d="M714.559 147.307H695.842V166.01H714.559V147.307Z" fill="#175DA3"/>
<path d="M714.559 166.01H695.842V184.713H714.559V166.01Z" fill="#175DA3"/>
<path d="M714.559 184.713H695.842V203.416H714.559V184.713Z" fill="#175DA3"/>
<path d="M714.559 203.416H695.842V222.119H714.559V203.416Z" fill="#175DA3"/>
<path d="M714.559 222.119H695.842V240.822H714.559V222.119Z" fill="#175DA3"/>
<path d="M714.559 240.822H695.842V259.525H714.559V240.822Z" fill="#175DA3"/>
<path d="M714.559 259.525H695.842V278.228H714.559V259.525Z" fill="#175DA3"/>
<path d="M714.559 278.228H695.842V296.931H714.559V278.228Z" fill="#175DA3"/>
<path d="M733.278 35.0833H714.561V53.7862H733.278V35.0833Z" fill="#175DA3"/>
<path d="M733.278 53.7861H714.561V72.4891H733.278V53.7861Z" fill="#175DA3"/>
<path d="M733.278 72.4893H714.561V91.1922H733.278V72.4893Z" fill="#175DA3"/>
<path d="M733.278 91.1921H714.561V109.895H733.278V91.1921Z" fill="#175DA3"/>
<path d="M733.278 109.895H714.561V128.598H733.278V109.895Z" fill="#175DA3"/>
<path d="M733.278 128.598H714.561V147.301H733.278V128.598Z" fill="#175DA3"/>
<path d="M733.278 147.307H714.561V166.01H733.278V147.307Z" fill="#175DA3"/>
<path d="M733.278 166.01H714.561V184.713H733.278V166.01Z" fill="#175DA3"/>
<path d="M733.278 184.713H714.561V203.416H733.278V184.713Z" fill="#175DA3"/>
<path d="M733.278 203.416H714.561V222.119H733.278V203.416Z" fill="#175DA3"/>
<path d="M733.278 222.119H714.561V240.822H733.278V222.119Z" fill="#175DA3"/>
<path d="M733.278 240.822H714.561V259.525H733.278V240.822Z" fill="#175DA3"/>
<path d="M733.278 259.525H714.561V278.228H733.278V259.525Z" fill="#175DA3"/>
<path d="M733.278 278.228H714.561V296.931H733.278V278.228Z" fill="#175DA3"/>
<path d="M751.995 35.0833H733.277V53.7862H751.995V35.0833Z" fill="#175DA3"/>
<path d="M751.995 53.7861H733.277V72.4891H751.995V53.7861Z" fill="#175DA3"/>
<path d="M751.995 72.4893H733.277V91.1922H751.995V72.4893Z" fill="#175DA3"/>
<path d="M751.995 91.1921H733.277V109.895H751.995V91.1921Z" fill="#175DA3"/>
<path d="M751.995 109.895H733.277V128.598H751.995V109.895Z" fill="#175DA3"/>
<path d="M751.995 128.598H733.277V147.301H751.995V128.598Z" fill="#175DA3"/>
<path d="M751.995 147.307H733.277V166.01H751.995V147.307Z" fill="#175DA3"/>
<path d="M751.995 166.01H733.277V184.713H751.995V166.01Z" fill="#175DA3"/>
<path d="M751.995 184.713H733.277V203.416H751.995V184.713Z" fill="#175DA3"/>
<path d="M751.995 203.416H733.277V222.119H751.995V203.416Z" fill="#175DA3"/>
<path d="M751.995 222.119H733.277V240.822H751.995V222.119Z" fill="#175DA3"/>
<path d="M751.995 240.822H733.277V259.525H751.995V240.822Z" fill="#175DA3"/>
<path d="M751.995 259.525H733.277V278.228H751.995V259.525Z" fill="#175DA3"/>
<path d="M751.995 278.228H733.277V296.931H751.995V278.228Z" fill="#175DA3"/>
<path d="M770.712 35.0833H751.994V53.7862H770.712V35.0833Z" fill="#175DA3"/>
<path d="M770.712 53.7861H751.994V72.4891H770.712V53.7861Z" fill="#175DA3"/>
<path d="M770.712 72.4893H751.994V91.1922H770.712V72.4893Z" fill="#175DA3"/>
<path d="M770.712 91.1921H751.994V109.895H770.712V91.1921Z" fill="#175DA3"/>
<path d="M770.712 109.895H751.994V128.598H770.712V109.895Z" fill="#175DA3"/>
<path d="M770.712 128.598H751.994V147.301H770.712V128.598Z" fill="#175DA3"/>
<path d="M770.712 147.307H751.994V166.01H770.712V147.307Z" fill="#175DA3"/>
<path d="M770.712 166.01H751.994V184.713H770.712V166.01Z" fill="#175DA3"/>
<path d="M770.712 184.713H751.994V203.416H770.712V184.713Z" fill="#175DA3"/>
<path d="M770.712 203.416H751.994V222.119H770.712V203.416Z" fill="#175DA3"/>
<path d="M770.712 222.119H751.994V240.822H770.712V222.119Z" fill="#175DA3"/>
<path d="M770.712 240.822H751.994V259.525H770.712V240.822Z" fill="#175DA3"/>
<path d="M770.712 259.525H751.994V278.228H770.712V259.525Z" fill="#175DA3"/>
<path d="M770.712 278.228H751.994V296.931H770.712V278.228Z" fill="#175DA3"/>
<path d="M639.69 35.0833H620.973V53.7862H639.69V35.0833Z" fill="#175DA3"/>
<path d="M639.69 53.7861H620.973V72.4891H639.69V53.7861Z" fill="#175DA3"/>
<path d="M639.69 72.4893H620.973V91.1922H639.69V72.4893Z" fill="#175DA3"/>
<path d="M639.69 91.1921H620.973V109.895H639.69V91.1921Z" fill="#175DA3"/>
<path d="M639.69 109.895H620.973V128.598H639.69V109.895Z" fill="#175DA3"/>
<path d="M639.69 128.598H620.973V147.301H639.69V128.598Z" fill="#175DA3"/>
<path d="M639.69 147.307H620.973V166.01H639.69V147.307Z" fill="#175DA3"/>
<path d="M639.69 166.01H620.973V184.713H639.69V166.01Z" fill="#175DA3"/>
<path d="M639.69 184.713H620.973V203.416H639.69V184.713Z" fill="#175DA3"/>
<path d="M639.69 203.416H620.973V222.119H639.69V203.416Z" fill="#175DA3"/>
<path d="M639.69 222.119H620.973V240.822H639.69V222.119Z" fill="#175DA3"/>
<path d="M639.69 240.822H620.973V259.525H639.69V240.822Z" fill="#175DA3"/>
<path d="M639.69 259.525H620.973V278.228H639.69V259.525Z" fill="#175DA3"/>
<path d="M658.407 35.0833H639.689V53.7862H658.407V35.0833Z" fill="#175DA3"/>
<path d="M658.407 53.7861H639.689V72.4891H658.407V53.7861Z" fill="#175DA3"/>
<path d="M658.407 72.4893H639.689V91.1922H658.407V72.4893Z" fill="#175DA3"/>
<path d="M658.407 91.1921H639.689V109.895H658.407V91.1921Z" fill="#175DA3"/>
<path d="M658.407 109.895H639.689V128.598H658.407V109.895Z" fill="#175DA3"/>
<path d="M658.407 128.598H639.689V147.301H658.407V128.598Z" fill="#175DA3"/>
<path d="M658.407 147.307H639.689V166.01H658.407V147.307Z" fill="#175DA3"/>
<path d="M658.407 166.01H639.689V184.713H658.407V166.01Z" fill="#175DA3"/>
<path d="M658.407 184.713H639.689V203.416H658.407V184.713Z" fill="#175DA3"/>
<path d="M658.407 203.416H639.689V222.119H658.407V203.416Z" fill="#175DA3"/>
<path d="M658.407 222.119H639.689V240.822H658.407V222.119Z" fill="#175DA3"/>
<path d="M658.407 240.822H639.689V259.525H658.407V240.822Z" fill="#175DA3"/>
<path d="M658.407 259.525H639.689V278.228H658.407V259.525Z" fill="#175DA3"/>
<path d="M677.126 35.0833H658.408V53.7862H677.126V35.0833Z" fill="#175DA3"/>
<path d="M677.126 53.7861H658.408V72.4891H677.126V53.7861Z" fill="#175DA3"/>
<path d="M677.126 72.4893H658.408V91.1922H677.126V72.4893Z" fill="#175DA3"/>
<path d="M677.126 91.1921H658.408V109.895H677.126V91.1921Z" fill="#175DA3"/>
<path d="M677.126 109.895H658.408V128.598H677.126V109.895Z" fill="#175DA3"/>
<path d="M677.126 128.598H658.408V147.301H677.126V128.598Z" fill="#175DA3"/>
<path d="M677.126 147.307H658.408V166.01H677.126V147.307Z" fill="#175DA3"/>
<path d="M677.126 166.01H658.408V184.713H677.126V166.01Z" fill="#175DA3"/>
<path d="M677.126 184.713H658.408V203.416H677.126V184.713Z" fill="#175DA3"/>
<path d="M677.126 203.416H658.408V222.119H677.126V203.416Z" fill="#175DA3"/>
<path d="M677.126 222.119H658.408V240.822H677.126V222.119Z" fill="#175DA3"/>
<path d="M677.126 240.822H658.408V259.525H677.126V240.822Z" fill="#175DA3"/>
<path d="M677.126 259.525H658.408V278.228H677.126V259.525Z" fill="#175DA3"/>
<path d="M695.842 35.0833H677.125V53.7862H695.842V35.0833Z" fill="#175DA3"/>
<path d="M695.842 53.7861H677.125V72.4891H695.842V53.7861Z" fill="#175DA3"/>
<path d="M695.842 72.4893H677.125V91.1922H695.842V72.4893Z" fill="#175DA3"/>
<path d="M695.842 91.1921H677.125V109.895H695.842V91.1921Z" fill="#175DA3"/>
<path d="M695.842 109.895H677.125V128.598H695.842V109.895Z" fill="#175DA3"/>
<path d="M695.842 128.598H677.125V147.301H695.842V128.598Z" fill="#175DA3"/>
<path d="M695.842 147.307H677.125V166.01H695.842V147.307Z" fill="#175DA3"/>
<path d="M695.842 166.01H677.125V184.713H695.842V166.01Z" fill="#175DA3"/>
<path d="M695.842 184.713H677.125V203.416H695.842V184.713Z" fill="#175DA3"/>
<path d="M695.842 203.416H677.125V222.119H695.842V203.416Z" fill="#175DA3"/>
<path d="M695.842 222.119H677.125V240.822H695.842V222.119Z" fill="#175DA3"/>
<path d="M695.842 240.822H677.125V259.525H695.842V240.822Z" fill="#175DA3"/>
<path d="M695.842 259.525H677.125V278.228H695.842V259.525Z" fill="#175DA3"/>
<path d="M714.559 35.0833H695.842V53.7862H714.559V35.0833Z" fill="#175DA3"/>
<path d="M714.559 53.7861H695.842V72.4891H714.559V53.7861Z" fill="#175DA3"/>
<path d="M714.559 72.4893H695.842V91.1922H714.559V72.4893Z" fill="#175DA3"/>
<path d="M714.559 91.1921H695.842V109.895H714.559V91.1921Z" fill="#175DA3"/>
<path d="M714.559 109.895H695.842V128.598H714.559V109.895Z" fill="#175DA3"/>
<path d="M714.559 128.598H695.842V147.301H714.559V128.598Z" fill="#175DA3"/>
<path d="M714.559 147.307H695.842V166.01H714.559V147.307Z" fill="#175DA3"/>
<path d="M714.559 166.01H695.842V184.713H714.559V166.01Z" fill="#175DA3"/>
<path d="M714.559 184.713H695.842V203.416H714.559V184.713Z" fill="#175DA3"/>
<path d="M714.559 203.416H695.842V222.119H714.559V203.416Z" fill="#175DA3"/>
<path d="M714.559 222.119H695.842V240.822H714.559V222.119Z" fill="#175DA3"/>
<path d="M714.559 240.822H695.842V259.525H714.559V240.822Z" fill="#175DA3"/>
<path d="M714.559 259.525H695.842V278.228H714.559V259.525Z" fill="#175DA3"/>
<path d="M733.278 35.0833H714.561V53.7862H733.278V35.0833Z" fill="#175DA3"/>
<path d="M733.278 53.7861H714.561V72.4891H733.278V53.7861Z" fill="#175DA3"/>
<path d="M733.278 72.4893H714.561V91.1922H733.278V72.4893Z" fill="#175DA3"/>
<path d="M733.278 91.1921H714.561V109.895H733.278V91.1921Z" fill="#175DA3"/>
<path d="M733.278 109.895H714.561V128.598H733.278V109.895Z" fill="#175DA3"/>
<path d="M733.278 128.598H714.561V147.301H733.278V128.598Z" fill="#175DA3"/>
<path d="M733.278 147.307H714.561V166.01H733.278V147.307Z" fill="#175DA3"/>
<path d="M733.278 166.01H714.561V184.713H733.278V166.01Z" fill="#175DA3"/>
<path d="M733.278 184.713H714.561V203.416H733.278V184.713Z" fill="#175DA3"/>
<path d="M733.278 203.416H714.561V222.119H733.278V203.416Z" fill="#175DA3"/>
<path d="M733.278 222.119H714.561V240.822H733.278V222.119Z" fill="#175DA3"/>
<path d="M733.278 240.822H714.561V259.525H733.278V240.822Z" fill="#175DA3"/>
<path d="M733.278 259.525H714.561V278.228H733.278V259.525Z" fill="#175DA3"/>
<path d="M751.995 35.0833H733.277V53.7862H751.995V35.0833Z" fill="#175DA3"/>
<path d="M751.995 53.7861H733.277V72.4891H751.995V53.7861Z" fill="#175DA3"/>
<path d="M751.995 72.4893H733.277V91.1922H751.995V72.4893Z" fill="#175DA3"/>
<path d="M751.995 91.1921H733.277V109.895H751.995V91.1921Z" fill="#175DA3"/>
<path d="M751.995 109.895H733.277V128.598H751.995V109.895Z" fill="#175DA3"/>
<path d="M751.995 128.598H733.277V147.301H751.995V128.598Z" fill="#175DA3"/>
<path d="M751.995 147.307H733.277V166.01H751.995V147.307Z" fill="#175DA3"/>
<path d="M751.995 166.01H733.277V184.713H751.995V166.01Z" fill="#175DA3"/>
<path d="M751.995 184.713H733.277V203.416H751.995V184.713Z" fill="#175DA3"/>
<path d="M751.995 203.416H733.277V222.119H751.995V203.416Z" fill="#175DA3"/>
<path d="M751.995 222.119H733.277V240.822H751.995V222.119Z" fill="#175DA3"/>
<path d="M751.995 240.822H733.277V259.525H751.995V240.822Z" fill="#175DA3"/>
<path d="M751.995 259.525H733.277V278.228H751.995V259.525Z" fill="#175DA3"/>
<path d="M658.407 53.7861H639.689V72.4891H658.407V53.7861Z" fill="#175DA3"/>
<path d="M658.407 72.4893H639.689V91.1922H658.407V72.4893Z" fill="#175DA3"/>
<path d="M658.407 91.1921H639.689V109.895H658.407V91.1921Z" fill="#175DA3"/>
<path d="M658.407 109.895H639.689V128.598H658.407V109.895Z" fill="#175DA3"/>
<path d="M658.407 128.598H639.689V147.301H658.407V128.598Z" fill="#175DA3"/>
<path d="M658.407 147.307H639.689V166.01H658.407V147.307Z" fill="#175DA3"/>
<path d="M658.407 166.01H639.689V184.713H658.407V166.01Z" fill="#175DA3"/>
<path d="M658.407 184.713H639.689V203.416H658.407V184.713Z" fill="#175DA3"/>
<path d="M658.407 203.416H639.689V222.119H658.407V203.416Z" fill="#175DA3"/>
<path d="M658.407 222.119H639.689V240.822H658.407V222.119Z" fill="#175DA3"/>
<path d="M658.407 240.822H639.689V259.525H658.407V240.822Z" fill="#175DA3"/>
<path d="M658.407 259.525H639.689V278.228H658.407V259.525Z" fill="#175DA3"/>
<path d="M658.407 278.228H639.689V296.931H658.407V278.228Z" fill="#175DA3"/>
<path d="M677.126 53.7861H658.408V72.4891H677.126V53.7861Z" fill="#175DA3"/>
<path d="M677.126 72.4893H658.408V91.1922H677.126V72.4893Z" fill="#175DA3"/>
<path d="M677.126 91.1921H658.408V109.895H677.126V91.1921Z" fill="#175DA3"/>
<path d="M677.126 109.895H658.408V128.598H677.126V109.895Z" fill="#175DA3"/>
<path d="M677.126 128.598H658.408V147.301H677.126V128.598Z" fill="#175DA3"/>
<path d="M677.126 147.307H658.408V166.01H677.126V147.307Z" fill="#175DA3"/>
<path d="M677.126 166.01H658.408V184.713H677.126V166.01Z" fill="#175DA3"/>
<path d="M677.126 184.713H658.408V203.416H677.126V184.713Z" fill="#175DA3"/>
<path d="M677.126 203.416H658.408V222.119H677.126V203.416Z" fill="#175DA3"/>
<path d="M677.126 222.119H658.408V240.822H677.126V222.119Z" fill="#175DA3"/>
<path d="M677.126 240.822H658.408V259.525H677.126V240.822Z" fill="#175DA3"/>
<path d="M677.126 259.525H658.408V278.228H677.126V259.525Z" fill="#175DA3"/>
<path d="M677.126 278.228H658.408V296.931H677.126V278.228Z" fill="#175DA3"/>
<path d="M695.842 53.7861H677.125V72.4891H695.842V53.7861Z" fill="#175DA3"/>
<path d="M695.842 72.4893H677.125V91.1922H695.842V72.4893Z" fill="#175DA3"/>
<path d="M695.842 91.1921H677.125V109.895H695.842V91.1921Z" fill="#175DA3"/>
<path d="M695.842 109.895H677.125V128.598H695.842V109.895Z" fill="#175DA3"/>
<path d="M695.842 128.598H677.125V147.301H695.842V128.598Z" fill="#175DA3"/>
<path d="M695.842 147.307H677.125V166.01H695.842V147.307Z" fill="#175DA3"/>
<path d="M695.842 166.01H677.125V184.713H695.842V166.01Z" fill="#175DA3"/>
<path d="M695.842 184.713H677.125V203.416H695.842V184.713Z" fill="#175DA3"/>
<path d="M695.842 203.416H677.125V222.119H695.842V203.416Z" fill="#175DA3"/>
<path d="M695.842 222.119H677.125V240.822H695.842V222.119Z" fill="#175DA3"/>
<path d="M695.842 240.822H677.125V259.525H695.842V240.822Z" fill="#175DA3"/>
<path d="M695.842 259.525H677.125V278.228H695.842V259.525Z" fill="#175DA3"/>
<path d="M695.842 278.228H677.125V296.931H695.842V278.228Z" fill="#175DA3"/>
<path d="M714.559 53.7861H695.842V72.4891H714.559V53.7861Z" fill="#175DA3"/>
<path d="M714.559 72.4893H695.842V91.1922H714.559V72.4893Z" fill="#175DA3"/>
<path d="M714.559 91.1921H695.842V109.895H714.559V91.1921Z" fill="#175DA3"/>
<path d="M714.559 109.895H695.842V128.598H714.559V109.895Z" fill="#175DA3"/>
<path d="M714.559 128.598H695.842V147.301H714.559V128.598Z" fill="#175DA3"/>
<path d="M714.559 147.307H695.842V166.01H714.559V147.307Z" fill="#175DA3"/>
<path d="M714.559 166.01H695.842V184.713H714.559V166.01Z" fill="#175DA3"/>
<path d="M714.559 184.713H695.842V203.416H714.559V184.713Z" fill="#175DA3"/>
<path d="M714.559 203.416H695.842V222.119H714.559V203.416Z" fill="#175DA3"/>
<path d="M714.559 222.119H695.842V240.822H714.559V222.119Z" fill="#175DA3"/>
<path d="M714.559 240.822H695.842V259.525H714.559V240.822Z" fill="#175DA3"/>
<path d="M714.559 259.525H695.842V278.228H714.559V259.525Z" fill="#175DA3"/>
<path d="M714.559 278.228H695.842V296.931H714.559V278.228Z" fill="#175DA3"/>
<path d="M733.278 53.7861H714.561V72.4891H733.278V53.7861Z" fill="#175DA3"/>
<path d="M733.278 72.4893H714.561V91.1922H733.278V72.4893Z" fill="#175DA3"/>
<path d="M733.278 91.1921H714.561V109.895H733.278V91.1921Z" fill="#175DA3"/>
<path d="M733.278 109.895H714.561V128.598H733.278V109.895Z" fill="#175DA3"/>
<path d="M733.278 128.598H714.561V147.301H733.278V128.598Z" fill="#175DA3"/>
<path d="M733.278 147.307H714.561V166.01H733.278V147.307Z" fill="#175DA3"/>
<path d="M733.278 166.01H714.561V184.713H733.278V166.01Z" fill="#175DA3"/>
<path d="M733.278 184.713H714.561V203.416H733.278V184.713Z" fill="#175DA3"/>
<path d="M733.278 203.416H714.561V222.119H733.278V203.416Z" fill="#175DA3"/>
<path d="M733.278 222.119H714.561V240.822H733.278V222.119Z" fill="#175DA3"/>
<path d="M733.278 240.822H714.561V259.525H733.278V240.822Z" fill="#175DA3"/>
<path d="M733.278 259.525H714.561V278.228H733.278V259.525Z" fill="#175DA3"/>
<path d="M733.278 278.228H714.561V296.931H733.278V278.228Z" fill="#175DA3"/>
<path d="M751.995 53.7861H733.277V72.4891H751.995V53.7861Z" fill="#175DA3"/>
<path d="M751.995 72.4893H733.277V91.1922H751.995V72.4893Z" fill="#175DA3"/>
<path d="M751.995 91.1921H733.277V109.895H751.995V91.1921Z" fill="#175DA3"/>
<path d="M751.995 109.895H733.277V128.598H751.995V109.895Z" fill="#175DA3"/>
<path d="M751.995 128.598H733.277V147.301H751.995V128.598Z" fill="#175DA3"/>
<path d="M751.995 147.307H733.277V166.01H751.995V147.307Z" fill="#175DA3"/>
<path d="M751.995 166.01H733.277V184.713H751.995V166.01Z" fill="#175DA3"/>
<path d="M751.995 184.713H733.277V203.416H751.995V184.713Z" fill="#175DA3"/>
<path d="M751.995 203.416H733.277V222.119H751.995V203.416Z" fill="#175DA3"/>
<path d="M751.995 222.119H733.277V240.822H751.995V222.119Z" fill="#175DA3"/>
<path d="M751.995 240.822H733.277V259.525H751.995V240.822Z" fill="#175DA3"/>
<path d="M751.995 259.525H733.277V278.228H751.995V259.525Z" fill="#175DA3"/>
<path d="M751.995 278.228H733.277V296.931H751.995V278.228Z" fill="#175DA3"/>
<path d="M770.712 53.7861H751.994V72.4891H770.712V53.7861Z" fill="#175DA3"/>
<path d="M770.712 72.4893H751.994V91.1922H770.712V72.4893Z" fill="#175DA3"/>
<path d="M770.712 91.1921H751.994V109.895H770.712V91.1921Z" fill="#175DA3"/>
<path d="M770.712 109.895H751.994V128.598H770.712V109.895Z" fill="#175DA3"/>
<path d="M770.712 128.598H751.994V147.301H770.712V128.598Z" fill="#175DA3"/>
<path d="M770.712 147.307H751.994V166.01H770.712V147.307Z" fill="#175DA3"/>
<path d="M770.712 166.01H751.994V184.713H770.712V166.01Z" fill="#175DA3"/>
<path d="M770.712 184.713H751.994V203.416H770.712V184.713Z" fill="#175DA3"/>
<path d="M770.712 203.416H751.994V222.119H770.712V203.416Z" fill="#175DA3"/>
<path d="M770.712 222.119H751.994V240.822H770.712V222.119Z" fill="#175DA3"/>
<path d="M770.712 240.822H751.994V259.525H770.712V240.822Z" fill="#175DA3"/>
<path d="M770.712 259.525H751.994V278.228H770.712V259.525Z" fill="#175DA3"/>
<path d="M770.712 278.228H751.994V296.931H770.712V278.228Z" fill="#175DA3"/>
</g>
<mask id="mask1_288_3453" style="mask-type:luminance" maskUnits="userSpaceOnUse" x="686" y="106" width="39" height="136">
<path d="M686.334 219.154C686.334 219.154 686.334 219.154 686.334 219.188C686.334 219.223 686.334 219.188 686.334 219.223L686.534 221.346L687.107 227.384L687.451 231.024C687.458 231.073 687.471 231.121 687.491 231.167C687.491 231.195 687.491 231.23 687.491 231.258L690.252 237.107L690.899 238.492C690.931 238.564 690.978 238.628 691.036 238.681L691.076 238.721C691.128 238.766 691.186 238.803 691.248 238.83H691.283L697.044 241.119C697.123 241.149 697.207 241.164 697.291 241.165C697.367 241.163 697.442 241.149 697.514 241.125L705.848 238.252C705.917 238.225 705.983 238.188 706.042 238.143L714.341 231.476C714.398 231.431 714.446 231.377 714.485 231.316L720.252 222.353V222.302C720.279 222.263 720.3 222.221 720.315 222.176L723.689 211.067C723.689 211.067 723.689 211.022 723.689 210.999C723.689 210.976 723.689 210.947 723.689 210.924L724.834 197.819C724.834 197.809 724.834 197.799 724.834 197.79C724.834 197.79 724.834 197.79 724.834 197.761V128.438C724.834 128.438 724.834 128.438 724.834 128.404C724.834 128.369 724.834 128.404 724.834 128.369L723.689 116.563C723.689 116.522 723.66 116.494 723.654 116.454C723.648 116.411 723.637 116.368 723.62 116.328L720.252 109.117C720.252 109.082 720.206 109.06 720.189 109.031C720.162 108.983 720.129 108.939 720.092 108.899C720.05 108.864 720.004 108.835 719.954 108.813C719.928 108.791 719.899 108.772 719.868 108.756L714.107 106.467C714.072 106.462 714.038 106.462 714.004 106.467C713.954 106.459 713.904 106.459 713.855 106.467C713.803 106.461 713.751 106.461 713.7 106.467C713.668 106.464 713.635 106.464 713.603 106.467L709.021 108.075L705.309 109.374C705.273 109.392 705.238 109.413 705.206 109.437C705.168 109.452 705.131 109.471 705.097 109.495L700.962 112.814L696.804 116.162C696.775 116.186 696.749 116.215 696.729 116.248C696.7 116.274 696.673 116.302 696.649 116.334L690.882 125.29C690.882 125.319 690.882 125.353 690.847 125.382C690.813 125.41 690.813 125.439 690.801 125.473L687.479 136.542C687.477 136.566 687.477 136.591 687.479 136.616C687.479 136.645 687.479 136.662 687.479 136.691L686.334 149.791C686.334 149.791 686.334 149.791 686.334 149.825V219.154ZM688.877 230.766L688.539 227.247L688.006 221.592L691.867 218.49C691.923 218.447 691.971 218.395 692.01 218.336L697.789 209.356C697.789 209.356 697.789 209.316 697.789 209.299C697.813 209.261 697.834 209.221 697.852 209.179L701.225 198.07C701.231 198.046 701.231 198.02 701.225 197.996C701.229 197.971 701.229 197.946 701.225 197.922L702.371 184.822C702.371 184.822 702.371 184.821 702.371 184.793C702.371 184.764 702.371 184.793 702.371 184.759V115.458C702.371 115.458 702.371 115.458 702.371 115.424L702.205 113.707L705.945 110.702L709.542 109.443L713.878 107.921L719.13 110.027L722.331 116.894L723.437 128.541V197.79L722.326 210.781L719.021 221.655L713.374 230.434L705.235 236.941L697.308 239.717L692.061 237.611L691.529 236.466L688.877 230.766ZM700.905 114.731L700.979 115.492V184.741L699.862 197.738L696.54 208.675L690.893 217.46L687.858 219.898L687.783 219.131V149.882L688.9 136.885L692.222 125.948L697.869 117.169L700.905 114.731Z" fill="white"/>
</mask>
<g mask="url(#mask1_288_3453)">
<path d="M695.842 91.1921H677.125V109.895H695.842V91.1921Z" fill="#175DA3"/>
<path d="M695.842 109.895H677.125V128.598H695.842V109.895Z" fill="#175DA3"/>
<path d="M695.842 128.598H677.125V147.301H695.842V128.598Z" fill="#175DA3"/>
<path d="M695.842 147.307H677.125V166.01H695.842V147.307Z" fill="#175DA3"/>
<path d="M695.842 166.01H677.125V184.713H695.842V166.01Z" fill="#175DA3"/>
<path d="M695.842 184.713H677.125V203.416H695.842V184.713Z" fill="#175DA3"/>
<path d="M695.842 203.416H677.125V222.119H695.842V203.416Z" fill="#175DA3"/>
<path d="M695.842 222.119H677.125V240.822H695.842V222.119Z" fill="#175DA3"/>
<path d="M695.842 240.822H677.125V259.525H695.842V240.822Z" fill="#175DA3"/>
<path d="M714.559 91.1921H695.842V109.895H714.559V91.1921Z" fill="#175DA3"/>
<path d="M714.559 109.895H695.842V128.598H714.559V109.895Z" fill="#175DA3"/>
<path d="M714.559 128.598H695.842V147.301H714.559V128.598Z" fill="#175DA3"/>
<path d="M714.559 147.307H695.842V166.01H714.559V147.307Z" fill="#175DA3"/>
<path d="M714.559 166.01H695.842V184.713H714.559V166.01Z" fill="#175DA3"/>
<path d="M714.559 184.713H695.842V203.416H714.559V184.713Z" fill="#175DA3"/>
<path d="M714.559 203.416H695.842V222.119H714.559V203.416Z" fill="#175DA3"/>
<path d="M714.559 222.119H695.842V240.822H714.559V222.119Z" fill="#175DA3"/>
<path d="M714.559 240.822H695.842V259.525H714.559V240.822Z" fill="#175DA3"/>
<path d="M733.278 91.1921H714.561V109.895H733.278V91.1921Z" fill="#175DA3"/>
<path d="M733.278 109.895H714.561V128.598H733.278V109.895Z" fill="#175DA3"/>
<path d="M733.278 128.598H714.561V147.301H733.278V128.598Z" fill="#175DA3"/>
<path d="M733.278 147.307H714.561V166.01H733.278V147.307Z" fill="#175DA3"/>
<path d="M733.278 166.01H714.561V184.713H733.278V166.01Z" fill="#175DA3"/>
<path d="M733.278 184.713H714.561V203.416H733.278V184.713Z" fill="#175DA3"/>
<path d="M733.278 203.416H714.561V222.119H733.278V203.416Z" fill="#175DA3"/>
<path d="M733.278 222.119H714.561V240.822H733.278V222.119Z" fill="#175DA3"/>
<path d="M733.278 240.822H714.561V259.525H733.278V240.822Z" fill="#175DA3"/>
<path d="M695.842 91.1921H677.125V109.895H695.842V91.1921Z" fill="#175DA3"/>
<path d="M695.842 109.895H677.125V128.598H695.842V109.895Z" fill="#175DA3"/>
<path d="M695.842 128.598H677.125V147.301H695.842V128.598Z" fill="#175DA3"/>
<path d="M695.842 147.307H677.125V166.01H695.842V147.307Z" fill="#175DA3"/>
<path d="M695.842 166.01H677.125V184.713H695.842V166.01Z" fill="#175DA3"/>
<path d="M695.842 184.713H677.125V203.416H695.842V184.713Z" fill="#175DA3"/>
<path d="M695.842 203.416H677.125V222.119H695.842V203.416Z" fill="#175DA3"/>
<path d="M695.842 222.119H677.125V240.822H695.842V222.119Z" fill="#175DA3"/>
<path d="M714.559 91.1921H695.842V109.895H714.559V91.1921Z" fill="#175DA3"/>
<path d="M714.559 109.895H695.842V128.598H714.559V109.895Z" fill="#175DA3"/>
<path d="M714.559 128.598H695.842V147.301H714.559V128.598Z" fill="#175DA3"/>
<path d="M714.559 147.307H695.842V166.01H714.559V147.307Z" fill="#175DA3"/>
<path d="M714.559 166.01H695.842V184.713H714.559V166.01Z" fill="#175DA3"/>
<path d="M714.559 184.713H695.842V203.416H714.559V184.713Z" fill="#175DA3"/>
<path d="M714.559 203.416H695.842V222.119H714.559V203.416Z" fill="#175DA3"/>
<path d="M714.559 222.119H695.842V240.822H714.559V222.119Z" fill="#175DA3"/>
<path d="M733.278 91.1921H714.561V109.895H733.278V91.1921Z" fill="#175DA3"/>
<path d="M733.278 109.895H714.561V128.598H733.278V109.895Z" fill="#175DA3"/>
<path d="M733.278 128.598H714.561V147.301H733.278V128.598Z" fill="#175DA3"/>
<path d="M733.278 147.307H714.561V166.01H733.278V147.307Z" fill="#175DA3"/>
<path d="M733.278 166.01H714.561V184.713H733.278V166.01Z" fill="#175DA3"/>
<path d="M733.278 184.713H714.561V203.416H733.278V184.713Z" fill="#175DA3"/>
<path d="M733.278 203.416H714.561V222.119H733.278V203.416Z" fill="#175DA3"/>
<path d="M733.278 222.119H714.561V240.822H733.278V222.119Z" fill="#175DA3"/>
<path d="M695.842 109.895H677.125V128.598H695.842V109.895Z" fill="#175DA3"/>
<path d="M695.842 128.598H677.125V147.301H695.842V128.598Z" fill="#175DA3"/>
<path d="M695.842 147.307H677.125V166.01H695.842V147.307Z" fill="#175DA3"/>
<path d="M695.842 166.01H677.125V184.713H695.842V166.01Z" fill="#175DA3"/>
<path d="M695.842 184.713H677.125V203.416H695.842V184.713Z" fill="#175DA3"/>
<path d="M695.842 203.416H677.125V222.119H695.842V203.416Z" fill="#175DA3"/>
<path d="M714.559 109.895H695.842V128.598H714.559V109.895Z" fill="#175DA3"/>
<path d="M714.559 128.598H695.842V147.301H714.559V128.598Z" fill="#175DA3"/>
<path d="M714.559 147.307H695.842V166.01H714.559V147.307Z" fill="#175DA3"/>
<path d="M714.559 166.01H695.842V184.713H714.559V166.01Z" fill="#175DA3"/>
<path d="M714.559 184.713H695.842V203.416H714.559V184.713Z" fill="#175DA3"/>
<path d="M714.559 203.416H695.842V222.119H714.559V203.416Z" fill="#175DA3"/>
</g>
<path d="M852.575 229.875L830.312 242.867L831.2 249.397L887.209 304.476L922.227 324.632L941.89 313.352L943.156 314.365L965.453 301.214L964.456 294.46L951.088 287.049L949.931 276.793L899.266 257.192L852.575 229.875Z" fill="#CCDEFE"/>
<path d="M941.123 237.035V272.02L928.03 264.466V294.146L896.563 275.992V246.312L829.145 207.418V174.024L880.6 74.1108L916.203 94.6509L866.127 193.769L896.563 211.327V185.47V164.959V162.567L928.03 180.72V229.481L941.123 237.035Z" fill="#ACC8FE"/>
<path d="M941.123 272.02V237.035L963.535 224.107V259.092L950.442 266.646L941.123 272.02Z" fill="#ACC8FE"/>
<path d="M941.122 237.035L928.029 229.481L950.441 216.552L963.534 224.107L941.122 237.035Z" fill="white"/>
<path d="M928.029 229.481V180.72L950.441 167.792V216.552L928.029 229.481Z" fill="#ACC8FE"/>
<path d="M896.563 211.327L866.127 193.769L888.539 180.84L896.563 185.47V211.327Z" fill="white"/>
<path d="M928.029 264.466L941.122 272.02L950.441 266.646V281.217L928.029 294.146V264.466Z" fill="#ACC8FE"/>
<path d="M916.202 94.6509L880.6 74.1108L903.006 61.1824L938.608 81.7225L916.202 94.6509Z" fill="white"/>
<path d="M866.127 193.769L916.202 94.6511L938.609 81.7227L898.27 161.582L896.563 162.567V164.959L888.539 180.84L866.127 193.769Z" fill="#ACC8FE"/>
<path d="M928.029 180.72L896.562 162.567L898.269 161.582L918.968 149.638L950.441 167.792L928.029 180.72Z" fill="white"/>
<path d="M964.221 259.178C964.221 259.149 964.221 259.12 964.221 259.092V224.107C964.221 224.107 964.221 224.107 964.221 224.067C964.224 224.036 964.224 224.005 964.221 223.975C964.225 223.943 964.225 223.91 964.221 223.878C964.215 223.847 964.203 223.818 964.187 223.792C964.187 223.792 964.187 223.763 964.187 223.752C964.187 223.74 964.187 223.752 964.187 223.718C964.171 223.69 964.152 223.665 964.13 223.643L964.061 223.574L963.986 223.517L963.952 223.489L951.22 216.14V167.792C951.22 167.792 951.22 167.792 951.22 167.746C951.222 167.715 951.222 167.685 951.22 167.654C951.22 167.62 951.22 167.591 951.22 167.557C951.209 167.527 951.195 167.499 951.18 167.471C951.179 167.458 951.179 167.445 951.18 167.431C951.18 167.431 951.18 167.431 951.18 167.397L951.123 167.328L951.054 167.254L950.979 167.197L950.945 167.168L919.478 149.014H919.392L919.255 148.969H918.986C918.936 148.981 918.888 148.998 918.842 149.02H918.762L900.136 159.768L939.249 82.0487C939.252 82.024 939.252 81.9991 939.249 81.9743C939.266 81.9375 939.28 81.8992 939.289 81.8599C939.289 81.8599 939.289 81.8141 939.289 81.7912C939.292 81.7627 939.292 81.7339 939.289 81.7054C939.289 81.6653 939.289 81.6252 939.289 81.5909C939.289 81.5566 939.289 81.5451 939.289 81.5222C939.289 81.4993 939.261 81.465 939.249 81.4364C939.238 81.4078 939.249 81.3906 939.249 81.3677V81.3334L939.209 81.2819C939.189 81.2562 939.166 81.2331 939.141 81.2132C939.103 81.1898 939.062 81.1706 939.02 81.156C939.02 81.156 939.02 81.156 938.986 81.156L903.367 60.5529C903.339 60.5408 903.31 60.5312 903.281 60.5243L903.143 60.4785H903.006H902.874L902.731 60.5243C902.731 60.5243 902.674 60.5243 902.651 60.5529L880.239 73.4928C880.219 73.5021 880.199 73.5136 880.182 73.5271C880.159 73.5487 880.138 73.5716 880.119 73.5958C880.086 73.6339 880.055 73.674 880.027 73.716C880.014 73.7259 880.003 73.7375 879.993 73.7503L828.508 173.698C828.491 173.745 828.478 173.792 828.468 173.841C828.456 173.886 828.446 173.932 828.439 173.978V207.372C828.439 207.401 828.439 207.43 828.439 207.458C828.448 207.507 828.459 207.555 828.474 207.601C828.487 207.646 828.506 207.688 828.531 207.727C828.553 207.766 828.577 207.802 828.606 207.836C828.638 207.873 828.674 207.906 828.714 207.933C828.743 207.933 828.754 207.979 828.783 207.991L895.841 246.678V275.946C895.837 275.975 895.837 276.004 895.841 276.032C895.845 276.083 895.854 276.132 895.869 276.181C895.886 276.222 895.905 276.262 895.927 276.301C895.948 276.341 895.975 276.377 896.007 276.41C896.037 276.448 896.074 276.481 896.116 276.507L896.179 276.57L927.68 294.724H927.731H927.789C927.863 294.748 927.94 294.761 928.018 294.764C928.096 294.762 928.173 294.748 928.247 294.724H928.304H928.356L950.762 281.795C950.787 281.777 950.81 281.756 950.83 281.732L950.939 281.641L951.014 281.526C951.037 281.487 951.058 281.447 951.077 281.406C951.079 281.358 951.079 281.311 951.077 281.263C951.077 281.229 951.077 281.206 951.077 281.171V267.058L963.889 259.716C963.913 259.698 963.936 259.679 963.958 259.658L964.067 259.561C964.095 259.525 964.12 259.487 964.141 259.447C964.166 259.41 964.185 259.369 964.198 259.326C964.213 259.278 964.22 259.228 964.221 259.178ZM949.714 280.805L928.745 292.909V265.702L940.773 272.638H940.824H940.882H940.922C940.989 272.658 941.058 272.67 941.128 272.673C941.207 272.672 941.284 272.656 941.357 272.627H941.414H941.466L949.708 267.871L949.714 280.805ZM897.25 246.226C897.246 246.178 897.237 246.13 897.221 246.083C897.203 246.04 897.182 245.998 897.158 245.957C897.139 245.918 897.114 245.881 897.084 245.849C897.053 245.81 897.016 245.777 896.975 245.751C896.975 245.751 896.935 245.706 896.906 245.694L829.86 207.006V174.202L880.892 75.1067L915.257 94.9314L865.491 193.448C865.491 193.448 865.491 193.494 865.491 193.517C865.477 193.556 865.465 193.596 865.456 193.637V193.706C865.456 193.706 865.456 193.763 865.456 193.792C865.453 193.83 865.453 193.868 865.456 193.906C865.456 193.906 865.456 193.952 865.456 193.975L865.496 194.061C865.496 194.061 865.496 194.106 865.496 194.129L865.531 194.175V194.215V194.249C865.579 194.3 865.632 194.344 865.691 194.381L896.121 211.934H896.179L896.236 211.962C896.315 211.992 896.398 212.007 896.482 212.008C896.566 212.007 896.65 211.992 896.728 211.962H896.786C896.86 211.929 896.928 211.882 896.986 211.825C897.029 211.784 897.065 211.738 897.095 211.688C897.097 211.672 897.097 211.657 897.095 211.642C897.112 211.599 897.125 211.555 897.135 211.51C897.153 211.466 897.162 211.42 897.164 211.373C897.166 211.358 897.166 211.342 897.164 211.327V163.826L927.199 181.155V229.504C927.199 229.504 927.199 229.532 927.199 229.549C927.196 229.58 927.196 229.61 927.199 229.641C927.196 229.673 927.196 229.706 927.199 229.738L927.233 229.824C927.233 229.824 927.233 229.824 927.233 229.864L927.267 229.91L927.308 229.961L927.342 230.001C927.384 230.041 927.43 230.075 927.479 230.104L940.212 237.447V270.778L928.184 263.848H928.144C928.1 263.827 928.054 263.812 928.006 263.802L927.863 263.773H927.823H927.737C927.688 263.777 927.64 263.787 927.594 263.802L927.474 263.859C927.432 263.88 927.393 263.907 927.359 263.939C927.321 263.97 927.288 264.007 927.262 264.048L927.204 264.111C927.205 264.124 927.205 264.138 927.204 264.151C927.184 264.195 927.169 264.241 927.159 264.288C927.151 264.334 927.151 264.38 927.159 264.426C927.159 264.426 927.159 264.426 927.159 264.471V292.909L897.124 275.58V246.312C897.175 246.294 897.222 246.265 897.261 246.226H897.25ZM902.977 62.0123L937.176 81.7283L916.202 93.8268L882.032 74.1109L902.977 62.0123ZM918.974 150.462L949.015 167.792L928.035 179.89L898 162.567L898.63 162.2L918.974 150.462ZM941.128 236.211L929.467 229.481L950.441 217.365L962.102 224.09L941.128 236.211ZM949.719 216.14L928.745 228.239V181.132L949.725 169.028L949.719 216.14ZM867.558 193.769L888.538 181.67L895.846 185.888V210.091L867.558 193.769ZM895.846 184.234L889.483 180.56L895.846 167.969V184.234ZM896.202 161.914V161.943L896.127 162C896.1 162.02 896.077 162.046 896.058 162.074L896.001 162.143L895.972 162.177C895.972 162.177 895.972 162.177 895.972 162.217L895.938 162.303C895.935 162.336 895.935 162.368 895.938 162.401V162.492C895.938 162.492 895.938 162.521 895.938 162.538V164.758L888.086 180.302L867.942 191.92L916.746 95.166L936.89 83.5425L897.725 161.067L896.202 161.914ZM950.08 266.011L941.838 270.767V237.447L962.818 225.377V258.708L950.08 266.011Z" fill="#175DA3"/>
</g>
<defs>
<linearGradient id="paint0_linear_288_3453" x1="0.774021" y1="133.419" x2="100.282" y2="121.166" gradientUnits="userSpaceOnUse">
<stop stop-color="white"/>
<stop offset="1" stop-color="#EDEDED"/>
</linearGradient>
<linearGradient id="paint1_linear_288_3453" x1="1259.31" y1="221.943" x2="1390.75" y2="221.943" gradientUnits="userSpaceOnUse">
<stop stop-color="#EDEDED"/>
<stop offset="1" stop-color="white"/>
</linearGradient>
<clipPath id="clip0_288_3453">
<rect width="82" height="64" fill="white" transform="translate(999.686 322)"/>
</clipPath>
<clipPath id="clip1_288_3453">
<rect width="88" height="69" fill="white" transform="matrix(-1 0 0 -1 401.686 69)"/>
</clipPath>
<clipPath id="clip2_288_3453">
<rect width="545.532" height="281.111" fill="white" transform="translate(419.92 52)"/>
</clipPath>
</defs>
</svg>
