<svg width="20" height="20" viewBox="0 0 20 20" fill="none" xmlns="http://www.w3.org/2000/svg">
<g clip-path="url(#clip0_299_8337)">
<path d="M11.249 1.7625V1.25C11.249 0.918479 11.1173 0.600537 10.8828 0.366116C10.6484 0.131696 10.3305 0 9.99897 0C9.66745 0 9.3495 0.131696 9.11508 0.366116C8.88066 0.600537 8.74897 0.918479 8.74897 1.25V1.7625C7.15926 1.97716 5.65405 2.60642 4.38457 3.58705C3.11509 4.56769 2.12605 5.86516 1.51683 7.3491C0.907617 8.83305 0.699678 10.4512 0.913911 12.041C1.12814 13.6307 1.757 15.1361 2.7373 16.4058C2.39226 16.6894 2.11641 17.0479 1.93071 17.4541C1.74501 17.8603 1.65436 18.3035 1.66563 18.75C1.66563 19.0815 1.79733 19.3995 2.03175 19.6339C2.26617 19.8683 2.58411 20 2.91563 20C3.24715 20 3.5651 19.8683 3.79952 19.6339C4.03394 19.3995 4.16563 19.0815 4.16563 18.75C4.1529 18.6262 4.18382 18.5018 4.25305 18.3983C4.32228 18.2948 4.42547 18.2188 4.5448 18.1833C6.11854 19.3618 8.03167 19.9986 9.99772 19.9986C11.9638 19.9986 13.8769 19.3618 15.4506 18.1833C15.5704 18.2183 15.6742 18.2942 15.7439 18.3977C15.8136 18.5012 15.8449 18.6258 15.8323 18.75C15.8323 19.0815 15.964 19.3995 16.1984 19.6339C16.4328 19.8683 16.7508 20 17.0823 20C17.4138 20 17.7318 19.8683 17.9662 19.6339C18.2006 19.3995 18.3323 19.0815 18.3323 18.75C18.3436 18.3035 18.2529 17.8603 18.0672 17.4541C17.8815 17.0479 17.6057 16.6894 17.2606 16.4058C18.2409 15.1361 18.8698 13.6307 19.084 12.041C19.2983 10.4512 19.0903 8.83305 18.4811 7.3491C17.8719 5.86516 16.8828 4.56769 15.6134 3.58705C14.3439 2.60642 12.8387 1.97716 11.249 1.7625ZM3.3323 10.8333C3.3323 9.51479 3.72329 8.22586 4.45584 7.12953C5.18838 6.0332 6.22957 5.17872 7.44774 4.67414C8.66592 4.16955 10.0064 4.03753 11.2996 4.29476C12.5928 4.552 13.7807 5.18694 14.713 6.11929C15.6454 7.05164 16.2803 8.23952 16.5375 9.53273C16.7948 10.8259 16.6627 12.1664 16.1582 13.3846C15.6536 14.6027 14.7991 15.6439 13.7028 16.3765C12.6064 17.109 11.3175 17.5 9.99897 17.5C8.23147 17.498 6.53693 16.795 5.28711 15.5452C4.0373 14.2954 3.33428 12.6008 3.3323 10.8333Z" fill="#0006A0"/>
<path d="M16.25 -0.000100988C15.9185 -0.000100988 15.6005 0.131595 15.3661 0.366015C15.1317 0.600436 15 0.918378 15 1.2499C15 1.58142 15.1317 1.89936 15.3661 2.13378C15.6005 2.3682 15.9185 2.4999 16.25 2.4999C16.4159 2.48699 16.5826 2.51076 16.7384 2.56951C16.8941 2.62827 17.0349 2.72056 17.151 2.83986C17.267 2.95916 17.3554 3.10253 17.4098 3.2598C17.4642 3.41708 17.4833 3.5844 17.4658 3.7499C17.4658 4.08142 17.5975 4.39936 17.8319 4.63378C18.0664 4.8682 18.3843 4.9999 18.7158 4.9999C19.0473 4.9999 19.3653 4.8682 19.5997 4.63378C19.8341 4.39936 19.9658 4.08142 19.9658 3.7499C19.9851 3.25517 19.9025 2.76176 19.723 2.30032C19.5436 1.83888 19.2711 1.41928 18.9226 1.06759C18.5742 0.7159 18.1571 0.439634 17.6973 0.255959C17.2375 0.0722839 16.7449 -0.0148747 16.25 -0.000100988Z" fill="#0006A0"/>
<path d="M2.534 3.7499C2.5165 3.5844 2.53564 3.41708 2.59005 3.2598C2.64447 3.10253 2.73283 2.95916 2.84886 2.83986C2.9649 2.72056 3.10577 2.62827 3.26147 2.56951C3.41718 2.51076 3.58391 2.48699 3.74983 2.4999C4.08135 2.4999 4.39929 2.3682 4.63371 2.13378C4.86813 1.89936 4.99983 1.58142 4.99983 1.2499C4.99983 0.918378 4.86813 0.600436 4.63371 0.366015C4.39929 0.131595 4.08135 -0.000100988 3.74983 -0.000100988C3.25494 -0.0148747 2.76231 0.0722839 2.30253 0.255959C1.84276 0.439634 1.42567 0.7159 1.07718 1.06759C0.728694 1.41928 0.456257 1.83888 0.276798 2.30032C0.0973388 2.76176 0.0146928 3.25517 0.0339954 3.7499C0.0339954 4.08142 0.165691 4.39936 0.400112 4.63378C0.634532 4.8682 0.952475 4.9999 1.284 4.9999C1.61552 4.9999 1.93346 4.8682 2.16788 4.63378C2.4023 4.39936 2.534 4.08142 2.534 3.7499Z" fill="#0006A0"/>
<path d="M11.2734 10.3157V7.08325C11.2734 6.75173 11.1417 6.43379 10.9073 6.19937C10.6729 5.96495 10.355 5.83325 10.0234 5.83325C9.69192 5.83325 9.37397 5.96495 9.13955 6.19937C8.90513 6.43379 8.77344 6.75173 8.77344 7.08325V10.6607C8.77353 11.1027 8.94919 11.5266 9.26177 11.8391L10.7559 13.3332C10.9917 13.5609 11.3074 13.6869 11.6352 13.6841C11.9629 13.6812 12.2764 13.5498 12.5082 13.318C12.74 13.0863 12.8714 12.7727 12.8743 12.445C12.8771 12.1172 12.7511 11.8015 12.5234 11.5657L11.2734 10.3157Z" fill="#0006A0"/>
</g>
<defs>
<clipPath id="clip0_299_8337">
<rect width="20" height="20" fill="white"/>
</clipPath>
</defs>
</svg>
