<svg width="24" height="24" viewBox="0 0 24 24" fill="none" xmlns="http://www.w3.org/2000/svg">
<path d="M15.6494 6.92311L10.7508 5.61054C9.85512 5.39286 8.90998 5.52855 8.1117 5.98944C7.31341 6.45033 6.72333 7.201 6.464 8.08554L5.15143 12.9841C5.04855 13.3684 5.10255 13.7779 5.30156 14.1224C5.50058 14.4669 5.82829 14.7183 6.21262 14.8211C6.59694 14.924 7.0064 14.87 7.35091 14.671C7.69541 14.472 7.94676 14.1443 8.04964 13.76L8.94237 10.4282L13.8389 18.9092C14.0378 19.2537 14.3654 19.5051 14.7497 19.6081C15.134 19.7111 15.5434 19.6572 15.8879 19.4582C16.2324 19.2593 16.4838 18.9317 16.5868 18.5474C16.6898 18.1632 16.6359 17.7537 16.437 17.4092L11.5405 8.92821L14.8722 9.82095C15.0625 9.87198 15.2609 9.88504 15.4562 9.85937C15.6516 9.8337 15.8399 9.76981 16.0105 9.67135C16.1812 9.57289 16.3307 9.44179 16.4507 9.28553C16.5707 9.12927 16.6587 8.95091 16.7097 8.76063C16.7607 8.57036 16.7738 8.3719 16.7481 8.17657C16.7225 7.98125 16.6586 7.7929 16.5601 7.62227C16.4617 7.45164 16.3306 7.30208 16.1743 7.18211C16.018 7.06215 15.8397 6.97414 15.6494 6.92311Z" fill="#050F9C"/>
</svg>
