<svg width="14" height="10" viewBox="0 0 14 10" fill="none" xmlns="http://www.w3.org/2000/svg">
<path d="M12.625 3.97748C12.9702 3.97748 13.25 4.2573 13.25 4.60248C13.25 4.94766 12.9702 5.22748 12.625 5.22748V4.60248V3.97748ZM0.183058 5.04442C-0.0610189 4.80034 -0.0610189 4.40461 0.183058 4.16054L4.16053 0.183061C4.40461 -0.061017 4.80034 -0.061017 5.04442 0.183061C5.2885 0.427138 5.2885 0.822866 5.04442 1.06694L1.50888 4.60248L5.04442 8.13801C5.2885 8.38209 5.2885 8.77782 5.04442 9.0219C4.80034 9.26597 4.40461 9.26597 4.16053 9.0219L0.183058 5.04442ZM12.625 4.60248V5.22748H0.625V4.60248V3.97748H12.625V4.60248Z" fill="black"/>
</svg>
