<svg width="24" height="24" viewBox="0 0 24 24" fill="none" xmlns="http://www.w3.org/2000/svg">
<path d="M8.24987 9.52488L12.8359 4.93888C13.1173 4.65762 13.4989 4.49966 13.8967 4.49976C14.2946 4.49985 14.6761 4.65799 14.9574 4.93938C15.2386 5.22078 15.3966 5.60238 15.3965 6.00024C15.3964 6.39809 15.2383 6.77962 14.9569 7.06088L10.3709 11.6459C10.3243 11.6923 10.2874 11.7475 10.2622 11.8083C10.2369 11.869 10.224 11.9341 10.224 11.9999C10.224 12.0657 10.2369 12.1308 10.2622 12.1915C10.2874 12.2523 10.3243 12.3074 10.3709 12.3539L14.9569 16.9389C15.2383 17.2201 15.3964 17.6017 15.3965 17.9995C15.3966 18.3974 15.2386 18.779 14.9574 19.0604C14.6761 19.3418 14.2946 19.4999 13.8967 19.5C13.4989 19.5001 13.1173 19.3421 12.8359 19.0609L8.24987 14.4749C7.59464 13.8178 7.22668 12.9278 7.22668 11.9999C7.22668 11.072 7.59464 10.1819 8.24987 9.52488Z" fill="#050F9C"/>
</svg>
