<svg width="63" height="66" viewBox="0 0 63 66" fill="none" xmlns="http://www.w3.org/2000/svg">
<path d="M20.404 0C47.3174 15.067 57.9698 36.2023 62.0853 47.1223L61.8073 47.4191C58.8983 46.5569 38.4348 40.8371 19.4559 53.1057L19.1289 52.8951C21.7011 39.1115 28.7892 19.9025 20.0598 0.263576L20.404 0Z" fill="#6C2A00"/>
<path d="M0.367452 13.0729C27.0004 23.9115 29.9988 46.8427 29.9988 46.8451L29.6069 47.0311C28.0942 45.7108 17.9905 41.7202 6.76602 44.3978L6.47328 44.1515C7.75079 29.3678 1.87156 16.9095 0 13.3722L0.367452 13.0729Z" fill="#6C2A00"/>
<path d="M62.4553 47.6519L53.7271 66.0037H10.805C10.805 66.0037 3.07505 56.6086 1.89062 54.1231L2.27278 53.5553C15.2279 54.9976 54.2232 54.0381 62.034 47.0275L62.4553 47.6519Z" fill="#6C2A00"/>
</svg>
