<svg width="36" height="66" viewBox="0 0 36 66" fill="none" xmlns="http://www.w3.org/2000/svg">
<path d="M35.2963 38.268C35.2958 36.6386 34.7666 35.0536 33.7883 33.7521C32.81 32.4506 31.4358 31.5032 29.8731 31.0528C29.6277 30.9867 29.4087 30.8466 29.2456 30.6513C29.0826 30.4561 28.9836 30.2153 28.9619 29.9616L27.7991 13.9575L26.6363 29.9616C26.6149 30.2153 26.5159 30.4562 26.3528 30.6515C26.1898 30.8468 25.9706 30.9869 25.7252 31.0528C24.2469 31.479 22.9353 32.3506 21.9684 33.5494C21.0015 34.7482 20.4262 36.2161 20.3205 37.7538C20.2147 39.2915 20.5838 40.8245 21.3775 42.1448C22.1712 43.4652 23.3512 44.5088 24.7572 45.134C24.9811 45.2373 25.1679 45.407 25.2923 45.6202C25.4167 45.8334 25.4728 46.0797 25.4529 46.3258L24.0155 66.0024H31.578L30.149 46.3258C30.1286 46.0798 30.1844 45.8334 30.3086 45.6202C30.4329 45.407 30.6196 45.2372 30.8435 45.134C32.1686 44.5433 33.2945 43.5804 34.0848 42.3618C34.8751 41.1433 35.2959 39.7213 35.2963 38.268Z" fill="white"/>
<path d="M14.9967 38.268C14.9962 36.7318 14.5254 35.2326 13.6478 33.973C12.7702 32.7133 11.528 31.7537 10.089 31.2238C9.8547 31.1415 9.64964 30.9922 9.49911 30.7944C9.34858 30.5966 9.25918 30.3589 9.24196 30.1108L8.87896 23.6582C8.87116 23.5321 8.90288 23.4067 8.9697 23.2995C9.03652 23.1923 9.1351 23.1088 9.25164 23.0605C10.1434 22.695 10.8991 22.0598 11.4132 21.2434C11.9274 20.427 12.1744 19.4701 12.1197 18.5063C12.0651 17.5425 11.7116 16.6198 11.1085 15.8669C10.5054 15.1141 9.68284 14.5686 8.75554 14.3067C8.63424 14.272 8.52681 14.2001 8.44828 14.1012C8.36974 14.0023 8.32402 13.8813 8.31752 13.7551L7.53707 0.0400103C7.53707 0.0293989 7.53286 0.0192221 7.52537 0.0117187C7.51789 0.00421536 7.50773 0 7.49714 0C7.48655 0 7.47639 0.00421536 7.4689 0.0117187C7.46142 0.0192221 7.45721 0.0293989 7.45721 0.0400103L6.67918 13.7551C6.6726 13.8814 6.6267 14.0026 6.54793 14.1015C6.46916 14.2005 6.36147 14.2722 6.23995 14.3067C5.31271 14.5688 4.49023 15.1143 3.88727 15.8673C3.2843 16.6202 2.93093 17.5429 2.87644 18.5067C2.82195 19.4705 3.06907 20.4274 3.58332 21.2437C4.09756 22.06 4.85329 22.6952 5.74506 23.0605C5.8616 23.1088 5.96018 23.1923 6.027 23.2995C6.09382 23.4067 6.12554 23.5321 6.11774 23.6582L5.75474 30.1108C5.73767 30.359 5.64833 30.5967 5.49778 30.7945C5.34723 30.9924 5.14209 31.1416 4.90774 31.2238C3.53588 31.7283 2.34134 32.624 1.47137 33.8005C0.601412 34.9771 0.0940579 36.383 0.0118576 37.8449C-0.0703427 39.3069 0.276204 40.761 1.00878 42.028C1.74135 43.295 2.82792 44.3195 4.13455 44.9752C4.35666 45.0838 4.54211 45.2553 4.66792 45.4684C4.79374 45.6815 4.8544 45.927 4.8424 46.1743L3.71831 66.0024H11.2796L10.1495 46.1743C10.1377 45.9269 10.1986 45.6814 10.3247 45.4683C10.4507 45.2552 10.6363 45.0837 10.8585 44.9752C12.1015 44.3521 13.1469 43.3947 13.8778 42.2102C14.6086 41.0256 14.996 39.6607 14.9967 38.268Z" fill="white"/>
</svg>
