<svg width="22" height="22" viewBox="0 0 22 22" fill="none" xmlns="http://www.w3.org/2000/svg">
<g clip-path="url(#clip0_507_1497)">
<path d="M16.9583 1.83333H16.5V1.375C16.5 1.01033 16.3551 0.660591 16.0973 0.402728C15.8394 0.144866 15.4897 0 15.125 0V0C14.7603 0 14.4106 0.144866 14.1527 0.402728C13.8949 0.660591 13.75 1.01033 13.75 1.375V1.83333H8.25V1.375C8.25 1.01033 8.10513 0.660591 7.84727 0.402728C7.58941 0.144866 7.23967 0 6.875 0V0C6.51033 0 6.16059 0.144866 5.90273 0.402728C5.64487 0.660591 5.5 1.01033 5.5 1.375V1.83333H5.04167C3.70453 1.83333 2.42217 2.36451 1.47667 3.31C0.531174 4.2555 0 5.53787 0 6.875L0 16.9583C0 18.2955 0.531174 19.5778 1.47667 20.5233C2.42217 21.4688 3.70453 22 5.04167 22H16.9583C18.2955 22 19.5778 21.4688 20.5233 20.5233C21.4688 19.5778 22 18.2955 22 16.9583V6.875C22 5.53787 21.4688 4.2555 20.5233 3.31C19.5778 2.36451 18.2955 1.83333 16.9583 1.83333ZM16.9583 19.25H5.04167C4.43388 19.25 3.85098 19.0086 3.42121 18.5788C2.99144 18.149 2.75 17.5661 2.75 16.9583V9.16667H19.25V16.9583C19.25 17.5661 19.0086 18.149 18.5788 18.5788C18.149 19.0086 17.5661 19.25 16.9583 19.25Z" fill="white"/>
</g>
<defs>
<clipPath id="clip0_507_1497">
<rect width="22" height="22" fill="white"/>
</clipPath>
</defs>
</svg>
