<svg width="20" height="20" viewBox="0 0 20 20" fill="none" xmlns="http://www.w3.org/2000/svg">
<g clip-path="url(#clip0_299_8323)">
<path d="M5.41839 20.0002C12.2092 20.1918 24.2326 8.15433 18.4492 1.61516C18.4284 1.59516 17.5401 0.820161 17.5401 0.820161C16.9901 0.288527 16.2533 -0.00580057 15.4885 0.000590219C14.7236 0.00698101 13.9919 0.313578 13.4509 0.854327L11.6567 2.78683C11.1287 3.33885 10.8367 4.07498 10.8428 4.83884C10.8489 5.6027 11.1525 6.3341 11.6892 6.87766L12.0134 7.20599C11.0499 9.33838 9.34558 11.0489 7.21672 12.0202L6.87505 11.6868C6.31974 11.1574 5.58191 10.862 4.81464 10.862C4.04736 10.862 3.30953 11.1574 2.75422 11.6868L0.889221 13.4168C0.335955 13.9557 0.0183296 14.6915 0.0056839 15.4637C-0.00696373 16.236 0.286396 16.9818 0.82172 17.5385C0.82172 17.5385 1.59672 18.4277 1.61672 18.4485C2.11644 18.9455 2.70971 19.3385 3.36224 19.6049C4.01477 19.8712 4.71362 20.0055 5.41839 20.0002ZM16.7101 3.41683C20.7601 8.43099 7.79922 20.6443 3.41422 16.7085C3.41422 16.7085 2.64422 15.826 2.62339 15.8052C2.58295 15.7676 2.55071 15.722 2.52865 15.6714C2.5066 15.6208 2.49522 15.5662 2.49522 15.511C2.49522 15.4558 2.5066 15.4012 2.52865 15.3506C2.55071 15.2999 2.58295 15.2544 2.62339 15.2168L4.48839 13.4885C4.73839 13.2802 4.87839 13.2777 5.11172 13.4552L6.05756 14.386C6.22831 14.554 6.44374 14.6694 6.6782 14.7184C6.91266 14.7675 7.15628 14.7481 7.38005 14.6627C9.04278 14.0442 10.5531 13.0755 11.8086 11.8221C13.0641 10.5688 14.0354 9.06016 14.6567 7.39849C14.7474 7.17287 14.7703 6.9257 14.7227 6.68724C14.675 6.44879 14.5588 6.22941 14.3884 6.05599L13.4642 5.11683C13.4221 5.0797 13.3882 5.03415 13.3648 4.98312C13.3414 4.93209 13.3289 4.87672 13.3282 4.82058C13.3275 4.76443 13.3386 4.70876 13.3607 4.65716C13.3828 4.60556 13.4155 4.55917 13.4567 4.52099L15.2517 2.58849C15.3322 2.52428 15.4337 2.49215 15.5365 2.4983C15.6392 2.50446 15.7361 2.54846 15.8084 2.62183C15.8276 2.64266 16.7101 3.41683 16.7101 3.41683ZM0.293388 9.11099C-0.0603104 7.88774 -0.0794411 6.592 0.237991 5.35883C0.555422 4.12567 1.19779 3.00021 2.09816 2.09976C2.99852 1.19931 4.12392 0.556833 5.35706 0.239285C6.59019 -0.0782623 7.88593 -0.0592545 9.10922 0.294327C9.26653 0.341275 9.41306 0.418748 9.54043 0.522323C9.6678 0.625898 9.77353 0.753546 9.85157 0.89798C9.92961 1.04241 9.97843 1.2008 9.99526 1.36411C10.0121 1.52741 9.99658 1.69243 9.94964 1.84974C9.90269 2.00706 9.82522 2.15358 9.72164 2.28095C9.61807 2.40833 9.49042 2.51405 9.34599 2.59209C9.20155 2.67013 9.04316 2.71896 8.87986 2.73578C8.71655 2.75261 8.55153 2.73711 8.39422 2.69016C7.60316 2.46401 6.76601 2.45356 5.96955 2.65991C5.17309 2.86625 4.44633 3.28188 3.8646 3.8637C3.28286 4.44551 2.86734 5.17234 2.66111 5.96883C2.45488 6.76532 2.46545 7.60247 2.69172 8.39349C2.7386 8.55086 2.75401 8.71592 2.73708 8.87925C2.72015 9.04257 2.6712 9.20096 2.59304 9.34537C2.51488 9.48977 2.40903 9.61736 2.28155 9.72085C2.15407 9.82433 2.00744 9.90169 1.85006 9.94849C1.73397 9.98272 1.61358 10.0001 1.49255 10.0002C1.22351 9.99987 0.96175 9.91278 0.746159 9.75183C0.530565 9.59089 0.372654 9.36468 0.295889 9.10683L0.293388 9.11099ZM4.94839 9.22183C4.83223 9.10574 4.74008 8.96791 4.67722 8.8162C4.61435 8.66449 4.58199 8.50188 4.58199 8.33766C4.58199 8.17344 4.61435 8.01083 4.67722 7.85912C4.74008 7.70741 4.83223 7.56958 4.94839 7.45349L5.83505 6.56599V5.41683C5.83505 5.08531 5.96675 4.76736 6.20117 4.53294C6.43559 4.29852 6.75353 4.16683 7.08505 4.16683C7.41657 4.16683 7.73452 4.29852 7.96894 4.53294C8.20336 4.76736 8.33505 5.08531 8.33505 5.41683V7.08349C8.33513 7.24767 8.30286 7.41026 8.24009 7.56197C8.17732 7.71368 8.08528 7.85153 7.96922 7.96766L6.71922 9.21766C6.60314 9.33382 6.4653 9.42597 6.31359 9.48883C6.16189 9.5517 5.99927 9.58406 5.83505 9.58406C5.67083 9.58406 5.50822 9.5517 5.35651 9.48883C5.20481 9.42597 5.06697 9.33382 4.95089 9.21766L4.94839 9.22183Z" fill="#0006A0"/>
</g>
<defs>
<clipPath id="clip0_299_8323">
<rect width="20" height="20" fill="white" transform="matrix(-1 0 0 1 20 0)"/>
</clipPath>
</defs>
</svg>
