<svg width="12" height="12" viewBox="0 0 12 12" fill="none" xmlns="http://www.w3.org/2000/svg">
<g clip-path="url(#clip0_246_2473)">
<path d="M6 0C4.81331 0 3.65328 0.351894 2.66658 1.01118C1.67989 1.67047 0.910851 2.60754 0.456726 3.7039C0.00259972 4.80026 -0.11622 6.00666 0.115291 7.17054C0.346802 8.33443 0.918247 9.40353 1.75736 10.2426C2.59648 11.0818 3.66558 11.6532 4.82946 11.8847C5.99335 12.1162 7.19975 11.9974 8.2961 11.5433C9.39246 11.0892 10.3295 10.3201 10.9888 9.33342C11.6481 8.34673 12 7.18669 12 6C11.9983 4.40923 11.3656 2.88411 10.2407 1.75926C9.1159 0.634414 7.59077 0.00172054 6 0V0ZM6 10.5C5.10999 10.5 4.23996 10.2361 3.49994 9.74161C2.75992 9.24715 2.18314 8.54434 1.84254 7.72208C1.50195 6.89981 1.41284 5.99501 1.58647 5.12209C1.7601 4.24918 2.18869 3.44736 2.81802 2.81802C3.44736 2.18868 4.24918 1.7601 5.1221 1.58647C5.99501 1.41283 6.89981 1.50195 7.72208 1.84254C8.54435 2.18314 9.24715 2.75991 9.74162 3.49993C10.2361 4.23996 10.5 5.10998 10.5 6C10.4987 7.19307 10.0241 8.33689 9.18052 9.18052C8.33689 10.0241 7.19307 10.4987 6 10.5ZM6.75 5.345C6.8773 5.48934 6.96024 5.66734 6.98887 5.85764C7.01751 6.04795 6.99062 6.24247 6.91144 6.41788C6.83226 6.59328 6.70415 6.74211 6.54248 6.84651C6.38081 6.95091 6.19245 7.00644 6 7.00644C5.80756 7.00644 5.6192 6.95091 5.45753 6.84651C5.29586 6.74211 5.16775 6.59328 5.08856 6.41788C5.00938 6.24247 4.9825 6.04795 5.01114 5.85764C5.03977 5.66734 5.12271 5.48934 5.25 5.345V3.25C5.25 3.05109 5.32902 2.86032 5.46967 2.71967C5.61032 2.57902 5.80109 2.5 6 2.5C6.19892 2.5 6.38968 2.57902 6.53033 2.71967C6.67099 2.86032 6.75 3.05109 6.75 3.25V5.345Z" fill="black"/>
</g>
<defs>
<clipPath id="clip0_246_2473">
<rect width="12" height="12" fill="white"/>
</clipPath>
</defs>
</svg>
