<svg width="22" height="22" viewBox="0 0 22 22" fill="none" xmlns="http://www.w3.org/2000/svg">
<g clip-path="url(#clip0_507_1491)">
<path d="M19.6711 18.7918C19.8646 18.7918 20.0558 18.751 20.2324 18.672C20.409 18.593 20.567 18.4776 20.6959 18.3335C21.234 17.7367 21.6208 17.0192 21.8234 16.2416C22.1 15.1604 22.0272 14.0193 21.6155 12.9819C21.2039 11.9446 20.4745 11.0641 19.5318 10.4666C20.1443 9.07805 20.3174 7.53531 20.0277 6.04554C19.7492 4.53185 19.0046 3.14306 17.898 2.07341C16.7913 1.00376 15.378 0.30675 13.8558 0.0798734C12.044 -0.190312 10.1959 0.211741 8.66016 1.21021C7.12437 2.20869 6.00697 3.73457 5.51869 5.50012C3.63246 6.01946 2.02067 7.24916 1.02152 8.93121C0.853506 9.24446 0.813334 9.61061 0.909433 9.95285C1.00553 10.2951 1.23044 10.5868 1.53696 10.7668C1.84349 10.9468 2.20781 11.0011 2.5535 10.9183C2.8992 10.8355 3.19939 10.622 3.39111 10.3227C3.75924 9.70262 4.26277 9.17376 4.86406 8.77565C5.46534 8.37754 6.14883 8.12049 6.86344 8.02371C7.16269 7.98391 7.44052 7.84674 7.65406 7.63336C7.86761 7.41998 8.00499 7.14225 8.04502 6.84304C8.12705 6.22503 8.33142 5.62957 8.6462 5.09145C8.96099 4.55333 9.37986 4.08334 9.87836 3.70896C10.3853 3.32701 10.9633 3.05001 11.5785 2.89418C12.1938 2.73836 12.834 2.70683 13.4616 2.80146C14.4162 2.94655 15.3017 3.38623 15.9942 4.05906C16.6868 4.73189 17.1518 5.60427 17.3244 6.55429C17.5266 7.58092 17.3798 8.64566 16.9074 9.57929C16.6237 10.1108 16.5624 10.7331 16.7368 11.3097C16.9112 11.8864 17.3071 12.3704 17.8378 12.6556C18.3555 12.9143 18.769 13.3427 19.0092 13.8693C19.2494 14.3959 19.3018 14.9889 19.1578 15.5495C19.0669 15.903 18.8917 16.2292 18.6472 16.5001C18.4703 16.6979 18.3544 16.9426 18.3135 17.2048C18.2726 17.467 18.3084 17.7354 18.4167 17.9777C18.5249 18.22 18.7009 18.4257 18.9235 18.5702C19.1461 18.7146 19.4058 18.7916 19.6711 18.7918ZM4.72027 22.0001C4.37873 21.9937 4.03873 21.9526 3.70552 21.8773C2.66657 21.6491 1.73512 21.0768 1.06214 20.2531C0.389162 19.4293 0.0141048 18.4024 -0.00223351 17.3388C-0.0185738 16.2753 0.32476 15.2373 0.972116 14.3933C1.61947 13.5493 2.5329 12.9486 3.56436 12.6886C3.67006 12.6682 3.77352 12.6375 3.87327 12.597C4.37272 11.4439 5.23925 10.4883 6.33805 9.87869C7.43685 9.26911 8.70631 9.03978 9.94894 9.22637C11.245 9.43297 12.4273 10.0882 13.2895 11.0777C14.1516 12.0672 14.6389 13.3281 14.6661 14.6402C14.6717 14.9314 14.654 15.2227 14.6129 15.511C15.2371 15.8239 15.7504 16.3204 16.0838 16.9338C16.4173 17.5471 16.5549 18.2479 16.4781 18.9418C16.4013 19.6357 16.1138 20.2895 15.6544 20.8151C15.1949 21.3407 14.5854 21.713 13.908 21.8819C13.6242 21.9546 13.3329 21.9942 13.0399 22.0001H4.72027ZM6.40511 13.6713C6.22026 14.1093 5.92665 14.4928 5.55207 14.7856C5.1775 15.0784 4.73438 15.2706 4.26469 15.3442C3.82612 15.4445 3.4351 15.6919 3.15665 16.0453C2.87819 16.3987 2.72909 16.8367 2.73413 17.2866C2.73916 17.7364 2.89803 18.171 3.18432 18.5181C3.47061 18.8651 3.86707 19.1037 4.30778 19.1942C4.45194 19.2274 4.599 19.2464 4.74686 19.251H13.0033C13.1576 19.2353 13.3051 19.1797 13.4314 19.0897C13.5577 18.9997 13.6585 18.8784 13.7238 18.7377C13.8365 18.3179 13.4488 17.9815 13.1738 17.8669C12.6894 17.6639 12.2916 17.2974 12.0497 16.8312C11.8078 16.365 11.7372 15.8287 11.8501 15.3158C11.8953 15.1112 11.9159 14.9019 11.9115 14.6925C11.8961 14.034 11.6534 13.4011 11.2245 12.9012C10.7956 12.4013 10.2069 12.0651 9.55844 11.9498C9.41427 11.9285 9.26876 11.9175 9.12302 11.9168C8.54787 11.9106 7.98358 12.0735 7.50034 12.3855C7.01709 12.6974 6.63623 13.1446 6.40511 13.6713Z" fill="white"/>
</g>
<defs>
<clipPath id="clip0_507_1491">
<rect width="22" height="22" fill="white" transform="matrix(-1 0 0 1 22 0)"/>
</clipPath>
</defs>
</svg>
