<svg width="20" height="20" viewBox="0 0 20 20" fill="none" xmlns="http://www.w3.org/2000/svg">
<g clip-path="url(#clip0_299_8328)">
<path d="M19.9992 9.37169C19.8783 7.422 19.1896 5.55029 18.0179 3.98727C16.8463 2.42425 15.2428 1.23824 13.4053 0.575445C11.5677 -0.0873489 9.57638 -0.197959 7.67673 0.257249C5.77708 0.712457 4.05215 1.71359 2.71457 3.13723C1.37699 4.56087 0.485226 6.3448 0.149203 8.26911C-0.186821 10.1934 0.0475857 12.174 0.823527 13.9667C1.59947 15.7594 2.88303 17.2859 4.51598 18.358C6.14894 19.43 8.05991 20.0008 10.0133 20H15.4158C16.6309 19.9985 17.7958 19.5151 18.655 18.6559C19.5142 17.7967 19.9976 16.6318 19.9992 15.4167V9.45002V9.37169ZM17.4992 15.4167C17.4992 15.9692 17.2797 16.4991 16.889 16.8898C16.4983 17.2805 15.9684 17.5 15.4158 17.5H10.0133C8.95456 17.4994 7.9078 17.2756 6.94132 16.8433C5.97484 16.4109 5.11033 15.7797 4.40417 14.9909C3.69488 14.2026 3.16234 13.2717 2.84227 12.2607C2.52219 11.2498 2.42197 10.1821 2.54834 9.12919C2.74772 7.46934 3.49369 5.923 4.6687 4.7338C5.84372 3.5446 7.381 2.78014 9.03834 2.56086C9.3626 2.52039 9.68906 2.50007 10.0158 2.50002C11.7626 2.49502 13.4555 3.10446 14.7983 4.22169C15.5812 4.87195 16.2241 5.67411 16.6883 6.57974C17.1525 7.48536 17.4283 8.47566 17.4992 9.49086V15.4167Z" fill="#0006A0"/>
<path d="M7.91797 9.16675H10.418C10.7495 9.16675 11.0674 9.03505 11.3019 8.80063C11.5363 8.56621 11.668 8.24827 11.668 7.91675C11.668 7.58523 11.5363 7.26728 11.3019 7.03286C11.0674 6.79844 10.7495 6.66675 10.418 6.66675H7.91797C7.58645 6.66675 7.26851 6.79844 7.03409 7.03286C6.79966 7.26728 6.66797 7.58523 6.66797 7.91675C6.66797 8.24827 6.79966 8.56621 7.03409 8.80063C7.26851 9.03505 7.58645 9.16675 7.91797 9.16675Z" fill="#0006A0"/>
<path d="M13.7513 10.8333H7.91797C7.58645 10.8333 7.26851 10.9649 7.03409 11.1994C6.79966 11.4338 6.66797 11.7517 6.66797 12.0833C6.66797 12.4148 6.79966 12.7327 7.03409 12.9671C7.26851 13.2016 7.58645 13.3333 7.91797 13.3333H13.7513C14.0828 13.3333 14.4008 13.2016 14.6352 12.9671C14.8696 12.7327 15.0013 12.4148 15.0013 12.0833C15.0013 11.7517 14.8696 11.4338 14.6352 11.1994C14.4008 10.9649 14.0828 10.8333 13.7513 10.8333Z" fill="#0006A0"/>
</g>
<defs>
<clipPath id="clip0_299_8328">
<rect width="20" height="20" fill="white"/>
</clipPath>
</defs>
</svg>
