<svg width="312" height="298" viewBox="0 0 312 298" fill="none" xmlns="http://www.w3.org/2000/svg">
<g clip-path="url(#clip0_278_2104)">
<path d="M275.861 187.88H36.1389C16.1799 187.88 0 204.095 0 224.097C0 244.099 16.1799 260.314 36.1389 260.314H275.861C295.82 260.314 312 244.099 312 224.097C312 204.095 295.82 187.88 275.861 187.88Z" fill="#EAF2FF"/>
<path d="M279.367 67.9136H41.507C23.4838 67.9136 8.87305 82.5559 8.87305 100.618C8.87305 118.68 23.4838 133.323 41.507 133.323H279.367C297.391 133.323 312.001 118.68 312.001 100.618C312.001 82.5559 297.391 67.9136 279.367 67.9136Z" fill="#EAF2FF"/>
<path d="M252.705 21.1318H95.8509C85.7311 21.1318 77.5273 29.3528 77.5273 39.494C77.5273 49.6351 85.7311 57.8561 95.8509 57.8561H252.705C262.825 57.8561 271.028 49.6351 271.028 39.494C271.028 29.3528 262.825 21.1318 252.705 21.1318Z" fill="#EAF2FF"/>
<path d="M284.811 187.88C284.667 187.88 284.522 187.88 284.376 187.88H39.9132C39.8647 187.88 39.8162 187.88 39.7656 187.88C46.9421 187.817 53.8032 184.915 58.8555 179.807C63.9078 174.699 66.7425 167.798 66.7425 160.606C66.7425 153.413 63.9078 146.512 58.8555 141.404C53.8032 136.296 46.9421 133.395 39.7656 133.331C39.8162 133.331 39.8647 133.331 39.9132 133.331H284.376C284.235 133.331 284.522 133.331 284.376 133.331C277.031 133.443 270.825 136.476 265.996 141.314C262.214 145.102 259.629 149.923 258.564 155.175C257.5 160.427 258.002 165.876 260.009 170.844C262.016 175.811 265.439 180.075 269.849 183.105C274.26 186.135 279.464 187.796 284.811 187.88Z" fill="#EAF2FF"/>
<path d="M181.633 223.3H179.193C178.79 223.3 178.404 223.14 178.119 222.855C177.835 222.569 177.675 222.182 177.675 221.779C177.675 221.375 177.835 220.988 178.119 220.703C178.404 220.417 178.79 220.257 179.193 220.257H181.633C182.934 220.258 184.231 220.105 185.496 219.8C185.887 219.708 186.299 219.774 186.641 219.985C186.983 220.196 187.228 220.534 187.322 220.925C187.416 221.316 187.352 221.729 187.143 222.073C186.934 222.417 186.597 222.663 186.207 222.759C184.709 223.119 183.174 223.301 181.633 223.3ZM170.821 223.3H164.121C163.719 223.3 163.332 223.14 163.048 222.855C162.763 222.569 162.603 222.182 162.603 221.779C162.603 221.375 162.763 220.988 163.048 220.703C163.332 220.417 163.719 220.257 164.121 220.257H170.815C171.217 220.257 171.604 220.417 171.888 220.703C172.173 220.988 172.333 221.375 172.333 221.779C172.333 222.182 172.173 222.569 171.888 222.855C171.604 223.14 171.217 223.3 170.815 223.3H170.821ZM155.749 223.3H149.05C148.647 223.3 148.261 223.14 147.976 222.855C147.691 222.569 147.531 222.182 147.531 221.779C147.531 221.375 147.691 220.988 147.976 220.703C148.261 220.417 148.647 220.257 149.05 220.257H155.749C156.152 220.257 156.538 220.417 156.823 220.703C157.108 220.988 157.268 221.375 157.268 221.779C157.268 222.182 157.108 222.569 156.823 222.855C156.538 223.14 156.152 223.3 155.749 223.3ZM140.676 223.3H133.978C133.575 223.3 133.189 223.14 132.904 222.855C132.62 222.569 132.46 222.182 132.46 221.779C132.46 221.375 132.62 220.988 132.904 220.703C133.189 220.417 133.575 220.257 133.978 220.257H140.676C141.078 220.257 141.464 220.417 141.749 220.703C142.034 220.988 142.194 221.375 142.194 221.779C142.194 222.182 142.034 222.569 141.749 222.855C141.464 223.14 141.078 223.3 140.676 223.3ZM125.604 223.3H118.906C118.503 223.3 118.117 223.14 117.833 222.855C117.548 222.569 117.388 222.182 117.388 221.779C117.388 221.375 117.548 220.988 117.833 220.703C118.117 220.417 118.503 220.257 118.906 220.257H125.604C126.006 220.257 126.393 220.417 126.677 220.703C126.962 220.988 127.122 221.375 127.122 221.779C127.122 222.182 126.962 222.569 126.677 222.855C126.393 223.14 126.006 223.3 125.604 223.3ZM110.532 223.3H103.832C103.43 223.3 103.043 223.14 102.759 222.855C102.474 222.569 102.314 222.182 102.314 221.779C102.314 221.375 102.474 220.988 102.759 220.703C103.043 220.417 103.43 220.257 103.832 220.257H110.532C110.935 220.257 111.321 220.417 111.606 220.703C111.89 220.988 112.05 221.375 112.05 221.779C112.05 222.182 111.89 222.569 111.606 222.855C111.321 223.14 110.935 223.3 110.532 223.3ZM95.4603 223.3H88.7606C88.3579 223.3 87.9717 223.14 87.6869 222.855C87.4022 222.569 87.2422 222.182 87.2422 221.779C87.2422 221.375 87.4022 220.988 87.6869 220.703C87.9717 220.417 88.3579 220.257 88.7606 220.257H95.4603C95.863 220.257 96.2492 220.417 96.5339 220.703C96.8187 220.988 96.9786 221.375 96.9786 221.779C96.9786 222.182 96.8187 222.569 96.5339 222.855C96.2492 223.14 95.863 223.3 95.4603 223.3ZM80.3885 223.3H73.6888C73.2861 223.3 72.8999 223.14 72.6152 222.855C72.3304 222.569 72.1705 222.182 72.1705 221.779C72.1705 221.375 72.3304 220.988 72.6152 220.703C72.8999 220.417 73.2861 220.257 73.6888 220.257H80.3885C80.7912 220.257 81.1774 220.417 81.4622 220.703C81.7469 220.988 81.9069 221.375 81.9069 221.779C81.9069 222.182 81.7469 222.569 81.4622 222.855C81.1774 223.14 80.7912 223.3 80.3885 223.3ZM65.3147 223.3H61.4534C60.4281 223.3 59.4043 223.219 58.3914 223.059C58.0004 222.989 57.6525 222.768 57.4223 222.443C57.1921 222.119 57.098 221.717 57.1601 221.324C57.2221 220.931 57.4355 220.577 57.7544 220.34C58.0733 220.103 58.4724 220 58.8659 220.054C59.7216 220.192 60.5867 220.263 61.4534 220.265H65.3147C65.7174 220.265 66.1036 220.426 66.3883 220.711C66.6731 220.996 66.833 221.383 66.833 221.787C66.833 222.191 66.6731 222.578 66.3883 222.863C66.1036 223.148 65.7174 223.309 65.3147 223.309V223.3ZM50.9599 219.906C50.6418 219.907 50.3317 219.806 50.0742 219.619C48.1041 218.196 46.4174 216.416 45.1016 214.371C44.8978 214.033 44.8335 213.628 44.9224 213.242C45.0113 212.857 45.2464 212.522 45.5779 212.307C45.9093 212.092 46.3111 212.016 46.6982 212.093C47.0852 212.17 47.427 212.395 47.6512 212.721C48.7614 214.45 50.1856 215.956 51.8499 217.159C52.1069 217.348 52.2978 217.614 52.3956 217.918C52.4933 218.223 52.4929 218.55 52.3944 218.854C52.2959 219.158 52.1043 219.424 51.8468 219.613C51.5893 219.801 51.279 219.904 50.9599 219.906ZM193.244 219.025C192.934 219.025 192.63 218.929 192.376 218.751C192.121 218.573 191.927 218.321 191.819 218.029C191.712 217.737 191.697 217.419 191.775 217.118C191.854 216.817 192.023 216.547 192.259 216.345C193.823 215.016 195.125 213.405 196.097 211.596C196.295 211.254 196.618 211.002 196.998 210.894C197.378 210.786 197.785 210.83 198.132 211.018C198.48 211.206 198.741 211.522 198.86 211.9C198.979 212.277 198.946 212.686 198.769 213.04C197.616 215.182 196.074 217.089 194.223 218.663C193.95 218.896 193.603 219.024 193.244 219.025ZM43.6107 207.23C43.2365 207.229 42.8758 207.09 42.5979 206.838C42.32 206.587 42.1445 206.242 42.105 205.869C42.0325 205.182 41.9959 204.491 41.9953 203.8V199.001C41.9877 198.796 42.0214 198.592 42.0942 198.401C42.167 198.21 42.2775 198.035 42.4192 197.888C42.5608 197.741 42.7307 197.624 42.9186 197.543C43.1064 197.463 43.3085 197.422 43.5126 197.422C43.7168 197.422 43.9189 197.463 44.1067 197.543C44.2946 197.624 44.4645 197.741 44.6061 197.888C44.7477 198.035 44.8583 198.21 44.9311 198.401C45.0039 198.592 45.0375 198.796 45.0299 199.001V203.8C45.0312 204.384 45.0622 204.969 45.1227 205.55C45.1647 205.951 45.0461 206.352 44.793 206.666C44.54 206.979 44.1731 207.179 43.7731 207.222C43.7192 207.228 43.665 207.23 43.6107 207.23ZM199.564 205.803H199.522C199.323 205.798 199.126 205.754 198.944 205.672C198.762 205.591 198.598 205.475 198.461 205.329C198.324 205.184 198.216 205.014 198.145 204.827C198.074 204.64 198.04 204.441 198.046 204.242C198.046 204.096 198.046 203.948 198.046 203.8V197.57C198.046 197.166 198.206 196.779 198.491 196.494C198.775 196.208 199.162 196.048 199.564 196.048C199.967 196.048 200.353 196.208 200.638 196.494C200.923 196.779 201.083 197.166 201.083 197.57V203.8C201.083 203.975 201.083 204.151 201.083 204.324C201.072 204.72 200.908 205.097 200.624 205.373C200.34 205.65 199.96 205.804 199.564 205.803ZM43.5116 192.13C43.1089 192.13 42.7227 191.97 42.438 191.684C42.1532 191.399 41.9932 191.012 41.9932 190.608V183.896C41.9856 183.692 42.0192 183.488 42.0921 183.297C42.1649 183.106 42.2754 182.931 42.4171 182.784C42.5587 182.636 42.7286 182.519 42.9164 182.439C43.1043 182.359 43.3064 182.318 43.5105 182.318C43.7147 182.318 43.9168 182.359 44.1046 182.439C44.2925 182.519 44.4623 182.636 44.604 182.784C44.7456 182.931 44.8562 183.106 44.929 183.297C45.0018 183.488 45.0354 183.692 45.0278 183.896V190.608C45.0281 190.808 44.9892 191.005 44.9132 191.19C44.8373 191.374 44.7258 191.542 44.5852 191.683C44.4446 191.825 44.2776 191.937 44.0938 192.013C43.9099 192.09 43.7128 192.13 43.5137 192.13H43.5116ZM199.564 190.699C199.365 190.699 199.168 190.66 198.983 190.584C198.799 190.508 198.632 190.396 198.491 190.255C198.35 190.114 198.238 189.946 198.162 189.762C198.085 189.577 198.046 189.379 198.046 189.18V182.465C198.046 182.062 198.206 181.675 198.491 181.389C198.775 181.104 199.162 180.944 199.564 180.944C199.967 180.944 200.353 181.104 200.638 181.389C200.923 181.675 201.083 182.062 201.083 182.465V189.18C201.082 189.582 200.923 189.967 200.639 190.252C200.356 190.537 199.972 190.697 199.571 190.699H199.564ZM43.5116 177.026C43.1089 177.026 42.7227 176.865 42.438 176.58C42.1532 176.294 41.9932 175.907 41.9932 175.504V168.79C42.0079 168.396 42.1741 168.024 42.4571 167.751C42.74 167.477 43.1176 167.325 43.5105 167.325C43.9034 167.325 44.281 167.477 44.564 167.751C44.8469 168.024 45.0132 168.396 45.0278 168.79V175.504C45.0278 175.907 44.8684 176.293 44.5846 176.578C44.3008 176.864 43.9157 177.024 43.5137 177.026H43.5116ZM199.564 175.595C199.162 175.595 198.775 175.434 198.491 175.149C198.206 174.864 198.046 174.477 198.046 174.073V167.361C198.046 166.957 198.206 166.57 198.491 166.285C198.775 166 199.162 165.839 199.564 165.839C199.967 165.839 200.353 166 200.638 166.285C200.923 166.57 201.083 166.957 201.083 167.361V174.073C201.083 174.476 200.924 174.862 200.64 175.147C200.357 175.432 199.972 175.593 199.571 175.595H199.564ZM43.5116 161.919C43.3123 161.919 43.1149 161.88 42.9307 161.804C42.7465 161.728 42.5791 161.616 42.4381 161.475C42.2971 161.334 42.1852 161.166 42.1089 160.982C42.0325 160.797 41.9932 160.599 41.9932 160.4V153.685C42.0079 153.292 42.1741 152.919 42.4571 152.646C42.74 152.373 43.1176 152.22 43.5105 152.22C43.9034 152.22 44.281 152.373 44.564 152.646C44.8469 152.919 45.0132 153.292 45.0278 153.685V160.406C45.0262 160.807 44.866 161.192 44.5823 161.475C44.2985 161.759 43.9144 161.918 43.5137 161.919H43.5116ZM199.564 160.49C199.162 160.49 198.775 160.33 198.491 160.045C198.206 159.759 198.046 159.372 198.046 158.969V152.257C198.046 151.853 198.206 151.466 198.491 151.181C198.775 150.895 199.162 150.735 199.564 150.735C199.967 150.735 200.353 150.895 200.638 151.181C200.923 151.466 201.083 151.853 201.083 152.257V158.969C201.083 159.371 200.924 159.757 200.64 160.042C200.357 160.328 199.972 160.489 199.571 160.49H199.564ZM43.5116 146.815C43.3123 146.815 43.1149 146.776 42.9307 146.7C42.7465 146.623 42.5791 146.511 42.4381 146.37C42.2971 146.229 42.1852 146.062 42.1089 145.877C42.0325 145.693 41.9932 145.495 41.9932 145.295V138.581C41.9856 138.376 42.0192 138.173 42.0921 137.981C42.1649 137.79 42.2754 137.616 42.4171 137.469C42.5587 137.321 42.7286 137.204 42.9164 137.124C43.1043 137.044 43.3064 137.003 43.5105 137.003C43.7147 137.003 43.9168 137.044 44.1046 137.124C44.2925 137.204 44.4623 137.321 44.604 137.469C44.7456 137.616 44.8562 137.79 44.929 137.981C45.0018 138.173 45.0354 138.376 45.0278 138.581V145.295C45.0278 145.698 44.8684 146.084 44.5845 146.369C44.3006 146.654 43.9155 146.814 43.5137 146.815H43.5116ZM199.564 145.386C199.365 145.386 199.167 145.347 198.983 145.27C198.799 145.194 198.632 145.082 198.491 144.94C198.35 144.799 198.238 144.631 198.162 144.447C198.085 144.262 198.046 144.064 198.046 143.864V137.159C198.046 136.755 198.206 136.368 198.491 136.083C198.775 135.797 199.162 135.637 199.564 135.637C199.967 135.637 200.353 135.797 200.638 136.083C200.923 136.368 201.083 136.755 201.083 137.159V143.871C201.081 144.272 200.921 144.657 200.638 144.94C200.355 145.224 199.971 145.384 199.571 145.386H199.564ZM43.5116 131.71C43.1089 131.71 42.7227 131.55 42.438 131.265C42.1532 130.979 41.9932 130.592 41.9932 130.189V123.477C41.9856 123.272 42.0192 123.068 42.0921 122.877C42.1649 122.686 42.2754 122.511 42.4171 122.364C42.5587 122.217 42.7286 122.1 42.9164 122.02C43.1043 121.939 43.3064 121.898 43.5105 121.898C43.7147 121.898 43.9168 121.939 44.1046 122.02C44.2925 122.1 44.4623 122.217 44.604 122.364C44.7456 122.511 44.8562 122.686 44.929 122.877C45.0018 123.068 45.0354 123.272 45.0278 123.477V130.184C45.0287 130.384 44.9901 130.582 44.9144 130.767C44.8387 130.952 44.7274 131.121 44.5867 131.262C44.4461 131.404 44.2789 131.517 44.0948 131.593C43.9106 131.67 43.7132 131.71 43.5137 131.71H43.5116ZM199.564 130.282C199.162 130.282 198.775 130.121 198.491 129.836C198.206 129.551 198.046 129.164 198.046 128.76V122.046C198.046 121.642 198.206 121.255 198.491 120.97C198.775 120.684 199.162 120.524 199.564 120.524C199.967 120.524 200.353 120.684 200.638 120.97C200.923 121.255 201.083 121.642 201.083 122.046V128.76C201.082 129.162 200.923 129.548 200.64 129.833C200.356 130.118 199.972 130.279 199.571 130.282H199.564ZM43.5116 116.606C43.1089 116.606 42.7227 116.446 42.438 116.16C42.1532 115.875 41.9932 115.488 41.9932 115.084V108.372C41.9856 108.168 42.0192 107.964 42.0921 107.773C42.1649 107.582 42.2754 107.407 42.4171 107.26C42.5587 107.112 42.7286 106.995 42.9164 106.915C43.1043 106.835 43.3064 106.794 43.5105 106.794C43.7147 106.794 43.9168 106.835 44.1046 106.915C44.2925 106.995 44.4623 107.112 44.604 107.26C44.7456 107.407 44.8562 107.582 44.929 107.773C45.0018 107.964 45.0354 108.168 45.0278 108.372V115.084C45.0281 115.284 44.9892 115.482 44.9132 115.666C44.8373 115.85 44.7258 116.018 44.5852 116.159C44.4446 116.301 44.2776 116.413 44.0938 116.489C43.9099 116.566 43.7128 116.606 43.5137 116.606H43.5116ZM199.564 115.175C199.365 115.175 199.168 115.136 198.983 115.06C198.799 114.984 198.632 114.872 198.491 114.731C198.35 114.59 198.238 114.422 198.162 114.238C198.085 114.053 198.046 113.855 198.046 113.656V106.937C198.046 106.534 198.206 106.147 198.491 105.861C198.775 105.576 199.162 105.416 199.564 105.416C199.967 105.416 200.353 105.576 200.638 105.861C200.923 106.147 201.083 106.534 201.083 106.937V113.651C201.084 113.851 201.045 114.049 200.97 114.234C200.894 114.419 200.783 114.587 200.642 114.729C200.502 114.871 200.335 114.984 200.151 115.061C199.967 115.138 199.77 115.179 199.571 115.179L199.564 115.175ZM43.5116 101.502C43.1089 101.502 42.7227 101.341 42.438 101.056C42.1532 100.771 41.9932 100.384 41.9932 99.9799V93.2678C41.9856 93.0634 42.0192 92.8595 42.0921 92.6684C42.1649 92.4772 42.2754 92.3028 42.4171 92.1554C42.5587 92.0081 42.7286 91.8909 42.9164 91.8108C43.1043 91.7308 43.3064 91.6895 43.5105 91.6895C43.7147 91.6895 43.9168 91.7308 44.1046 91.8108C44.2925 91.8909 44.4623 92.0081 44.604 92.1554C44.7456 92.3028 44.8562 92.4772 44.929 92.6684C45.0018 92.8595 45.0354 93.0634 45.0278 93.2678V99.9799C45.0281 100.179 44.9892 100.377 44.9132 100.562C44.8373 100.746 44.7258 100.914 44.5852 101.055C44.4446 101.196 44.2776 101.308 44.0938 101.385C43.9099 101.462 43.7128 101.501 43.5137 101.502H43.5116ZM199.564 100.071C199.365 100.071 199.168 100.032 198.983 99.9558C198.799 99.8795 198.632 99.7676 198.491 99.6265C198.35 99.4854 198.238 99.3178 198.162 99.1333C198.085 98.9488 198.046 98.751 198.046 98.5513V91.8371C198.046 91.4335 198.206 91.0465 198.491 90.7611C198.775 90.4758 199.162 90.3154 199.564 90.3154C199.967 90.3154 200.353 90.4758 200.638 90.7611C200.923 91.0465 201.083 91.4335 201.083 91.8371V98.5513C201.082 98.9534 200.923 99.3389 200.639 99.6237C200.356 99.9084 199.972 100.069 199.571 100.071H199.564ZM43.5116 86.3972C43.1089 86.3972 42.7227 86.2369 42.438 85.9515C42.1532 85.6662 41.9932 85.2791 41.9932 84.8756V78.1614C42.0079 77.7679 42.1741 77.3954 42.4571 77.1222C42.74 76.8491 43.1176 76.6964 43.5105 76.6964C43.9034 76.6964 44.281 76.8491 44.564 77.1222C44.8469 77.3954 45.0132 77.7679 45.0278 78.1614V84.8756C45.0278 85.2784 44.8684 85.6648 44.5846 85.9501C44.3008 86.2353 43.9157 86.3961 43.5137 86.3972H43.5116ZM199.564 84.9665C199.162 84.9665 198.775 84.8061 198.491 84.5208C198.206 84.2354 198.046 83.8484 198.046 83.4448V76.682C198.046 76.2784 198.206 75.8914 198.491 75.606C198.775 75.3207 199.162 75.1604 199.564 75.1604C199.967 75.1604 200.353 75.3207 200.638 75.606C200.923 75.8914 201.083 76.2784 201.083 76.682V83.4448C201.08 83.8458 200.92 84.2297 200.637 84.5131C200.354 84.7964 199.971 84.9563 199.571 84.958L199.564 84.9665ZM43.5116 71.2907C43.3123 71.291 43.1149 71.2519 42.9307 71.1757C42.7465 71.0994 42.5791 70.9876 42.4381 70.8464C42.2971 70.7053 42.1852 70.5377 42.1089 70.3532C42.0325 70.1687 41.9932 69.9709 41.9932 69.7712V63.057C41.9856 62.8525 42.0192 62.6486 42.0921 62.4575C42.1649 62.2664 42.2754 62.0919 42.4171 61.9446C42.5587 61.7972 42.7286 61.68 42.9164 61.6C43.1043 61.5199 43.3064 61.4787 43.5105 61.4787C43.7147 61.4787 43.9168 61.5199 44.1046 61.6C44.2925 61.68 44.4623 61.7972 44.604 61.9446C44.7456 62.0919 44.8562 62.2664 44.929 62.4575C45.0018 62.6486 45.0354 62.8525 45.0278 63.057V69.7712C45.0278 70.1739 44.8684 70.56 44.5845 70.8449C44.3006 71.1298 43.9155 71.2902 43.5137 71.2907H43.5116ZM196.914 70.3947C196.68 70.3944 196.45 70.3404 196.241 70.2367C196.032 70.1329 195.849 69.9824 195.707 69.7966C195.402 69.3958 195.07 69.016 194.714 68.6596L191.186 65.1239C190.902 64.8383 190.743 64.4514 190.744 64.0484C190.745 63.6453 190.905 63.259 191.19 62.9746C191.475 62.6901 191.861 62.5308 192.263 62.5315C192.666 62.5323 193.051 62.6932 193.335 62.9788L196.863 66.5124C197.316 66.9639 197.739 67.4454 198.128 67.9537C198.301 68.1788 198.407 68.4478 198.435 68.7303C198.463 69.0127 198.411 69.2973 198.285 69.5518C198.16 69.8064 197.966 70.0206 197.726 70.1703C197.485 70.32 197.207 70.3992 196.924 70.3989L196.914 70.3947ZM186.338 59.6354C186.139 59.6358 185.942 59.5968 185.758 59.5207C185.574 59.4445 185.407 59.3327 185.267 59.1916L180.53 54.4428C180.246 54.1578 180.086 53.7713 180.086 53.3682C180.086 52.9651 180.246 52.5785 180.53 52.2935C180.815 52.0085 181.2 51.8484 181.602 51.8484C182.005 51.8484 182.39 52.0085 182.675 52.2935L187.411 57.0402C187.624 57.2527 187.769 57.5237 187.827 57.8188C187.886 58.1139 187.856 58.4198 187.741 58.6977C187.626 58.9757 187.431 59.2132 187.181 59.3801C186.932 59.5471 186.638 59.6359 186.338 59.6354ZM43.7309 56.1991C43.5118 56.1985 43.2955 56.1506 43.0965 56.0586C42.8976 55.9666 42.7209 55.8327 42.5783 55.666C42.4358 55.4993 42.3308 55.3037 42.2706 55.0926C42.2104 54.8815 42.1964 54.6599 42.2294 54.4428C42.6016 52.037 43.4252 49.7236 44.6567 47.6251C44.8672 47.2918 45.1986 47.0535 45.581 46.9603C45.9634 46.8672 46.367 46.9265 46.7066 47.1257C47.0463 47.325 47.2954 47.6486 47.4016 48.0284C47.5078 48.4081 47.4627 48.8144 47.2758 49.1615C46.2376 50.9318 45.5428 52.8829 45.2282 54.912C45.1728 55.2703 44.9915 55.5969 44.7169 55.8329C44.4424 56.0689 44.0926 56.1988 43.7309 56.1991ZM175.684 48.9565C175.281 48.9564 174.895 48.796 174.611 48.5106L170.467 44.3578C170.294 44.1845 170.113 44.0133 169.927 43.8506C169.64 43.5805 169.468 43.2091 169.449 42.8147C169.43 42.4203 169.564 42.0339 169.824 41.7371C170.084 41.4403 170.448 41.2562 170.841 41.2239C171.234 41.1916 171.624 41.3135 171.928 41.5639C172.164 41.7752 172.394 41.9865 172.614 42.1979L176.757 46.3507C176.97 46.5635 177.114 46.8346 177.173 47.1297C177.231 47.4248 177.201 47.7307 177.086 48.0086C176.971 48.2866 176.777 48.5242 176.527 48.6914C176.278 48.8586 175.984 48.9479 175.684 48.948V48.9565ZM51.698 43.9034C51.3705 43.9034 51.0518 43.7974 50.7894 43.601C50.5269 43.4046 50.3349 43.1284 50.2419 42.8137C50.149 42.499 50.16 42.1626 50.2735 41.8547C50.3869 41.5468 50.5966 41.2839 50.8714 41.1053C52.9072 39.7758 55.1753 38.8437 57.5563 38.3579C57.7528 38.3153 57.9556 38.3123 58.1533 38.3489C58.3509 38.3855 58.5392 38.4611 58.7075 38.5712C58.8757 38.6813 59.0205 38.8238 59.1334 38.9905C59.2462 39.1571 59.325 39.3445 59.365 39.5419C59.4051 39.7392 59.4056 39.9426 59.3667 40.1401C59.3277 40.3377 59.25 40.5256 59.1381 40.6928C59.0261 40.86 58.8822 41.0034 58.7146 41.1144C58.5469 41.2255 58.359 41.3021 58.1616 41.3398C56.154 41.7477 54.2415 42.5322 52.5247 43.6519C52.2791 43.814 51.992 43.9013 51.698 43.9034ZM163.339 41.0482H163.229C162.959 41.0292 162.683 41.0186 162.411 41.0186H156.639C156.247 41.0039 155.875 40.8373 155.602 40.5538C155.33 40.2702 155.177 39.8918 155.177 39.498C155.177 39.1043 155.33 38.7259 155.602 38.4423C155.875 38.1587 156.247 37.9921 156.639 37.9775H162.411C162.757 37.9775 163.105 37.9901 163.447 38.0134C163.838 38.0426 164.203 38.2226 164.465 38.5156C164.726 38.8085 164.865 39.1917 164.851 39.5847C164.837 39.9778 164.672 40.3501 164.39 40.6238C164.108 40.8974 163.731 41.051 163.339 41.0524V41.0482ZM148.267 41.0144H141.568C141.364 41.022 141.16 40.9883 140.969 40.9153C140.779 40.8424 140.605 40.7316 140.458 40.5896C140.311 40.4477 140.194 40.2775 140.114 40.0892C140.034 39.9009 139.993 39.6984 139.993 39.4938C139.993 39.2892 140.034 39.0867 140.114 38.8984C140.194 38.7101 140.311 38.5399 140.458 38.398C140.605 38.256 140.779 38.1453 140.969 38.0723C141.16 37.9993 141.364 37.9656 141.568 37.9732H148.267C148.66 37.9879 149.032 38.1545 149.304 38.4381C149.577 38.7216 149.729 39.1001 149.729 39.4938C149.729 39.8876 149.577 40.266 149.304 40.5495C149.032 40.8331 148.66 40.9997 148.267 41.0144ZM133.193 41.0144H126.496C126.292 41.022 126.088 40.9883 125.898 40.9153C125.707 40.8424 125.533 40.7316 125.386 40.5896C125.239 40.4477 125.122 40.2775 125.042 40.0892C124.962 39.9009 124.921 39.6984 124.921 39.4938C124.921 39.2892 124.962 39.0867 125.042 38.8984C125.122 38.7101 125.239 38.5399 125.386 38.398C125.533 38.256 125.707 38.1453 125.898 38.0723C126.088 37.9993 126.292 37.9656 126.496 37.9732H133.193C133.397 37.9656 133.601 37.9993 133.792 38.0723C133.982 38.1453 134.156 38.256 134.303 38.398C134.45 38.5399 134.567 38.7101 134.647 38.8984C134.727 39.0867 134.768 39.2892 134.768 39.4938C134.768 39.6984 134.727 39.9009 134.647 40.0892C134.567 40.2775 134.45 40.4477 134.303 40.5896C134.156 40.7316 133.982 40.8424 133.792 40.9153C133.601 40.9883 133.397 41.022 133.193 41.0144ZM118.122 41.0144H111.424C111.22 41.022 111.017 40.9883 110.826 40.9153C110.635 40.8424 110.461 40.7316 110.314 40.5896C110.167 40.4477 110.05 40.2775 109.97 40.0892C109.89 39.9009 109.849 39.6984 109.849 39.4938C109.849 39.2892 109.89 39.0867 109.97 38.8984C110.05 38.7101 110.167 38.5399 110.314 38.398C110.461 38.256 110.635 38.1453 110.826 38.0723C111.017 37.9993 111.22 37.9656 111.424 37.9732H118.122C118.326 37.9656 118.529 37.9993 118.72 38.0723C118.911 38.1453 119.085 38.256 119.232 38.398C119.379 38.5399 119.496 38.7101 119.576 38.8984C119.655 39.0867 119.697 39.2892 119.697 39.4938C119.697 39.6984 119.655 39.9009 119.576 40.0892C119.496 40.2775 119.379 40.4477 119.232 40.5896C119.085 40.7316 118.911 40.8424 118.72 40.9153C118.529 40.9883 118.326 41.022 118.122 41.0144ZM103.05 41.0144H96.3523C96.1483 41.022 95.9448 40.9883 95.7541 40.9153C95.5634 40.8424 95.3893 40.7316 95.2423 40.5896C95.0953 40.4477 94.9783 40.2775 94.8984 40.0892C94.8186 39.9009 94.7774 39.6984 94.7774 39.4938C94.7774 39.2892 94.8186 39.0867 94.8984 38.8984C94.9783 38.7101 95.0953 38.5399 95.2423 38.398C95.3893 38.256 95.5634 38.1453 95.7541 38.0723C95.9448 37.9993 96.1483 37.9656 96.3523 37.9732H103.05C103.254 37.9656 103.457 37.9993 103.648 38.0723C103.839 38.1453 104.013 38.256 104.16 38.398C104.307 38.5399 104.424 38.7101 104.504 38.8984C104.584 39.0867 104.625 39.2892 104.625 39.4938C104.625 39.6984 104.584 39.9009 104.504 40.0892C104.424 40.2775 104.307 40.4477 104.16 40.5896C104.013 40.7316 103.839 40.8424 103.648 40.9153C103.457 40.9883 103.254 41.022 103.05 41.0144ZM87.9782 41.0144H81.2785C80.8858 40.9997 80.5142 40.8331 80.2416 40.5495C79.969 40.266 79.8167 39.8876 79.8167 39.4938C79.8167 39.1001 79.969 38.7216 80.2416 38.4381C80.5142 38.1545 80.8858 37.9879 81.2785 37.9732H87.9782C88.1822 37.9656 88.3857 37.9993 88.5764 38.0723C88.7671 38.1453 88.9412 38.256 89.0882 38.398C89.2352 38.5399 89.3522 38.7101 89.4321 38.8984C89.5119 39.0867 89.5531 39.2892 89.5531 39.4938C89.5531 39.6984 89.5119 39.9009 89.4321 40.0892C89.3522 40.2775 89.2352 40.4477 89.0882 40.5896C88.9412 40.7316 88.7671 40.8424 88.5764 40.9153C88.3857 40.9883 88.1822 41.022 87.9782 41.0144ZM72.9064 41.0144H66.2173C66.0133 41.022 65.8098 40.9883 65.6191 40.9153C65.4283 40.8424 65.2543 40.7316 65.1072 40.5896C64.9602 40.4477 64.8433 40.2775 64.7634 40.0892C64.6835 39.9009 64.6423 39.6984 64.6423 39.4938C64.6423 39.2892 64.6835 39.0867 64.7634 38.8984C64.8433 38.7101 64.9602 38.5399 65.1072 38.398C65.2543 38.256 65.4283 38.1453 65.6191 38.0723C65.8098 37.9993 66.0133 37.9656 66.2173 37.9732H72.917C73.3096 37.9879 73.6813 38.1545 73.9539 38.4381C74.2265 38.7216 74.3788 39.1001 74.3788 39.4938C74.3788 39.8876 74.2265 40.266 73.9539 40.5495C73.6813 40.8331 73.3096 40.9997 72.917 41.0144H72.9064Z" fill="#7EB3F9"/>
<path d="M232.136 232.734L230.643 234.002L222.735 240.653L217.868 234.846L217.155 233.986L216.436 233.127L207.463 222.411L206.744 221.552L206.031 220.68L198.163 211.284L197.44 210.421L196.721 209.563L197.644 208.929C199.007 207.963 200.333 206.938 201.624 205.856C202.914 204.774 204.147 203.643 205.323 202.462C205.59 202.196 205.852 201.928 206.109 201.659L206.835 202.524L207.554 203.388L215.426 212.784L216.143 213.642L216.866 214.504L225.839 225.221L226.554 226.079L227.271 226.925L230.884 231.236L232.136 232.734Z" fill="#CEDFEE"/>
<path d="M257.175 294.395L213.733 242.511C213.368 242.076 213.093 241.573 212.923 241.032C212.752 240.49 212.69 239.92 212.739 239.354C212.788 238.788 212.948 238.238 213.21 237.734C213.472 237.23 213.83 236.783 214.264 236.418L229.448 223.651C229.882 223.286 230.384 223.01 230.924 222.839C231.465 222.668 232.034 222.606 232.599 222.655C233.163 222.705 233.713 222.865 234.216 223.127C234.719 223.39 235.165 223.749 235.53 224.184L278.971 276.067C280.693 278.125 281.529 280.784 281.296 283.459C281.062 286.134 279.777 288.606 277.725 290.333L271.405 295.631C269.354 297.357 266.703 298.197 264.034 297.965C261.366 297.733 258.898 296.449 257.175 294.395Z" fill="#ACC8FE"/>
<path d="M220.715 113.425C194.475 82.0861 147.858 77.9988 116.584 104.296C85.31 130.592 81.2316 177.313 107.476 208.652C132.149 238.111 174.817 243.492 205.825 222.178C206.133 221.967 206.441 221.755 206.744 221.544C207.048 221.333 207.352 221.109 207.653 220.891C208.994 219.905 210.312 218.869 211.607 217.784C212.902 216.7 214.147 215.577 215.342 214.418C215.612 214.162 215.88 213.904 216.143 213.636C216.407 213.367 216.673 213.11 216.934 212.841C243.256 185.94 245.384 142.884 220.715 113.425ZM126.571 116.224C151.232 95.4891 188.123 98.7247 208.815 123.434C227.925 146.259 226.626 179.551 206.886 200.835C206.633 201.108 206.375 201.38 206.112 201.651C205.849 201.921 205.587 202.189 205.325 202.454C204.151 203.629 202.915 204.759 201.616 205.844C200.317 206.929 198.99 207.953 197.636 208.917L196.713 209.551C196.403 209.762 196.091 209.973 195.778 210.17C183.827 217.905 169.469 221.001 155.4 218.876C141.332 216.75 128.522 209.549 119.378 198.627C98.6926 173.932 101.915 136.958 126.571 116.224Z" fill="#D5E7F6"/>
<path d="M235.827 138.928C231.833 125.876 224.37 114.16 214.239 105.034C204.108 95.9078 191.691 89.7162 178.317 87.1223C164.943 84.5285 151.117 85.6301 138.32 90.3093C125.524 94.9884 114.238 103.069 105.674 113.684C97.1089 124.3 91.5878 137.051 89.7017 150.571C87.8156 164.091 89.6356 177.87 94.9667 190.433C100.298 202.996 108.939 213.868 119.965 221.885C130.99 229.902 143.985 234.761 157.556 235.943C159.77 236.139 161.984 236.234 164.188 236.234C179.314 236.235 194.085 231.635 206.548 223.045C206.856 222.833 207.159 222.622 207.463 222.4C207.767 222.178 208.07 221.977 208.37 221.747C209.717 220.761 211.034 219.724 212.322 218.638C213.61 217.552 214.856 216.432 216.061 215.278C216.333 215.022 216.601 214.76 216.866 214.496C217.132 214.232 217.396 213.97 217.655 213.701C227.114 204.028 233.795 191.976 236.993 178.817C240.191 165.657 239.788 151.877 235.827 138.928ZM236.609 167.397C235.193 184.186 227.981 199.956 216.213 211.989C215.951 212.256 215.687 212.52 215.42 212.782C215.154 213.046 214.886 213.308 214.618 213.564C213.418 214.728 212.17 215.846 210.884 216.93C209.597 218.015 208.269 219.044 206.923 220.033C206.624 220.255 206.324 220.473 206.016 220.686C205.709 220.899 205.403 221.109 205.095 221.32C193.028 229.574 178.755 233.981 164.146 233.964C143.355 233.964 122.699 225.107 108.323 207.932C82.5197 177.116 86.5475 131.004 117.296 105.149C130.35 94.109 146.884 88.0598 163.964 88.0753C166.11 88.0753 168.266 88.1697 170.434 88.3585C179.958 89.1932 189.225 91.8998 197.705 96.3239C206.185 100.748 213.713 106.803 219.858 114.142C226.003 121.482 230.645 129.963 233.519 139.101C236.393 148.239 237.443 157.855 236.609 167.399V167.397Z" fill="#7EB3F9"/>
<path d="M209.666 122.716C188.546 97.4946 151.028 94.2019 125.857 115.367C100.686 136.533 97.4069 174.143 118.516 199.36C138.057 222.7 171.644 227.256 196.49 211.045C196.806 210.833 197.122 210.622 197.426 210.411C197.73 210.199 198.042 209.988 198.346 209.777C199.704 208.82 201.032 207.797 202.329 206.708C203.627 205.619 204.866 204.485 206.047 203.308C206.311 203.041 206.576 202.773 206.836 202.507C207.095 202.24 207.352 201.966 207.61 201.693C227.856 179.993 229.208 146.056 209.666 122.716ZM206.876 200.835C206.623 201.108 206.365 201.38 206.102 201.651C205.839 201.921 205.577 202.189 205.315 202.454C204.148 203.629 202.915 204.759 201.616 205.844C200.317 206.928 198.991 207.953 197.637 208.916L196.713 209.55C196.403 209.762 196.091 209.973 195.779 210.17C183.828 217.905 169.469 221.001 155.401 218.875C141.333 216.75 128.523 209.549 119.379 198.626C98.6933 173.931 101.916 136.958 126.572 116.223C151.228 95.489 188.124 98.7246 208.816 123.434C227.924 146.259 226.625 179.551 206.876 200.835Z" fill="#FCFCFC"/>
<path d="M210.523 121.999C204.117 114.347 195.927 108.396 186.678 104.673C177.429 100.951 167.407 99.5715 157.499 100.658C147.591 101.745 138.103 105.263 129.877 110.903C121.65 116.542 114.938 124.127 110.335 132.987C105.733 141.847 103.381 151.708 103.49 161.696C103.598 171.684 106.163 181.491 110.958 190.248C115.752 199.005 122.627 206.443 130.974 211.901C139.322 217.359 148.884 220.67 158.813 221.54C160.615 221.699 162.411 221.778 164.201 221.777C175.934 221.793 187.415 218.362 197.223 211.907C197.535 211.696 197.855 211.484 198.155 211.273C198.454 211.062 198.771 210.85 199.074 210.639C200.437 209.673 201.763 208.646 203.054 207.56C204.344 206.474 205.582 205.346 206.767 204.178C207.033 203.916 207.297 203.648 207.554 203.384C207.811 203.12 208.079 202.841 208.332 202.572C218.46 191.731 224.275 177.548 224.678 162.702C225.082 147.857 220.047 133.378 210.523 121.999ZM159.005 219.319C151.363 218.669 143.925 216.506 137.123 212.957C130.32 209.407 124.287 204.541 119.374 198.639C98.6924 173.932 101.915 136.958 126.571 116.224C151.227 95.4892 188.123 98.7248 208.815 123.434C227.925 146.259 226.626 179.551 206.885 200.835C206.632 201.108 206.374 201.38 206.112 201.651C205.849 201.921 205.586 202.189 205.325 202.454C204.151 203.629 202.915 204.759 201.616 205.844C200.316 206.929 198.99 207.953 197.636 208.917L196.713 209.551C196.403 209.762 196.09 209.973 195.778 210.17C184.89 217.264 171.939 220.486 159.005 219.319Z" fill="#7EB3F9"/>
<path d="M206.876 200.835C206.622 201.108 206.364 201.38 206.102 201.651C205.839 201.921 205.576 202.189 205.315 202.454C204.148 203.629 202.915 204.759 201.616 205.844C200.317 206.929 198.991 207.953 197.637 208.917L196.713 209.551C196.403 209.762 196.091 209.973 195.779 210.17C183.828 217.905 169.469 221.001 155.401 218.875C141.333 216.75 128.523 209.549 119.378 198.627C98.693 173.932 101.915 136.958 126.572 116.224C151.228 95.4891 188.124 98.7247 208.816 123.434C227.924 146.259 226.625 179.551 206.876 200.835Z" fill="white"/>
<path d="M267.521 275.645C267.241 275.645 266.964 275.585 266.709 275.469C266.455 275.352 266.228 275.182 266.045 274.97L230.661 234.017C230.321 233.625 230.152 233.114 230.189 232.596C230.226 232.078 230.466 231.596 230.858 231.256C231.249 230.916 231.76 230.746 232.276 230.783C232.793 230.82 233.274 231.061 233.613 231.454L268.995 272.415C269.241 272.698 269.4 273.047 269.454 273.418C269.508 273.79 269.454 274.169 269.298 274.51C269.142 274.852 268.891 275.141 268.576 275.343C268.26 275.545 267.893 275.652 267.519 275.651L267.521 275.645Z" fill="white"/>
<path d="M110.567 120.412C110.249 120.413 109.94 120.305 109.69 120.108C109.392 119.874 109.199 119.531 109.153 119.155C109.107 118.778 109.212 118.399 109.445 118.1C114.027 112.238 119.523 107.155 125.721 103.049C131.841 98.988 138.563 95.9211 145.637 93.961C160.267 89.8671 175.838 90.7387 189.922 96.44C190.258 96.5907 190.523 96.8658 190.662 97.2077C190.8 97.5496 190.802 97.9319 190.666 98.2748C190.53 98.6176 190.267 98.8946 189.932 99.0477C189.597 99.2008 189.215 99.2183 188.868 99.0965C161.554 88.1407 129.821 96.683 111.702 119.867C111.567 120.038 111.394 120.177 111.198 120.271C111.001 120.366 110.785 120.414 110.567 120.412Z" fill="white"/>
<path d="M100.962 137.159C100.729 137.158 100.5 137.101 100.294 136.991C100.088 136.882 99.9122 136.723 99.7814 136.53C99.6506 136.336 99.569 136.114 99.5436 135.882C99.5183 135.65 99.55 135.415 99.6359 135.198C101.119 131.483 102.916 127.903 105.007 124.495C105.105 124.336 105.234 124.197 105.386 124.087C105.537 123.977 105.709 123.898 105.891 123.854C106.074 123.811 106.263 123.803 106.448 123.833C106.633 123.863 106.81 123.929 106.969 124.027C107.129 124.126 107.267 124.255 107.377 124.407C107.487 124.559 107.566 124.731 107.609 124.914C107.653 125.096 107.66 125.286 107.63 125.471C107.6 125.656 107.535 125.834 107.436 125.994C105.429 129.261 103.703 132.695 102.278 136.256C102.173 136.521 101.992 136.748 101.758 136.909C101.523 137.07 101.246 137.157 100.962 137.159Z" fill="white"/>
<path d="M43.9997 27.4001C43.8004 27.4001 43.6031 27.3607 43.419 27.2842C43.2349 27.2077 43.0676 27.0956 42.9268 26.9543C42.786 26.813 42.6744 26.6452 42.5983 26.4606C42.5222 26.276 42.4832 26.0782 42.4835 25.8785V1.52169C42.4759 1.31724 42.5095 1.11335 42.5823 0.922209C42.6551 0.731072 42.7657 0.556615 42.9073 0.409273C43.049 0.26193 43.2188 0.144727 43.4067 0.0646737C43.5946 -0.0153801 43.7966 -0.0566406 44.0008 -0.0566406C44.2049 -0.0566406 44.407 -0.0153801 44.5949 0.0646737C44.7827 0.144727 44.9526 0.26193 45.0942 0.409273C45.2359 0.556615 45.3464 0.731072 45.4192 0.922209C45.4921 1.11335 45.5257 1.31724 45.5181 1.52169V25.8785C45.5181 26.0783 45.4788 26.2761 45.4025 26.4608C45.3262 26.6454 45.2143 26.8131 45.0734 26.9544C44.9324 27.0957 44.765 27.2078 44.5808 27.2843C44.3965 27.3607 44.1991 27.4001 43.9997 27.4001Z" fill="#7EB3F9"/>
<path d="M33.5141 31.7536C33.315 31.7536 33.1179 31.7142 32.9341 31.6377C32.7503 31.5612 32.5833 31.449 32.4428 31.3077L15.2559 14.0836C14.9813 13.7962 14.8298 13.4125 14.8341 13.0146C14.8383 12.6167 14.9979 12.2363 15.2787 11.955C15.5595 11.6736 15.939 11.5136 16.3361 11.5094C16.7331 11.5051 17.116 11.6569 17.4027 11.9321L34.5854 29.1647C34.7976 29.3775 34.9422 29.6486 35.0007 29.9437C35.0593 30.2388 35.0292 30.5447 34.9143 30.8226C34.7994 31.1006 34.6049 31.3382 34.3553 31.5054C34.1057 31.6726 33.8122 31.7619 33.512 31.762L33.5141 31.7536Z" fill="#7EB3F9"/>
<path d="M29.1722 42.2678H4.86594C4.66193 42.2754 4.45848 42.2417 4.26775 42.1688C4.07703 42.0958 3.90295 41.985 3.75592 41.843C3.6089 41.7011 3.49195 41.5309 3.41207 41.3426C3.33219 41.1543 3.29102 40.9518 3.29102 40.7472C3.29102 40.5426 3.33219 40.3401 3.41207 40.1518C3.49195 39.9636 3.6089 39.7934 3.75592 39.6514C3.90295 39.5094 4.07703 39.3987 4.26775 39.3257C4.45848 39.2527 4.66193 39.219 4.86594 39.2266H29.1722C29.5648 39.2413 29.9365 39.4079 30.2091 39.6915C30.4817 39.9751 30.634 40.3535 30.634 40.7472C30.634 41.141 30.4817 41.5194 30.2091 41.8029C29.9365 42.0865 29.5648 42.2531 29.1722 42.2678Z" fill="#7EB3F9"/>
<path d="M164.638 175.227C161.89 175.227 160.325 173.403 159.944 169.756L159.368 161.116C159.24 159.324 159.608 157.932 160.471 156.94C161.334 155.948 162.627 155.228 164.349 154.78C167.161 154.076 169.332 152.939 170.863 151.371C172.394 149.803 173.161 147.739 173.162 145.179C173.162 142.361 172.412 140.137 170.912 138.507C169.412 136.877 167.288 136.061 164.541 136.06C161.093 136.06 158.57 137.372 156.975 139.995C155.76 141.787 154.674 142.939 153.717 143.45C152.759 143.962 151.482 144.09 149.885 143.835C148.097 143.517 146.739 142.765 145.813 141.58C144.886 140.395 144.838 138.939 145.669 137.212C147.302 133.85 149.887 131.045 153.101 129.147C156.384 127.162 160.197 126.169 164.541 126.169C168.499 126.169 171.995 126.921 175.03 128.424C177.99 129.862 180.469 132.13 182.167 134.952C183.892 137.803 184.754 141.215 184.754 145.19C184.754 149.735 183.365 153.415 180.587 156.23C177.809 159.045 174.121 161.029 169.522 162.181L169.141 169.766C168.82 173.407 167.319 175.227 164.638 175.227ZM164.541 195.869C163.589 195.879 162.645 195.698 161.764 195.335C160.884 194.972 160.085 194.434 159.417 193.755C158.725 193.103 158.175 192.314 157.804 191.438C157.433 190.562 157.248 189.618 157.262 188.666C157.244 187.699 157.428 186.739 157.801 185.847C158.174 184.955 158.727 184.15 159.427 183.484C160.096 182.805 160.894 182.267 161.775 181.904C162.655 181.541 163.6 181.36 164.552 181.371C165.519 181.353 166.48 181.531 167.377 181.894C168.274 182.257 169.089 182.798 169.773 183.484C170.471 184.151 171.023 184.957 171.394 185.849C171.765 186.742 171.947 187.702 171.928 188.668C171.939 189.621 171.752 190.565 171.379 191.442C171.006 192.318 170.455 193.106 169.76 193.757C169.076 194.442 168.262 194.982 167.365 195.345C166.468 195.708 165.508 195.886 164.541 195.869Z" fill="#7EB3F9"/>
</g>
<defs>
<clipPath id="clip0_278_2104">
<rect width="312" height="298" fill="white"/>
</clipPath>
</defs>
</svg>
