<svg width="40" height="40" viewBox="0 0 40 40" fill="none" xmlns="http://www.w3.org/2000/svg">
<rect width="40" height="40" fill="#6C2A00"/>
<g clip-path="url(#clip0_244_2421)">
<path d="M27.9428 9H12.0567C9.81627 9 8 10.7905 8 12.9994C8 15.2084 9.81627 16.9989 12.0567 16.9989C13.9704 16.9989 15.5745 15.6921 16.0021 13.9343C16.7734 14.8477 18.0633 15.7296 20.1704 15.7296C22.0572 15.7296 23.2886 15.0231 24.0791 14.2198C24.6023 15.832 26.1344 17 27.9433 17C30.1837 17 32 15.2094 32 13.0006C32 10.7918 30.1832 9 27.9428 9ZM12.0567 14.0643C11.843 14.0643 11.6342 14.0018 11.4565 13.8848C11.2789 13.7678 11.1404 13.6015 11.0586 13.4069C10.9768 13.2123 10.9554 12.9982 10.9971 12.7916C11.0388 12.585 11.1417 12.3952 11.2927 12.2463C11.4438 12.0973 11.6363 11.9959 11.8458 11.9548C12.0554 11.9137 12.2726 11.9348 12.47 12.0155C12.6674 12.0961 12.8361 12.2326 12.9547 12.4077C13.0734 12.5829 13.1367 12.7888 13.1367 12.9994C13.1367 13.1393 13.1088 13.2777 13.0545 13.4069C13.0002 13.5361 12.9207 13.6535 12.8204 13.7524C12.7201 13.8513 12.601 13.9297 12.47 13.9832C12.339 14.0367 12.1985 14.0643 12.0567 14.0643ZM27.9428 14.0643C27.7292 14.0643 27.5203 14.0018 27.3427 13.8848C27.165 13.7678 27.0265 13.6015 26.9448 13.4069C26.863 13.2123 26.8416 12.9982 26.8833 12.7916C26.9249 12.585 27.0278 12.3952 27.1789 12.2463C27.33 12.0973 27.5224 11.9959 27.732 11.9548C27.9415 11.9137 28.1587 11.9348 28.3561 12.0155C28.5535 12.0961 28.7222 12.2326 28.8409 12.4077C28.9596 12.5829 29.0229 12.7888 29.0229 12.9994C29.0229 13.1393 28.9949 13.2777 28.9407 13.4069C28.8864 13.5361 28.8068 13.6535 28.7065 13.7524C28.6062 13.8513 28.4872 13.9297 28.3561 13.9832C28.2251 14.0367 28.0847 14.0643 27.9428 14.0643Z" fill="#C6BDAB"/>
<path d="M27.3581 18H12.6419C12.0113 18 11.5 18.6716 11.5 19.5C11.5 20.3284 12.0113 21 12.6419 21H27.3581C27.9887 21 28.5 20.3284 28.5 19.5C28.5 18.6716 27.9887 18 27.3581 18Z" fill="#C6BDAB"/>
<path d="M23.9 22L22.6 24.2808L21.3 22L19.9999 24.2808L18.7 22L17.4 24.2808L16.0999 22L14.8 24.2808L13.5 22V40H26.5V22L25.2 24.2808L23.9 22Z" fill="#C6BDAB"/>
</g>
<defs>
<clipPath id="clip0_244_2421">
<rect width="24" height="31" fill="white" transform="translate(8 9)"/>
</clipPath>
</defs>
</svg>
