<svg width="199" height="41" viewBox="0 0 199 41" fill="none" xmlns="http://www.w3.org/2000/svg">
<rect width="39.7266" height="39.728" transform="translate(0 0.337891)" fill="#7EB3F9"/>
<path d="M30.6667 23.426C30.6664 22.4286 30.3424 21.4583 29.7435 20.6616C29.1447 19.8648 28.3035 19.2849 27.3468 19.0092C27.1966 18.9687 27.0625 18.8829 26.9627 18.7634C26.8629 18.6439 26.8023 18.4965 26.7891 18.3412L26.0772 8.54419L25.3654 18.3412C25.3523 18.4965 25.2917 18.644 25.1919 18.7635C25.0921 18.883 24.9579 18.9688 24.8077 19.0092C23.9027 19.2701 23.0998 19.8037 22.5079 20.5375C21.916 21.2713 21.5638 22.1699 21.4991 23.1112C21.4344 24.0525 21.6603 24.991 22.1462 25.7992C22.6321 26.6075 23.3544 27.2463 24.2151 27.6291C24.3521 27.6923 24.4665 27.7962 24.5427 27.9267C24.6188 28.0572 24.6532 28.208 24.641 28.3587L23.7611 40.4038H28.3905L27.5157 28.3587C27.5033 28.208 27.5374 28.0572 27.6135 27.9267C27.6895 27.7962 27.8038 27.6922 27.9409 27.6291C28.7521 27.2675 29.4413 26.678 29.925 25.9321C30.4088 25.1861 30.6664 24.3156 30.6667 23.426Z" fill="white"/>
<path d="M18.2401 23.426C18.2399 22.4856 17.9516 21.5679 17.4144 20.7968C16.8772 20.0256 16.1168 19.4382 15.2358 19.1138C15.0924 19.0634 14.9669 18.9721 14.8748 18.851C14.7826 18.7299 14.7279 18.5844 14.7173 18.4325L14.4951 14.4825C14.4903 14.4053 14.5098 14.3285 14.5507 14.2629C14.5916 14.1973 14.6519 14.1462 14.7233 14.1166C15.2692 13.8929 15.7317 13.504 16.0465 13.0043C16.3612 12.5045 16.5124 11.9187 16.479 11.3287C16.4455 10.7387 16.2291 10.1739 15.86 9.71303C15.4908 9.25217 14.9872 8.91828 14.4196 8.75794C14.3453 8.73669 14.2796 8.69271 14.2315 8.63216C14.1834 8.57161 14.1554 8.49751 14.1514 8.42024L13.6737 0.0244925C13.6737 0.0179967 13.6711 0.0117669 13.6665 0.0071737C13.6619 0.00258046 13.6557 0 13.6492 0C13.6428 0 13.6365 0.00258046 13.632 0.0071737C13.6274 0.0117669 13.6248 0.0179967 13.6248 0.0244925L13.1485 8.42024C13.1445 8.49761 13.1164 8.57177 13.0682 8.63233C13.02 8.6929 12.954 8.73682 12.8796 8.75794C12.312 8.91837 11.8085 9.25233 11.4394 9.71323C11.0703 10.1741 10.854 10.739 10.8206 11.329C10.7873 11.919 10.9386 12.5047 11.2534 13.0045C11.5682 13.5042 12.0308 13.893 12.5767 14.1166C12.648 14.1462 12.7084 14.1973 12.7493 14.2629C12.7902 14.3285 12.8096 14.4053 12.8048 14.4825L12.5826 18.4325C12.5722 18.5844 12.5175 18.73 12.4253 18.8511C12.3332 18.9722 12.2076 19.0635 12.0641 19.1138C11.2243 19.4227 10.4931 19.971 9.96053 20.6912C9.42797 21.4114 9.11739 22.2721 9.06707 23.167C9.01675 24.062 9.22889 24.9521 9.67734 25.7277C10.1258 26.5033 10.7909 27.1304 11.5908 27.5318C11.7268 27.5983 11.8403 27.7033 11.9173 27.8338C11.9943 27.9642 12.0315 28.1145 12.0241 28.2659L11.336 40.4038H15.9647L15.2729 28.2659C15.2657 28.1144 15.303 27.9641 15.3801 27.8337C15.4573 27.7032 15.5709 27.5983 15.7069 27.5318C16.4678 27.1504 17.1078 26.5644 17.5552 25.8392C18.0026 25.1141 18.2397 24.2785 18.2401 23.426Z" fill="white"/>
<rect width="39.7266" height="39.728" transform="translate(39.7266 0.337891)" fill="#6C2A00"/>
<g clip-path="url(#clip0_1088_244)">
<path d="M67.2738 21.6059C66.0289 21.1137 64.5832 20.6878 63.3996 20.4638C63.4128 20.2894 63.4128 20.1142 63.3996 19.9398C64.5835 19.7158 66.029 19.2899 67.2735 18.7977C70.6233 17.4733 70.7442 16.4018 70.5177 15.8809C70.2912 15.36 69.4124 14.6839 66.0628 16.0083C64.8186 16.5004 63.4811 17.1748 62.478 17.8151C62.3581 17.6828 62.2283 17.559 62.0896 17.4446C62.7609 16.4874 63.4674 15.2105 63.983 14.0222C65.3704 10.8252 64.6621 9.98583 64.1164 9.77009C63.5707 9.55436 62.4481 9.66982 61.0607 12.8671C60.5451 14.0553 60.0989 15.4353 59.8642 16.5651C59.6815 16.5525 59.498 16.5525 59.3152 16.5651C59.0806 15.4352 58.6344 14.0552 58.1188 12.8674C56.7313 9.66982 55.6088 9.55436 55.0631 9.77009C54.5174 9.98583 53.809 10.8252 55.1965 14.0227C55.7121 15.2108 56.4186 16.4874 57.0894 17.4448C56.951 17.5591 56.8214 17.6829 56.7017 17.8151C55.6989 17.1745 54.3612 16.5 53.1163 16.0078C49.7666 14.6839 48.8873 15.36 48.6613 15.8809C48.4353 16.4018 48.5562 17.4733 51.9058 18.7977C53.1507 19.2899 54.5964 19.7158 55.7799 19.9398C55.7667 20.1142 55.7667 20.2894 55.7799 20.4638C54.5961 20.6878 53.1505 21.1137 51.9061 21.6059C48.5562 22.9303 48.4353 24.0023 48.6613 24.5227C48.8873 25.0431 49.7666 25.7197 53.1163 24.3953C54.3611 23.9032 55.6984 23.2288 56.7015 22.5882C56.8213 22.7205 56.9509 22.8443 57.0894 22.9586C56.4183 23.9159 55.7116 25.1928 55.196 26.381C53.8085 29.5784 54.5169 30.4178 55.0626 30.6335C55.6083 30.8492 56.7309 30.7338 58.1183 27.5364C58.6344 26.3487 59.0806 24.9685 59.3152 23.8389C59.498 23.8515 59.6816 23.8515 59.8644 23.8389C60.0991 24.9689 60.5451 26.3487 61.0607 27.5367C62.4481 30.7338 63.5712 30.8492 64.1164 30.633C64.6616 30.4168 65.3704 29.578 63.983 26.3806C63.4674 25.1924 62.7609 23.9158 62.0897 22.9583C62.2283 22.8439 62.3581 22.7199 62.4779 22.5875C63.4807 23.2283 64.8184 23.9027 66.0633 24.3949C69.4129 25.7193 70.2922 25.0431 70.5182 24.5222C70.7442 24.0014 70.6233 22.9303 67.2738 21.6059Z" fill="#FFD500"/>
</g>
<rect width="39.7266" height="39.728" transform="translate(79.4531 0.337891)" fill="#C4D8E9"/>
<g clip-path="url(#clip1_1088_244)">
<path d="M98.6958 22.3699L96.693 8.06592C94.9332 8.14792 93.275 8.31026 91.7716 8.53964L97.4777 22.8139C97.6708 23.297 97.77 23.812 97.77 24.3317V40.0659H96.8579V24.3527C96.858 23.8257 96.7035 23.31 96.4133 22.8688L87.6029 9.46607C85.246 10.2082 83.8164 11.1758 83.8164 12.2351C83.8164 12.704 84.1008 13.1558 84.6183 13.5778H84.6142L94.7723 22.7373C95.0544 22.9917 95.2799 23.3019 95.4342 23.6479C95.5884 23.994 95.6681 24.3683 95.6681 24.7468V40.0659H98.8605V24.7315C98.8605 23.9415 98.8055 23.1524 98.6958 22.3699Z" fill="#0006A0"/>
<path d="M114.816 12.2351C114.816 11.1764 113.387 10.2082 111.03 9.46607L102.219 22.8688C101.929 23.3101 101.775 23.8257 101.775 24.3527V40.0659H100.863V24.3317C100.863 23.812 100.962 23.2969 101.155 22.8139L106.862 8.53964C105.358 8.31026 103.7 8.14792 101.941 8.06592L99.9371 22.3699C99.8275 23.1524 99.7725 23.9415 99.7725 24.7315V40.0659H102.965V24.7468C102.965 24.3682 103.045 23.9939 103.2 23.6478C103.354 23.3017 103.58 22.9916 103.862 22.7373L114.02 13.5778H114.015C114.532 13.1558 114.816 12.704 114.816 12.2351Z" fill="#0006A0"/>
</g>
<rect width="39.7266" height="39.728" transform="translate(119.18 0.337891)" fill="#FF2A65"/>
<g clip-path="url(#clip2_1088_244)">
<path d="M144.293 10.2019L139.043 15.2019L144.293 20.2019V10.2019Z" fill="white"/>
<path d="M149.543 15.2019L144.293 20.2019L149.543 25.2019V15.2019Z" fill="white"/>
<path d="M144.293 20.2019L139.043 25.2019L144.293 30.2019V20.2019Z" fill="white"/>
<path d="M133.793 10.2019L139.043 15.2019L133.793 20.2019V10.2019Z" fill="white"/>
<path d="M128.543 15.2019L133.793 20.2019L128.543 25.2019V15.2019Z" fill="white"/>
<path d="M133.793 20.2019L139.043 25.2019L133.793 30.2019V20.2019Z" fill="white"/>
</g>
<rect width="39.7266" height="39.728" transform="translate(158.906 0.337891)" fill="#6C2A00"/>
<g clip-path="url(#clip3_1088_244)">
<path d="M186.712 9.06592H170.826C168.586 9.06592 166.77 10.8564 166.77 13.0654C166.77 15.2743 168.586 17.0648 170.826 17.0648C172.74 17.0648 174.344 15.758 174.772 14.0003C175.543 14.9136 176.833 15.7955 178.94 15.7955C180.827 15.7955 182.058 15.089 182.849 14.2858C183.372 15.8979 184.904 17.0659 186.713 17.0659C188.953 17.0659 190.77 15.2753 190.77 13.0665C190.77 10.8577 188.953 9.06592 186.712 9.06592ZM170.826 14.1302C170.613 14.1302 170.404 14.0678 170.226 13.9507C170.048 13.8337 169.91 13.6674 169.828 13.4728C169.746 13.2782 169.725 13.0641 169.767 12.8575C169.808 12.6509 169.911 12.4611 170.062 12.3122C170.213 12.1633 170.406 12.0618 170.615 12.0208C170.825 11.9797 171.042 12.0008 171.24 12.0814C171.437 12.162 171.606 12.2985 171.724 12.4737C171.843 12.6488 171.906 12.8547 171.906 13.0654C171.906 13.2052 171.878 13.3437 171.824 13.4728C171.77 13.602 171.69 13.7194 171.59 13.8183C171.49 13.9172 171.371 13.9956 171.24 14.0491C171.108 14.1026 170.968 14.1302 170.826 14.1302ZM186.712 14.1302C186.499 14.1302 186.29 14.0678 186.112 13.9507C185.935 13.8337 185.796 13.6674 185.714 13.4728C185.633 13.2782 185.611 13.0641 185.653 12.8575C185.694 12.6509 185.797 12.4611 185.948 12.3122C186.099 12.1633 186.292 12.0618 186.502 12.0208C186.711 11.9797 186.928 12.0008 187.126 12.0814C187.323 12.162 187.492 12.2985 187.61 12.4737C187.729 12.6488 187.792 12.8547 187.792 13.0654C187.792 13.2052 187.764 13.3437 187.71 13.4728C187.656 13.602 187.576 13.7194 187.476 13.8183C187.376 13.9172 187.257 13.9956 187.126 14.0491C186.995 14.1026 186.854 14.1302 186.712 14.1302Z" fill="#C6BDAB"/>
<path d="M186.128 18.0659H171.411C170.781 18.0659 170.27 18.7375 170.27 19.5659C170.27 20.3943 170.781 21.0659 171.411 21.0659H186.128C186.758 21.0659 187.27 20.3943 187.27 19.5659C187.27 18.7375 186.758 18.0659 186.128 18.0659Z" fill="#C6BDAB"/>
<path d="M182.669 22.0659L181.37 24.3467L180.07 22.0659L178.769 24.3467L177.47 22.0659L176.17 24.3467L174.869 22.0659L173.569 24.3467L172.27 22.0659V40.0659H185.27V22.0659L183.97 24.3467L182.669 22.0659Z" fill="#C6BDAB"/>
</g>
<defs>
<clipPath id="clip0_1088_244">
<rect width="22" height="21" fill="white" transform="translate(48.5898 9.7019)"/>
</clipPath>
<clipPath id="clip1_1088_244">
<rect width="31" height="32" fill="white" transform="translate(83.8164 8.06592)"/>
</clipPath>
<clipPath id="clip2_1088_244">
<rect width="21" height="20" fill="white" transform="translate(128.543 10.2019)"/>
</clipPath>
<clipPath id="clip3_1088_244">
<rect width="24" height="31" fill="white" transform="translate(166.77 9.06592)"/>
</clipPath>
</defs>
</svg>
