<svg width="168" height="46" viewBox="0 0 168 46" fill="none" xmlns="http://www.w3.org/2000/svg">
<g clip-path="url(#clip0_634_1762)">
<path d="M167.091 0H0V45.2557H167.091V0Z" fill="#C4D8E9"/>
<path d="M20.8989 20.2289L18.0842 0C15.7706 0.10222 13.4638 0.325313 11.1734 0.668364L19.1879 20.8554C19.4591 21.5385 19.5983 22.2668 19.5981 23.0017V45.2557H18.3173V23.0326C18.3172 22.2874 18.1004 21.5582 17.6933 20.934L5.3185 1.98003C2.00509 3.02936 0 4.39783 0 5.8958C0 6.56417 0.399347 7.19828 1.12619 7.79479H1.12034L15.3882 20.7485C15.7841 21.1083 16.1005 21.5468 16.3172 22.036C16.5338 22.5251 16.646 23.0541 16.6464 23.5891V45.2557H21.1303V23.569C21.1301 22.4516 21.0528 21.3356 20.8989 20.2289Z" fill="#0006A0"/>
<path d="M43.5413 5.8958C43.5413 4.39783 41.5362 3.02936 38.2228 1.98003L25.8481 20.9348C25.4409 21.5591 25.2241 22.2882 25.224 23.0335V45.2566H23.9432V23.0034C23.9435 22.2685 24.0826 21.5403 24.3534 20.8571L32.3679 0.668364C30.0775 0.325313 27.7708 0.10222 25.4571 0L22.6416 20.2297C22.4871 21.3369 22.4098 22.4536 22.4102 23.5715V45.2557H26.8949V23.5907C26.8953 23.0558 27.0075 22.5268 27.2241 22.0377C27.4408 21.5485 27.7572 21.11 28.1531 20.7502L42.4201 7.80064H42.4134C43.142 7.19828 43.5413 6.55999 43.5413 5.8958Z" fill="#0006A0"/>
<path d="M82.6743 20.2289L79.8596 0C77.5459 0.10222 75.2392 0.325313 72.9488 0.668364L80.9633 20.8554C81.2347 21.539 81.3739 22.2679 81.3735 23.0034V45.2557H80.0927V23.0326C80.0926 22.2874 79.8758 21.5582 79.4686 20.934L67.0939 1.98003C63.783 3.02936 61.7754 4.39783 61.7754 5.8958C61.7754 6.56417 62.1747 7.19828 62.9016 7.79479H62.8957L77.1636 20.7485C77.5595 21.1083 77.8759 21.5468 78.0926 22.036C78.3092 22.5251 78.4214 23.0541 78.4218 23.5891V45.2557H82.9057V23.569C82.9055 22.4516 82.8282 21.3356 82.6743 20.2289Z" fill="#0006A0"/>
<path d="M105.315 5.8958C105.315 4.39783 103.31 3.02936 99.9965 1.98003L87.6218 20.9348C87.2147 21.5591 86.9978 22.2882 86.9977 23.0335V45.2566H85.7169V23.0034C85.7172 22.2685 85.8564 21.5403 86.1271 20.8571L94.1417 0.668364C91.8513 0.325313 89.5445 0.10222 87.2308 0L84.417 20.2297C84.2625 21.3369 84.1852 22.4536 84.1855 23.5715V45.2557H88.6703V23.5907C88.6707 23.0558 88.7829 22.5268 88.9995 22.0377C89.2162 21.5485 89.5326 21.11 89.9285 20.7502L104.196 7.80064H104.189C104.916 7.19828 105.315 6.55999 105.315 5.8958Z" fill="#0006A0"/>
<path d="M144.451 20.2289L141.635 0C139.321 0.10222 137.015 0.325313 134.724 0.668364L142.739 20.8554C143.01 21.5385 143.149 22.2668 143.149 23.0017V45.2557H141.868V23.0326C141.868 22.2874 141.651 21.5582 141.244 20.934L128.869 1.98003C125.558 3.02936 123.551 4.39783 123.551 5.8958C123.551 6.56417 123.95 7.19828 124.677 7.79479H124.671L138.937 20.7485C139.332 21.1083 139.649 21.5468 139.865 22.036C140.082 22.5251 140.194 23.0541 140.195 23.5891V45.2557H144.678V23.569C144.679 22.4517 144.603 21.3357 144.451 20.2289Z" fill="#0006A0"/>
<path d="M167.09 5.8958C167.09 4.39783 165.085 3.02936 161.772 1.98003L149.397 20.9348C148.99 21.5591 148.773 22.2882 148.773 23.0335V45.2566H147.492V23.0034C147.493 22.2685 147.632 21.5403 147.903 20.8571L155.917 0.668364C153.627 0.325313 151.32 0.10222 149.006 0L146.192 20.2297C146.038 21.3369 145.961 22.4536 145.961 23.5715V45.2557H150.446V23.5907C150.446 23.0558 150.558 22.5268 150.775 22.0377C150.992 21.5485 151.308 21.11 151.704 20.7502L165.971 7.80064H165.964C166.691 7.19828 167.09 6.55999 167.09 5.8958Z" fill="#0006A0"/>
<path d="M51.7856 38.7977L48.971 18.5688C46.6573 18.6711 44.3505 18.8942 42.0601 19.2372L50.0746 39.4243C50.3459 40.1073 50.4851 40.8356 50.4848 41.5706V45.2541H49.2074V41.6057C49.2073 40.8604 48.9904 40.1313 48.5833 39.507L36.2052 20.5522C32.8943 21.6015 30.8867 22.97 30.8867 24.468C30.8867 25.1322 31.2861 25.7705 32.0129 26.367H32.0071L46.275 39.3174C46.6708 39.6772 46.9872 40.1157 47.2039 40.6048C47.4205 41.094 47.5327 41.6229 47.5332 42.1579V45.2541H52.017V42.1378C52.0168 41.0205 51.9395 39.9044 51.7856 38.7977Z" fill="#0006A0"/>
<path d="M74.4283 24.4646C74.4283 22.9666 72.4232 21.5981 69.1098 20.5488L56.7351 39.5036C56.3273 40.1288 56.1105 40.8592 56.111 41.6056V45.259H54.8302V41.5722C54.8304 40.8373 54.9696 40.109 55.2404 39.4259L63.2549 19.2388C60.9645 18.8957 58.6578 18.6727 56.3441 18.5704L53.5302 38.7976C53.3759 39.9049 53.2985 41.0215 53.2988 42.1394V45.2574H57.7835V42.1595C57.784 41.6245 57.8962 41.0955 58.1128 40.6064C58.3295 40.1173 58.6459 39.6788 59.0417 39.3189L73.3088 26.3694H73.3021C74.029 25.767 74.4283 25.1288 74.4283 24.4646Z" fill="#0006A0"/>
<path d="M113.561 38.7977L110.746 18.5688C108.433 18.6711 106.126 18.8942 103.835 19.2372L111.85 39.4243C112.121 40.1073 112.26 40.8356 112.26 41.5706V45.2541H110.979V41.6057C110.979 40.8604 110.762 40.1313 110.355 39.507L97.9806 20.5522C94.6697 21.6015 92.6621 22.97 92.6621 24.468C92.6621 25.1322 93.0615 25.7705 93.7883 26.367H93.7825L108.05 39.3207C108.446 39.6805 108.763 40.119 108.979 40.6082C109.196 41.0973 109.308 41.6263 109.309 42.1612V45.2574H113.788V42.1378C113.789 41.0206 113.713 39.9045 113.561 38.7977Z" fill="#0006A0"/>
<path d="M136.203 24.4646C136.203 22.9666 134.198 21.5981 130.885 20.5488L118.51 39.5036C118.101 40.1284 117.883 40.8588 117.882 41.6056V45.259H116.602V41.5722C116.602 40.8373 116.741 40.109 117.012 39.4259L125.026 19.2388C122.736 18.8957 120.429 18.6727 118.116 18.5704L115.302 38.7993C115.147 39.9065 115.07 41.0232 115.07 42.1411V45.259H119.555V42.1595C119.556 41.6245 119.668 41.0955 119.884 40.6064C120.101 40.1173 120.417 39.6788 120.813 39.3189L135.08 26.3694H135.074C135.804 25.767 136.203 25.1288 136.203 24.4646Z" fill="#0006A0"/>
</g>
<defs>
<clipPath id="clip0_634_1762">
<rect width="167.091" height="45.2557" fill="white"/>
</clipPath>
</defs>
</svg>
