<svg width="89" height="80" viewBox="0 0 89 80" fill="none" xmlns="http://www.w3.org/2000/svg">
<path d="M88.3682 0H0V80H88.3682V0Z" fill="#632E05"/>
<path d="M59.9985 49.7822L56.0414 42.9163L52.0885 49.7822L48.1356 42.9163L44.1827 49.7822L40.2298 42.9163L36.2727 49.7822L32.3198 42.9163L28.367 49.7822L24.4141 42.9163V79.9999H63.9514V42.9163L59.9985 49.7822Z" fill="#C4BFAD"/>
<path d="M22.6342 33.95H65.725C66.547 34.0427 67.3062 34.4358 67.8575 35.0543C68.4088 35.6727 68.7136 36.4733 68.7136 37.3029C68.7136 38.1325 68.4088 38.933 67.8575 39.5515C67.3062 40.17 66.547 40.5631 65.725 40.6557H22.6342C22.1637 40.7087 21.6873 40.6615 21.2363 40.5172C20.7852 40.3729 20.3696 40.1347 20.0166 39.8182C19.6636 39.5018 19.3812 39.1141 19.1878 38.6807C18.9945 38.2472 18.8945 37.7777 18.8945 37.3029C18.8945 36.828 18.9945 36.3585 19.1878 35.9251C19.3812 35.4916 19.6636 35.104 20.0166 34.7875C20.3696 34.471 20.7852 34.2329 21.2363 34.0885C21.6873 33.9442 22.1637 33.897 22.6342 33.95Z" fill="#C4BFAD"/>
<path d="M60.1114 16.9202C60.1114 16.9202 57.5883 28.3072 44.6825 28.3072C31.7767 28.3072 29.2578 16.9202 29.2578 16.9202" fill="#C4BFAD"/>
<path d="M67.6266 8.11011H20.7344L26.8277 20.1171H60.482L67.6266 8.11011Z" fill="#C4BFAD"/>
<path d="M67.6287 23.3139C66.9985 23.313 66.3826 23.1248 65.859 22.7731C65.3354 22.4213 64.9275 21.9217 64.6868 21.3375C64.4462 20.7533 64.3837 20.1107 64.5072 19.4908C64.6306 18.871 64.9346 18.3018 65.3805 17.8551C65.8265 17.4084 66.3944 17.1044 67.0126 16.9814C67.6309 16.8584 68.2715 16.9219 68.8537 17.164C69.436 17.4061 69.9335 17.8158 70.2836 18.3415C70.6337 18.8671 70.8205 19.485 70.8205 20.1171C70.8205 20.5372 70.7379 20.9533 70.5775 21.3414C70.417 21.7295 70.1818 22.0821 69.8854 22.379C69.589 22.6759 69.2371 22.9113 68.8499 23.0717C68.4626 23.2321 68.0477 23.3144 67.6287 23.3139ZM67.6287 8.1312C65.259 8.1312 62.9424 8.83629 60.9724 10.1572C59.0023 11.4781 57.4673 13.3555 56.5616 15.5518C55.6559 17.748 55.4202 20.1643 55.8843 22.495C56.3485 24.8256 57.4916 26.9657 59.1691 28.6445C60.8466 30.3233 62.9829 31.4652 65.3078 31.9258C67.6326 32.3864 70.0415 32.145 72.2294 31.232C74.4174 30.319 76.2861 28.7756 77.5991 26.797C78.912 24.8184 79.6102 22.4937 79.6052 20.1171C79.6052 18.5399 79.2954 16.9783 78.6935 15.5212C78.0915 14.0642 77.2093 12.7404 76.0971 11.6254C74.9849 10.5104 73.6646 9.62603 72.2116 9.02287C70.7586 8.41971 69.2013 8.10955 67.6287 8.11011" fill="#C4BFAD"/>
<path d="M20.7342 23.3139C20.104 23.313 19.4881 23.1248 18.9645 22.7731C18.4408 22.4213 18.0329 21.9217 17.7923 21.3375C17.5517 20.7533 17.4892 20.1107 17.6126 19.4908C17.7361 18.871 18.04 18.3018 18.486 17.8551C18.9319 17.4084 19.4999 17.1044 20.1181 16.9814C20.7363 16.8584 21.377 16.9219 21.9592 17.164C22.5414 17.4061 23.039 17.8158 23.3891 18.3415C23.7391 18.8671 23.926 19.485 23.926 20.1171C23.926 20.5372 23.8434 20.9533 23.6829 21.3414C23.5225 21.7295 23.2873 22.0821 22.9909 22.379C22.6944 22.6759 22.3426 22.9113 21.9553 23.0717C21.5681 23.2321 21.1532 23.3144 20.7342 23.3139ZM20.7342 8.1312C18.3644 8.1312 16.0479 8.83629 14.0779 10.1572C12.1078 11.4781 10.5728 13.3555 9.66705 15.5518C8.76132 17.748 8.52563 20.1643 8.9898 22.495C9.45396 24.8256 10.5971 26.9657 12.2746 28.6445C13.952 30.3233 16.0884 31.4652 18.4132 31.9258C20.7381 32.3864 23.147 32.145 25.3349 31.232C27.5229 30.319 29.3916 28.7756 30.7045 26.797C32.0175 24.8184 32.7156 22.4937 32.7106 20.1171C32.7106 18.5399 32.4008 16.9783 31.7989 15.5212C31.197 14.0642 30.3147 12.7404 29.2026 11.6254C28.0904 10.5104 26.7701 9.62603 25.3171 9.02287C23.8641 8.41971 22.3068 8.10955 20.7342 8.11011" fill="#C4BFAD"/>
</svg>
