<svg width="88" height="80" viewBox="0 0 88 80" fill="none" xmlns="http://www.w3.org/2000/svg">
<path d="M88 0H0V79.4362H88V0Z" fill="#632E05"/>
<path d="M66.7493 49.5906C64.7971 49.5906 62.8888 49.0117 61.2656 47.9271C59.6424 46.8426 58.3773 45.301 57.6303 43.4975C56.8832 41.6939 56.6877 39.7093 57.0686 37.7946C57.4494 35.88 58.3895 34.1212 59.7699 32.7408C61.1503 31.3604 62.909 30.4204 64.8237 30.0395C66.7383 29.6587 68.7229 29.8541 70.5265 30.6012C72.3301 31.3483 73.8716 32.6134 74.9562 34.2365C76.0408 35.8597 76.6197 37.7681 76.6197 39.7202C76.6197 42.338 75.5797 44.8486 73.7287 46.6996C71.8776 48.5507 69.3671 49.5906 66.7493 49.5906Z" fill="#C9D9E8"/>
<path d="M21.2454 49.5906C19.2932 49.5906 17.3849 49.0117 15.7617 47.9271C14.1385 46.8426 12.8734 45.301 12.1263 43.4975C11.3793 41.6939 11.1838 39.7093 11.5647 37.7946C11.9455 35.88 12.8856 34.1212 14.266 32.7408C15.6464 31.3604 17.4051 30.4204 19.3198 30.0395C21.2344 29.6587 23.219 29.8541 25.0226 30.6012C26.8262 31.3483 28.3677 32.6134 29.4523 34.2365C30.5369 35.8597 31.1158 37.7681 31.1158 39.7202C31.1158 41.0164 30.8604 42.2999 30.3644 43.4975C29.8684 44.695 29.1413 45.7831 28.2248 46.6996C27.3082 47.6162 26.2201 48.3432 25.0226 48.8393C23.8251 49.3353 22.5416 49.5906 21.2454 49.5906Z" fill="#C9D9E8"/>
<path d="M53.8736 16.9642C53.8736 18.9166 53.2946 20.8251 52.2098 22.4484C51.1251 24.0716 49.5833 25.3367 47.7794 26.0837C45.9756 26.8306 43.9908 27.0258 42.0761 26.6447C40.1613 26.2635 38.4025 25.323 37.0223 23.9422C35.6421 22.5614 34.7023 20.8022 34.322 18.8873C33.9416 16.9723 34.1377 14.9876 34.8854 13.1841C35.6331 11.3806 36.8988 9.83936 38.5226 8.75529C40.1463 7.67123 42.055 7.09304 44.0074 7.09387C45.3034 7.09387 46.5867 7.34921 47.784 7.84529C48.9813 8.34138 50.0691 9.06849 50.9853 9.98509C51.9015 10.9017 52.6282 11.9898 53.1238 13.1873C53.6193 14.3848 53.8741 15.6682 53.8736 16.9642Z" fill="#C9D9E8"/>
<path d="M53.8736 62.4718C53.8736 64.4242 53.2946 66.3327 52.2098 67.9559C51.1251 69.5792 49.5833 70.8443 47.7794 71.5912C45.9756 72.3382 43.9908 72.5334 42.0761 72.1522C40.1613 71.771 38.4025 70.8306 37.0223 69.4497C35.6421 68.0689 34.7023 66.3098 34.322 64.3949C33.9416 62.4799 34.1377 60.4952 34.8854 58.6917C35.6331 56.8882 36.8988 55.3469 38.5226 54.2629C40.1463 53.1788 42.055 52.6006 44.0074 52.6014C45.3034 52.6014 46.5867 52.8568 47.784 53.3529C48.9813 53.8489 50.0691 54.5761 50.9853 55.4927C51.9015 56.4093 52.6282 57.4974 53.1238 58.6949C53.6193 59.8924 53.8741 61.1758 53.8736 62.4718Z" fill="#C9D9E8"/>
</svg>
