<svg width="89" height="81" viewBox="0 0 89 81" fill="none" xmlns="http://www.w3.org/2000/svg">
<path d="M88.3682 0H0V80H88.3682V0Z" fill="#8AB2F5"/>
<path d="M41.0945 47.6566C41.0988 45.7544 40.4856 43.9025 39.3476 42.3808C38.2096 40.8591 36.6087 39.7502 34.7866 39.2218C34.5021 39.1443 34.2479 38.9817 34.0578 38.7557C33.8678 38.5296 33.7509 38.2509 33.7227 37.9566L32.3518 19.2734L30.9978 37.9566C30.9708 38.2513 30.8543 38.5306 30.664 38.7568C30.4738 38.9831 30.2189 39.1454 29.9338 39.2218C28.2032 39.713 26.666 40.7281 25.5322 42.1283C24.3983 43.5286 23.7232 45.2458 23.599 47.0453C23.4748 48.8448 23.9075 50.6389 24.8381 52.1825C25.7687 53.7261 27.1518 54.944 28.7984 55.6697C29.0595 55.7905 29.2773 55.9887 29.4224 56.2376C29.5676 56.4864 29.633 56.774 29.61 57.0614L27.928 80.0168H36.7589L35.0768 57.0614C35.0538 56.774 35.1193 56.4864 35.2644 56.2376C35.4096 55.9887 35.6274 55.7905 35.8884 55.6697C37.4334 54.9804 38.7459 53.8565 39.667 52.4343C40.588 51.0121 41.078 49.3525 41.0776 47.6566" fill="white"/>
<path d="M64.757 47.6567C64.7567 45.8643 64.2082 44.1152 63.1855 42.6454C62.1628 41.1755 60.7152 40.0557 59.0379 39.4369C58.7642 39.3416 58.5246 39.1676 58.3489 38.9366C58.1732 38.7056 58.0691 38.4279 58.0497 38.138L57.6292 30.6099C57.6188 30.4645 57.6538 30.3195 57.7291 30.1949C57.8044 30.0703 57.9164 29.9721 58.0497 29.914C59.0934 29.4892 59.9783 28.7475 60.5804 27.7928C61.1826 26.8381 61.4717 25.7184 61.4072 24.5906C61.3428 23.4628 60.928 22.3835 60.221 21.5041C59.5141 20.6247 58.5504 19.9892 57.4651 19.6868C57.3243 19.6465 57.1995 19.5631 57.1082 19.4481C57.017 19.3332 56.9639 19.1925 56.9563 19.0458L56.0606 3.04493C56.0606 3.03262 56.0557 3.02082 56.0471 3.01212C56.0384 3.00342 56.0266 2.99854 56.0143 2.99854C56.0021 2.99854 55.9903 3.00342 55.9816 3.01212C55.973 3.02082 55.9681 3.03262 55.9681 3.04493L55.0598 19.0458C55.0522 19.1925 54.9991 19.3332 54.9079 19.4481C54.8166 19.5631 54.6918 19.6465 54.5509 19.6868C53.4702 19.9927 52.5115 20.6291 51.8085 21.5074C51.1056 22.3858 50.6935 23.4622 50.6296 24.5866C50.5657 25.711 50.8533 26.8274 51.4522 27.7801C52.0511 28.7328 52.9315 29.4744 53.9706 29.9014C54.1039 29.9595 54.2159 30.0576 54.2912 30.1822C54.3665 30.3069 54.4014 30.4519 54.3911 30.5972L53.9706 38.1253C53.951 38.4145 53.8473 38.6917 53.6725 38.9225C53.4976 39.1533 53.2592 39.3278 52.9866 39.4243C51.3916 40.0145 50.0032 41.0591 48.9921 42.4299C47.981 43.8006 47.3912 45.4377 47.2952 47.1401C47.1991 48.8424 47.6011 50.5358 48.4515 52.0121C49.302 53.4885 50.564 54.6836 52.0825 55.4504C52.3446 55.5748 52.5643 55.774 52.7139 56.0231C52.8635 56.2722 52.9365 56.5601 52.9235 56.8506L51.6115 79.9831H60.4424L59.1304 56.8506C59.1175 56.5601 59.1904 56.2722 59.34 56.0231C59.4897 55.774 59.7093 55.5748 59.9715 55.4504C61.4087 54.7209 62.6166 53.6066 63.4612 52.231C64.3059 50.8554 64.7544 49.2722 64.757 47.6567Z" fill="white"/>
</svg>
