<svg width="88" height="80" viewBox="0 0 88 80" fill="none" xmlns="http://www.w3.org/2000/svg">
<path d="M88 0H0V79.4362H88V0Z" fill="#C9D9E8"/>
<path d="M42.6083 39.4312L38.1107 7.09387C34.4122 7.25928 30.7249 7.61711 27.0636 8.16592L39.8737 40.4362C40.3063 41.528 40.5293 42.6915 40.5312 43.8659V79.4361H38.4834V43.9162C38.483 42.7258 38.1352 41.5615 37.4826 40.566L17.7041 10.2598C12.4109 11.9348 9.20312 14.125 9.20312 16.5413C9.20312 17.605 9.83966 18.6351 10.9996 19.5774L33.7974 40.2645C34.4319 40.8391 34.939 41.5403 35.286 42.3229C35.6329 43.1055 35.812 43.9521 35.8117 44.8082V79.4403H42.9768V44.7705C42.9775 42.9843 42.8544 41.2003 42.6083 39.4312Z" fill="#000599"/>
<path d="M78.8013 16.5203C78.8013 14.125 75.5894 11.939 70.3003 10.2388L50.5177 40.5618C49.8681 41.5585 49.5219 42.7223 49.521 43.912V79.4319H47.4732V43.8659C47.473 42.6913 47.6961 41.5274 48.1307 40.4362L60.9408 8.16592C57.274 7.61653 53.5811 7.2587 49.877 7.09387L45.392 39.4312C45.148 41.2005 45.0248 42.9844 45.0234 44.7705V79.4361H52.1928V44.8082C52.193 43.9532 52.372 43.1077 52.7181 42.326C53.0643 41.5443 53.57 40.8435 54.2029 40.2687L77.0132 19.5564C78.1731 18.6016 78.8139 17.584 78.8139 16.5203" fill="#000599"/>
</svg>
