<svg width="88" height="80" viewBox="0 0 88 80" fill="none" xmlns="http://www.w3.org/2000/svg">
<path d="M88 0H0V79.4362H88V0Z" fill="#C9D9E8"/>
<path d="M32.3152 4.29663C61.3652 20.4695 72.8646 43.1583 77.3077 54.8797L77.0062 55.1979C73.8655 54.2725 51.7796 48.1333 31.2935 61.2994L30.9375 61.0774C33.7181 46.2782 41.3648 25.6622 31.9425 4.57721L32.3152 4.29663Z" fill="#632E05"/>
<path d="M10.6824 18.3296C39.4309 29.963 42.668 54.5782 42.668 54.5824L42.2492 54.7792C40.6202 53.3638 29.7071 49.0798 17.5879 51.9525L17.2697 51.6845C18.6558 35.8215 12.3114 22.4461 10.293 18.652L10.6824 18.3296Z" fill="#632E05"/>
<path d="M77.706 55.4451L68.2837 75.1272H21.9553C21.9553 75.1272 13.6093 65.06 12.332 62.3967L12.7508 61.7894C26.7377 63.3389 68.8281 62.3087 77.2411 54.7834C77.4715 55.1268 77.4631 55.1101 77.6934 55.4493" fill="#632E05"/>
</svg>
