<svg width="89" height="80" viewBox="0 0 89 80" fill="none" xmlns="http://www.w3.org/2000/svg">
<path d="M88.3682 0H0V80H88.3682V0Z" fill="#632E05"/>
<path d="M53.7148 36.0419C54.4949 37.9331 54.6984 40.0139 54.2995 42.0211C53.9006 44.0283 52.9172 45.8719 51.4737 47.3187C50.0303 48.7654 48.1915 49.7505 46.1898 50.1493C44.1882 50.5481 42.1135 50.3428 40.2282 49.5593C38.3429 48.7757 36.7316 47.4491 35.598 45.7473C34.4644 44.0454 33.8593 42.0447 33.8594 39.998C33.8594 37.9513 34.4646 35.9506 35.5983 34.2487C36.732 32.5469 38.3433 31.2204 40.2287 30.437C41.4811 29.9165 42.8235 29.6487 44.1792 29.6487C45.5349 29.6487 46.8772 29.9166 48.1296 30.4371C49.382 30.9576 50.5199 31.7205 51.4783 32.6822C52.4366 33.6439 53.1966 34.7855 53.7148 36.0419Z" fill="#FFD92E"/>
<path d="M42.7434 36.5184C43.5466 36.1852 44.5012 35.1182 43.4541 29.7706C42.701 26.1497 41.6128 22.6072 40.2034 19.1891C36.4566 10.1132 33.4205 9.78428 31.9486 10.3958C30.4768 11.0073 28.5592 13.3944 32.3061 22.4702C33.7218 25.8863 35.4505 29.1632 37.4701 32.2588C40.5104 36.7883 41.936 36.8685 42.7434 36.5311" fill="#FFD92E"/>
<path d="M45.6178 43.4815C44.8104 43.8188 43.86 44.8816 44.9071 50.2293C45.6582 53.8507 46.7465 57.3934 48.1577 60.8108C51.9046 69.8909 54.9407 70.2156 56.4126 69.6041C57.8844 68.9925 59.802 66.6097 56.0551 57.5296C54.6394 54.1149 52.9107 50.8394 50.8911 47.7453C47.8508 43.2115 46.4252 43.1356 45.6178 43.4688" fill="#FFD92E"/>
<path d="M40.7086 41.4445C40.3764 40.6348 39.3125 39.6774 33.9803 40.7275C30.3699 41.4828 26.8377 42.5742 23.4295 43.9876C14.3799 47.7453 14.0518 50.7903 14.6616 52.2664C15.2714 53.7425 17.6473 55.6656 26.7011 51.9079C30.1064 50.489 33.3725 48.7552 36.4572 46.7289C40.9778 43.6797 41.0577 42.25 40.7213 41.4445" fill="#FFD92E"/>
<path d="M47.6542 38.5599C47.9864 39.3696 49.0503 40.3227 54.3825 39.2726C57.9934 38.5193 61.5258 37.4279 64.9334 36.0126C73.9872 32.2548 74.311 29.2141 73.7013 27.7338C73.0915 26.2535 70.7156 24.3346 61.6618 28.0965C58.2558 29.5123 54.9895 31.2448 51.9056 33.2712C47.385 36.3204 47.3093 37.7501 47.6416 38.5599" fill="#FFD92E"/>
<path d="M40.7085 38.5599C41.0449 37.7501 40.965 36.3204 36.4444 33.2755C33.3616 31.246 30.0952 29.512 26.6883 28.0965C17.6345 24.3346 15.2586 26.2535 14.6488 27.7338C14.0391 29.2141 14.3797 32.2548 23.4167 36.0168C26.8243 37.4308 30.3568 38.5208 33.9676 39.2726C39.3124 40.3227 40.3763 39.3696 40.6959 38.5599" fill="#FFD92E"/>
<path d="M47.6533 41.4445C47.3211 42.2542 47.3968 43.6797 51.9174 46.7289C55.0002 48.7584 58.2666 50.4923 61.6734 51.9079C70.7272 55.6656 73.1032 53.7467 73.7129 52.2664C74.3227 50.7861 73.9989 47.7453 64.9451 43.9876C61.5369 42.5742 58.0046 41.4828 54.3942 40.7275C49.0494 39.6774 47.9855 40.6348 47.6659 41.4445" fill="#FFD92E"/>
<path d="M42.7447 43.4815C41.9373 43.1483 40.5118 43.2242 37.4714 47.7579C35.4518 50.8521 33.7231 54.1276 32.3074 57.5423C28.5606 66.6224 30.474 69.0053 31.95 69.6168C33.426 70.2283 36.4579 69.9036 40.2048 60.8235C41.6141 57.4054 42.7024 53.8629 43.4554 50.242C44.5025 44.8817 43.5479 43.8189 42.7447 43.4941" fill="#FFD92E"/>
<path d="M45.6178 36.5185C46.4252 36.8559 47.8508 36.7757 50.8911 32.2462C52.9107 29.1506 54.6394 25.8737 56.0551 22.4576C59.802 13.3818 57.8886 10.9989 56.4126 10.3832C54.9365 9.76745 51.9046 10.1006 48.1577 19.1765C46.7465 22.5939 45.6582 26.1366 44.9071 29.758C43.86 35.1183 44.8104 36.1853 45.6178 36.5058" fill="#FFD92E"/>
</svg>
