<svg width="89" height="80" viewBox="0 0 89 80" fill="none" xmlns="http://www.w3.org/2000/svg">
<path d="M88.3682 0H0V80H88.3682V0Z" fill="#AB78FF"/>
<path d="M62.2057 23.5836L48.2781 14.803H5.46484V17.0972L43.2276 40.875L19.0603 62.8899L21.3437 65.1968C21.3437 65.1968 58.9172 64.3153 69.0308 51.9077C72.1048 48.1121 73.3285 43.6838 73.236 38.412C73.1811 36.5175 73.5866 34.6381 74.4174 32.9357C75.2481 31.2333 76.4793 29.7592 78.0047 28.6403C79.4975 27.5691 80.7128 27.3118 82.6304 28.0288C83.3074 26.1098 82.8196 24.8573 80.5278 23.2167C77.2814 19.5686 71.7894 14.9042 62.252 23.5794" fill="#632E05"/>
</svg>
