<svg width="89" height="81" viewBox="0 0 89 81" fill="none" xmlns="http://www.w3.org/2000/svg">
<path d="M88.3682 0H0V80H88.3682V0Z" fill="#FFD92E"/>
<path d="M62.8525 31.9174C62.2399 31.9194 61.651 31.6801 61.2125 31.2511L58.3866 28.4971C56.6513 26.8212 55.6076 24.5523 55.4627 22.1406C55.3178 19.7289 56.0823 17.3507 57.6044 15.478L59.501 13.1204C59.9019 12.6682 60.461 12.3878 61.0623 12.3375C61.6636 12.2872 62.2612 12.4707 62.7314 12.8501C63.2015 13.2295 63.5082 13.7756 63.5879 14.3755C63.6676 14.9754 63.5142 15.583 63.1595 16.0726L61.263 18.4259C60.4816 19.3858 60.0888 20.6053 60.1628 21.8423C60.2369 23.0792 60.7722 24.2429 61.6625 25.1021L64.4884 27.8603C64.8245 28.1865 65.0558 28.606 65.1525 29.0649C65.2492 29.5239 65.2069 30.0014 65.0311 30.436C64.8553 30.8707 64.5539 31.2428 64.1658 31.5045C63.7776 31.7662 63.3203 31.9056 62.8525 31.9048" fill="#632E05"/>
<path d="M25.5283 31.9172C25.0612 31.9168 24.6047 31.7768 24.2173 31.5151C23.8298 31.2534 23.5288 30.8818 23.3529 30.4478C23.1769 30.0138 23.1338 29.5371 23.2292 29.0784C23.3246 28.6198 23.554 28.2 23.8883 27.8727L26.7142 25.1145C27.6067 24.2576 28.1453 23.0954 28.2232 21.8587C28.3011 20.6221 27.9126 19.4012 27.1347 18.4384L25.2382 16.0851C24.8835 15.5955 24.7301 14.9878 24.8098 14.388C24.8895 13.7881 25.1962 13.2419 25.6663 12.8625C26.1365 12.4832 26.7341 12.2996 27.3354 12.35C27.9367 12.4003 28.4958 12.6806 28.8967 13.1329L30.7933 15.4904C32.3139 17.364 33.0771 19.7423 32.9315 22.1538C32.7858 24.5652 31.742 26.8337 30.0069 28.5096L27.181 31.2635C26.7443 31.6927 26.1566 31.9321 25.5452 31.9299" fill="#632E05"/>
<path d="M37.7852 76.9678H50.5816V78.6547C50.5822 78.8338 50.5474 79.0112 50.4793 79.1767C50.4113 79.3422 50.3112 79.4926 50.185 79.6192C50.0588 79.7458 49.9088 79.8461 49.7438 79.9144C49.5787 79.9827 49.4019 80.0175 49.2233 80.017H39.1518C38.7916 80.017 38.4461 79.8734 38.1914 79.618C37.9367 79.3625 37.7936 79.016 37.7936 78.6547L37.7852 76.9678Z" fill="#632E05"/>
<path d="M72.3113 35.4515L57.4712 20.99C56.3596 19.9059 55.4756 18.6097 54.8711 17.1778C54.2666 15.7459 53.9539 14.2071 53.9514 12.6522V10.1681C54.5094 10.0908 55.0176 9.80438 55.3736 9.36652C55.7296 8.92866 55.9071 8.37183 55.8704 7.80805C55.8336 7.24427 55.5853 6.71536 55.1754 6.32774C54.7656 5.94011 54.2246 5.72253 53.6612 5.71875H34.7084C34.1454 5.72354 33.605 5.94184 33.1959 6.32981C32.7869 6.71777 32.5393 7.24663 32.5031 7.81012C32.4669 8.37361 32.6447 8.92997 33.0007 9.36739C33.3568 9.80481 33.8647 10.0909 34.4224 10.1681V12.6564C34.4179 14.2085 34.1042 15.7442 33.4998 17.1731C32.8953 18.602 32.0124 19.8954 30.9027 20.9773L16.0583 35.4515C15.6527 35.8474 15.334 36.3238 15.1226 36.8503C14.9111 37.3768 14.8116 37.9418 14.8304 38.5091C15.7723 68.7943 37.7866 78.4859 37.7866 78.4859H50.583C50.583 78.4859 72.6015 68.7859 73.5435 38.5091C73.5604 37.9417 73.4596 37.3769 73.2475 36.8505C73.0354 36.3242 72.7166 35.8478 72.3113 35.4515Z" fill="#632E05"/>
</svg>
