<svg width="272" height="74" viewBox="0 0 272 74" fill="none" xmlns="http://www.w3.org/2000/svg">
<g clip-path="url(#clip0_158_424)">
<path d="M271.714 0H0V72.7233H271.714V0Z" fill="#7EB3F9"/>
<path d="M53.231 42.3715C53.2305 40.5673 52.6363 38.8122 51.5379 37.371C50.4395 35.9298 48.8966 34.8808 47.1419 34.3821C46.8665 34.3089 46.6205 34.1537 46.4375 33.9375C46.2544 33.7213 46.1432 33.4547 46.1189 33.1738L44.8133 15.4525L43.5078 33.1738C43.4837 33.4547 43.3725 33.7215 43.1895 33.9377C43.0064 34.1539 42.7603 34.3091 42.4847 34.3821C40.825 34.854 39.3523 35.8192 38.2667 37.1466C37.1811 38.474 36.5351 40.0994 36.4164 41.8021C36.2977 43.5048 36.7121 45.2023 37.6032 46.6643C38.4944 48.1263 39.8193 49.2819 41.3979 49.9742C41.6492 50.0886 41.859 50.2765 41.9987 50.5125C42.1384 50.7486 42.2014 51.0213 42.1791 51.2939L40.5651 73.0818H49.0562L47.4517 51.2939C47.4289 51.0214 47.4915 50.7486 47.631 50.5125C47.7705 50.2764 47.9802 50.0885 48.2315 49.9742C49.7194 49.3201 50.9835 48.2539 51.8708 46.9046C52.7581 45.5553 53.2306 43.9807 53.231 42.3715Z" fill="white"/>
<path d="M76.0237 42.3715C76.0231 40.67 75.4942 39.0097 74.5082 37.6148C73.5223 36.2199 72.127 35.1576 70.5106 34.5714C70.2475 34.4802 70.0173 34.3149 69.8483 34.0959C69.6793 33.8769 69.5789 33.6137 69.5596 33.339L69.152 26.194C69.1431 26.0545 69.1786 25.9158 69.2533 25.7971C69.3281 25.6785 69.4385 25.5858 69.5691 25.5322C70.5694 25.1273 71.4171 24.4243 71.9939 23.5209C72.5707 22.6175 72.8481 21.5588 72.7872 20.4923C72.7263 19.4258 72.3303 18.4046 71.6544 17.571C70.9784 16.7374 70.0562 16.1329 69.0161 15.8418C68.8797 15.8036 68.7588 15.7242 68.6703 15.6146C68.5819 15.5051 68.5304 15.3709 68.523 15.231L67.6494 0.0416193C67.6476 0.0310238 67.642 0.0214172 67.6337 0.0144933C67.6253 0.00756939 67.6148 0.00377274 67.6039 0.00377274C67.593 0.00377274 67.5825 0.00756939 67.5742 0.0144933C67.5658 0.0214172 67.5603 0.0310238 67.5584 0.0416193L66.6848 15.2283C66.6775 15.3681 66.6262 15.5021 66.538 15.6116C66.4498 15.7211 66.3292 15.8007 66.193 15.8391C65.1519 16.1292 64.2283 16.7331 63.5512 17.5667C62.874 18.4004 62.4771 19.4221 62.4158 20.4893C62.3544 21.5566 62.6318 22.6161 63.209 23.5201C63.7863 24.4241 64.6348 25.1275 65.636 25.5322C65.7669 25.5856 65.8776 25.6782 65.9526 25.7968C66.0276 25.9155 66.0632 26.0544 66.0545 26.194L65.6469 33.339C65.6276 33.6137 65.5272 33.8769 65.3582 34.0959C65.1892 34.3149 64.9589 34.4802 64.6959 34.5714C63.1556 35.13 61.8144 36.1219 60.8376 37.4246C59.8608 38.7274 59.2912 40.2842 59.1989 41.903C59.1066 43.5218 59.4957 45.1319 60.3182 46.5349C61.1407 47.9378 62.3607 49.0723 63.8278 49.7983C64.0773 49.9185 64.2857 50.1083 64.4272 50.3443C64.5687 50.5803 64.6371 50.8521 64.6239 51.1261L63.3618 73.0818H71.8515L70.5894 51.1261C70.5758 50.852 70.6441 50.5801 70.7856 50.344C70.9272 50.108 71.1357 49.9182 71.3855 49.7983C72.7797 49.1074 73.9519 48.0468 74.771 46.7352C75.5901 45.4236 76.0238 43.9127 76.0237 42.3715Z" fill="white"/>
<path d="M98.8158 42.3715C98.8138 40.5673 98.2186 38.8125 97.1199 37.3716C96.0212 35.9306 94.4784 34.8815 92.724 34.3821C92.4484 34.3091 92.2023 34.1539 92.0193 33.9377C91.8362 33.7215 91.725 33.4547 91.701 33.1738L90.3954 15.4525L89.0898 33.1738C89.0653 33.4546 88.954 33.7212 88.771 33.9373C88.588 34.1535 88.3421 34.3088 88.0668 34.3821C86.407 34.854 84.9343 35.8192 83.8487 37.1466C82.7631 38.474 82.1171 40.0994 81.9984 41.8021C81.8797 43.5048 82.2941 45.2023 83.1853 46.6643C84.0765 48.1263 85.4013 49.2819 86.9799 49.9742C87.2311 50.0886 87.4407 50.2766 87.5802 50.5127C87.7197 50.7487 87.7824 51.0215 87.7597 51.2939L86.1498 73.0818H94.6395L93.0351 51.2939C93.0124 51.0213 93.0752 50.7484 93.2149 50.5122C93.3547 50.2761 93.5647 50.0883 93.8162 49.9742C95.3041 49.3201 96.5682 48.2539 97.4555 46.9046C98.3428 45.5553 98.8153 43.9807 98.8158 42.3715Z" fill="white"/>
<path d="M121.608 42.3715C121.607 40.6703 121.079 39.0103 120.093 37.6154C119.108 36.2205 117.713 35.158 116.097 34.5714C115.834 34.4803 115.604 34.3149 115.435 34.0959C115.266 33.8769 115.166 33.6137 115.146 33.339L114.739 26.194C114.73 26.0544 114.766 25.9155 114.841 25.7968C114.916 25.6782 115.026 25.5856 115.157 25.5322C116.158 25.1276 117.007 24.4244 117.584 23.5204C118.162 22.6165 118.439 21.557 118.378 20.4898C118.317 19.4226 117.92 18.4008 117.243 17.5671C116.566 16.7334 115.643 16.1293 114.601 15.8391C114.465 15.8009 114.344 15.7215 114.256 15.6119C114.167 15.5024 114.116 15.3682 114.108 15.2283L113.232 0.0416178C113.232 0.0298678 113.227 0.0185991 113.219 0.0102906C113.211 0.00198211 113.199 -0.00268555 113.187 -0.00268555C113.175 -0.00268555 113.164 0.00198211 113.156 0.0102906C113.147 0.0185991 113.142 0.0298678 113.142 0.0416178L112.269 15.2283C112.261 15.3682 112.21 15.5024 112.121 15.6119C112.033 15.7215 111.912 15.8009 111.776 15.8391C110.735 16.1293 109.811 16.7334 109.134 17.5671C108.457 18.4008 108.06 19.4226 107.999 20.4898C107.938 21.557 108.215 22.6165 108.793 23.5204C109.37 24.4244 110.219 25.1276 111.22 25.5322C111.351 25.5856 111.462 25.6782 111.537 25.7968C111.612 25.9155 111.647 26.0544 111.638 26.194L111.231 33.339C111.212 33.6139 111.112 33.8773 110.943 34.0964C110.774 34.3155 110.543 34.4807 110.28 34.5714C108.74 35.13 107.398 36.1219 106.422 37.4246C105.445 38.7274 104.875 40.2842 104.783 41.903C104.691 43.5218 105.08 45.1319 105.902 46.5349C106.725 47.9378 107.945 49.0723 109.412 49.7983C109.661 49.9186 109.869 50.1085 110.011 50.3444C110.152 50.5804 110.221 50.8521 110.208 51.1261L108.944 73.0818H117.435L116.172 51.1261C116.159 50.8521 116.227 50.5804 116.369 50.3444C116.51 50.1085 116.719 49.9186 116.968 49.7983C118.362 49.1075 119.535 48.047 120.354 46.7354C121.174 45.4238 121.608 43.9128 121.608 42.3715Z" fill="white"/>
<path d="M144.398 42.3715C144.397 40.5664 143.802 38.8107 142.702 37.3694C141.602 35.9281 140.058 34.8796 138.302 34.3821C138.027 34.3088 137.781 34.1535 137.598 33.9373C137.415 33.7212 137.304 33.4546 137.279 33.1738L135.973 15.4525L134.668 33.1738C134.644 33.4547 134.533 33.7215 134.35 33.9377C134.167 34.1539 133.92 34.3091 133.645 34.3821C131.985 34.854 130.512 35.8192 129.427 37.1466C128.341 38.474 127.695 40.0994 127.577 41.8021C127.458 43.5048 127.872 45.2023 128.763 46.6643C129.655 48.1263 130.979 49.2819 132.558 49.9742C132.81 50.0883 133.02 50.2761 133.159 50.5122C133.299 50.7484 133.362 51.0213 133.339 51.2939L131.733 73.0818H140.223L138.619 51.2939C138.596 51.0215 138.659 50.7487 138.798 50.5127C138.938 50.2766 139.147 50.0886 139.398 49.9742C140.886 49.3201 142.15 48.2539 143.038 46.9046C143.925 45.5553 144.398 43.9807 144.398 42.3715Z" fill="white"/>
<path d="M167.19 42.3715C167.19 40.6704 166.661 39.0104 165.676 37.6156C164.691 36.2207 163.296 35.1582 161.68 34.5714C161.417 34.4802 161.187 34.3149 161.018 34.0959C160.849 33.8769 160.748 33.6137 160.729 33.339L160.322 26.194C160.313 26.0544 160.348 25.9155 160.423 25.7968C160.498 25.6782 160.609 25.5856 160.74 25.5322C161.74 25.1263 162.587 24.4221 163.163 23.5179C163.739 22.6137 164.015 21.5545 163.953 20.4879C163.89 19.4213 163.493 18.4005 162.816 17.5676C162.139 16.7348 161.215 16.1315 160.175 15.8418C160.039 15.8034 159.918 15.7238 159.83 15.6143C159.742 15.5048 159.69 15.3707 159.683 15.231L158.816 0.0416193C158.814 0.0310238 158.809 0.0214172 158.8 0.0144933C158.792 0.00756939 158.782 0.00377274 158.771 0.00377274C158.76 0.00377274 158.749 0.00756939 158.741 0.0144933C158.733 0.0214172 158.727 0.0310238 158.725 0.0416193L157.853 15.2283C157.846 15.3682 157.794 15.5024 157.706 15.6119C157.617 15.7215 157.496 15.8009 157.36 15.8391C156.319 16.1293 155.395 16.7334 154.718 17.5671C154.041 18.4008 153.645 19.4226 153.583 20.4898C153.522 21.557 153.8 22.6165 154.377 23.5204C154.954 24.4244 155.803 25.1276 156.804 25.5322C156.935 25.5858 157.045 25.6785 157.12 25.7971C157.195 25.9158 157.23 26.0545 157.221 26.194L156.814 33.339C156.794 33.6137 156.694 33.8769 156.525 34.0959C156.356 34.3149 156.126 34.4802 155.863 34.5714C154.322 35.1299 152.981 36.1216 152.004 37.4243C151.027 38.727 150.457 40.2837 150.365 41.9025C150.272 43.5214 150.661 45.1316 151.484 46.5346C152.306 47.9376 153.526 49.0721 154.993 49.7983C155.243 49.9185 155.451 50.1083 155.593 50.3443C155.734 50.5803 155.803 50.8521 155.789 51.1261L154.527 73.0818H163.017L161.755 51.1261C161.742 50.8521 161.81 50.5803 161.952 50.3443C162.093 50.1083 162.301 49.9185 162.551 49.7983C163.945 49.1075 165.118 48.047 165.937 46.7354C166.756 45.4238 167.19 43.9128 167.19 42.3715Z" fill="white"/>
<path d="M189.982 42.3715C189.98 40.5673 189.385 38.8125 188.286 37.3716C187.187 35.9306 185.644 34.8815 183.89 34.3821C183.614 34.3091 183.368 34.1539 183.185 33.9377C183.002 33.7215 182.891 33.4547 182.867 33.1738L181.561 15.4525L180.256 33.1738C180.231 33.4546 180.12 33.7212 179.937 33.9373C179.754 34.1535 179.508 34.3088 179.233 34.3821C177.573 34.854 176.1 35.8192 175.015 37.1466C173.929 38.474 173.283 40.0994 173.164 41.8021C173.046 43.5048 173.46 45.2023 174.351 46.6643C175.242 48.1263 176.567 49.2819 178.146 49.9742C178.397 50.0885 178.607 50.2764 178.746 50.5125C178.886 50.7486 178.949 51.0214 178.926 51.2939L177.321 73.0818H185.812L184.207 51.2939C184.184 51.0213 184.247 50.7486 184.387 50.5125C184.527 50.2765 184.736 50.0886 184.988 49.9742C186.475 49.3193 187.738 48.2528 188.624 46.9035C189.51 45.5542 189.982 43.9801 189.982 42.3715Z" fill="white"/>
<path d="M212.774 42.3715C212.773 40.6703 212.245 39.0103 211.259 37.6154C210.274 36.2205 208.879 35.158 207.263 34.5714C207 34.4804 206.77 34.3151 206.601 34.0961C206.432 33.877 206.331 33.6138 206.312 33.339L205.905 26.194C205.896 26.0544 205.932 25.9155 206.007 25.7968C206.082 25.6782 206.192 25.5856 206.323 25.5322C207.324 25.1276 208.173 24.4244 208.75 23.5204C209.328 22.6165 209.605 21.557 209.544 20.4898C209.483 19.4226 209.086 18.4008 208.409 17.5671C207.732 16.7334 206.809 16.1293 205.768 15.8391C205.631 15.8009 205.51 15.7215 205.422 15.6119C205.333 15.5024 205.282 15.3682 205.274 15.2283L204.398 0.0416178C204.398 0.0298678 204.393 0.0185991 204.385 0.0102906C204.377 0.00198212 204.365 -0.00268555 204.353 -0.00268555C204.341 -0.00268555 204.33 0.00198212 204.322 0.0102906C204.313 0.0185991 204.308 0.0298678 204.308 0.0416178L203.435 15.2283C203.428 15.3681 203.376 15.5021 203.288 15.6116C203.2 15.7211 203.079 15.8007 202.943 15.8391C201.902 16.1292 200.978 16.7331 200.301 17.5667C199.624 18.4004 199.227 19.4221 199.166 20.4893C199.104 21.5566 199.382 22.6161 199.959 23.5201C200.536 24.4241 201.385 25.1275 202.386 25.5322C202.517 25.5856 202.628 25.6782 202.703 25.7968C202.778 25.9155 202.813 26.0544 202.804 26.194L202.397 33.339C202.378 33.6137 202.277 33.8769 202.108 34.0959C201.939 34.3149 201.709 34.4803 201.446 34.5714C199.906 35.13 198.564 36.1219 197.588 37.4246C196.611 38.7274 196.041 40.2842 195.949 41.903C195.857 43.5218 196.246 45.1319 197.068 46.5349C197.891 47.9378 199.111 49.0723 200.578 49.7983C200.827 49.9185 201.036 50.1083 201.177 50.3443C201.319 50.5803 201.387 50.8521 201.374 51.1261L200.11 73.0818H208.601L207.339 51.1261C207.326 50.8522 207.394 50.5804 207.535 50.3444C207.677 50.1084 207.885 49.9186 208.134 49.7983C209.529 49.1077 210.701 48.0473 211.521 46.7356C212.34 45.424 212.774 43.9129 212.774 42.3715Z" fill="white"/>
<path d="M235.566 42.3715C235.565 40.5668 234.97 38.8113 233.871 37.37C232.772 35.9288 231.228 34.88 229.473 34.3821C229.197 34.3088 228.951 34.1535 228.768 33.9373C228.585 33.7212 228.474 33.4546 228.45 33.1738L227.144 15.4525L225.838 33.1738C225.814 33.4546 225.703 33.7212 225.521 33.9374C225.338 34.1536 225.092 34.3089 224.817 34.3821C223.157 34.854 221.684 35.8192 220.599 37.1466C219.513 38.474 218.867 40.0994 218.748 41.8021C218.63 43.5048 219.044 45.2023 219.935 46.6643C220.826 48.1263 222.151 49.2819 223.73 49.9742C223.982 50.0883 224.191 50.2761 224.331 50.5122C224.471 50.7484 224.534 51.0213 224.511 51.2939L222.9 73.0818H231.39L229.785 51.2939C229.762 51.0213 229.825 50.7484 229.965 50.5122C230.105 50.2761 230.315 50.0883 230.566 49.9742C232.054 49.3201 233.318 48.2539 234.206 46.9046C235.093 45.5553 235.565 43.9807 235.566 42.3715Z" fill="white"/>
<path d="M258.359 42.3715C258.358 40.6704 257.83 39.0104 256.844 37.6156C255.859 36.2207 254.464 35.1582 252.848 34.5714C252.585 34.4803 252.355 34.3149 252.186 34.0959C252.017 33.8769 251.917 33.6137 251.897 33.339L251.49 26.194C251.481 26.0544 251.517 25.9155 251.592 25.7968C251.667 25.6782 251.777 25.5856 251.908 25.5322C252.909 25.1275 253.758 24.4241 254.335 23.5201C254.912 22.6161 255.19 21.5566 255.128 20.4893C255.067 19.4221 254.67 18.4004 253.993 17.5667C253.316 16.7331 252.392 16.1292 251.351 15.8391C251.215 15.8007 251.094 15.7211 251.006 15.6116C250.918 15.5021 250.867 15.3681 250.859 15.2283L249.978 0.0416178C249.978 0.0298678 249.973 0.0185991 249.964 0.0102906C249.956 0.00198212 249.945 -0.00268555 249.933 -0.00268555C249.921 -0.00268555 249.91 0.00198212 249.901 0.0102906C249.893 0.0185991 249.888 0.0298678 249.888 0.0416178L249.027 15.2283C249.019 15.3682 248.968 15.5024 248.879 15.6119C248.791 15.7215 248.67 15.8009 248.533 15.8391C247.492 16.1293 246.569 16.7334 245.892 17.5671C245.215 18.4008 244.818 19.4226 244.757 20.4898C244.696 21.557 244.973 22.6165 245.551 23.5204C246.128 24.4244 246.977 25.1276 247.978 25.5322C248.109 25.5856 248.219 25.6782 248.294 25.7968C248.369 25.9155 248.405 26.0544 248.396 26.194L247.989 33.339C247.97 33.6138 247.869 33.877 247.7 34.0961C247.531 34.3151 247.301 34.4804 247.038 34.5714C245.497 35.13 244.156 36.1219 243.179 37.4246C242.203 38.7274 241.633 40.2842 241.541 41.903C241.448 43.5218 241.837 45.1319 242.66 46.5349C243.483 47.9378 244.702 49.0723 246.17 49.7983C246.419 49.9186 246.627 50.1084 246.768 50.3444C246.91 50.5804 246.978 50.8522 246.964 51.1261L245.702 73.0818H254.189L252.927 51.1261C252.914 50.8521 252.982 50.5803 253.124 50.3443C253.265 50.1083 253.474 49.9185 253.723 49.7983C255.117 49.1069 256.288 48.0462 257.107 46.7346C257.926 45.4231 258.359 43.9124 258.359 42.3715Z" fill="white"/>
<path d="M30.4397 42.3715C30.4391 40.6704 29.9105 39.0104 28.9251 37.6156C27.9398 36.2207 26.5451 35.1582 24.9293 34.5714C24.6663 34.4803 24.436 34.3149 24.267 34.0959C24.098 33.8769 23.9976 33.6137 23.9783 33.339L23.5707 26.194C23.562 26.0544 23.5976 25.9155 23.6726 25.7968C23.7476 25.6782 23.8583 25.5856 23.9892 25.5322C24.9904 25.1275 25.8389 24.4241 26.4162 23.5201C26.9934 22.6161 27.2708 21.5566 27.2094 20.4893C27.1481 19.4221 26.7512 18.4004 26.074 17.5667C25.3969 16.7331 24.4733 16.1292 23.4322 15.8391C23.296 15.8007 23.1754 15.7211 23.0872 15.6116C22.999 15.5021 22.9477 15.3681 22.9404 15.2283L22.0641 0.0416178C22.0641 0.0298678 22.0594 0.0185991 22.0509 0.0102906C22.0425 0.00198212 22.0311 -0.00268555 22.0192 -0.00268555C22.0074 -0.00268555 21.996 0.00198212 21.9875 0.0102906C21.9791 0.0185991 21.9744 0.0298678 21.9744 0.0416178L21.1009 15.2283C21.0935 15.3682 21.0419 15.5024 20.9535 15.6119C20.8651 15.7215 20.7441 15.8009 20.6077 15.8391C19.5666 16.1293 18.6431 16.7334 17.9661 17.5671C17.2891 18.4008 16.8924 19.4226 16.8312 20.4898C16.77 21.557 17.0475 22.6165 17.6249 23.5204C18.2022 24.4244 19.0508 25.1276 20.052 25.5322C20.1829 25.5856 20.2936 25.6782 20.3686 25.7968C20.4436 25.9155 20.4792 26.0544 20.4705 26.194L20.0629 33.339C20.0437 33.6138 19.9434 33.877 19.7744 34.0961C19.6054 34.3151 19.375 34.4804 19.1119 34.5714C17.5716 35.13 16.2304 36.1219 15.2536 37.4246C14.2768 38.7274 13.7072 40.2842 13.6149 41.903C13.5226 43.5218 13.9117 45.1319 14.7342 46.5349C15.5567 47.9378 16.7767 49.0723 18.2438 49.7983C18.4932 49.9186 18.7014 50.1084 18.8426 50.3444C18.9839 50.5804 19.052 50.8522 19.0385 51.1261L17.7764 73.0818H26.2661L24.9972 51.1261C24.9841 50.8521 25.0524 50.5803 25.1939 50.3443C25.3354 50.1083 25.5438 49.9185 25.7934 49.7983C27.189 49.1084 28.3627 48.0483 29.1833 46.7366C30.0039 45.425 30.4389 43.9135 30.4397 42.3715Z" fill="white"/>
</g>
<defs>
<clipPath id="clip0_158_424">
<rect width="271.714" height="73.0818" fill="white"/>
</clipPath>
</defs>
</svg>
