<svg width="16" height="16" viewBox="0 0 16 16" fill="none" xmlns="http://www.w3.org/2000/svg">
<path d="M6.93952 13.0408C5.88083 14.1386 4.15671 14.2399 2.9768 13.2735C2.27411 12.6651 1.91518 11.7503 2.01663 10.8264C2.10449 10.1452 2.42286 9.51461 2.91879 9.03943L4.83649 7.12042C5.22693 6.72985 5.22693 6.09674 4.83649 5.70616C4.44591 5.31572 3.8128 5.31572 3.42223 5.70616L1.54523 7.58385C0.68964 8.40891 0.150074 9.50757 0.0202689 10.689C-0.222181 13.3501 1.73846 15.7039 4.3995 15.9463C5.82854 16.0765 7.24167 15.5656 8.25707 14.5517L10.2628 12.5467C10.6532 12.1561 10.6532 11.523 10.2628 11.1325C9.87221 10.742 9.2391 10.742 8.84853 11.1325L6.93952 13.0408Z" fill="#050F9C"/>
<path d="M14.107 0.96104C12.1158 -0.501913 9.35072 -0.272558 7.62779 1.49848L5.7401 3.38682C5.34965 3.7774 5.34965 4.41051 5.7401 4.80108C6.13067 5.19153 6.76379 5.19153 7.15436 4.80108L9.07205 2.88539C10.1076 1.81435 11.7831 1.6937 12.9614 2.60534C14.1742 3.59983 14.3512 5.38919 13.3567 6.602C13.2985 6.67298 13.2369 6.74109 13.1721 6.8061L11.1664 8.81181C10.776 9.20238 10.776 9.83549 11.1664 10.2261C11.557 10.6165 12.1901 10.6165 12.5807 10.2261L14.5864 8.22036C16.4746 6.32608 16.4697 3.25974 14.5755 1.37149C14.4283 1.22478 14.2718 1.08769 14.107 0.96104Z" fill="#050F9C"/>
<path d="M5.74022 8.81339L8.84781 5.70579C9.23841 5.31519 9.87169 5.31519 10.2623 5.70579C10.6529 6.0964 10.6529 6.72967 10.2623 7.12027L7.15469 10.2279C6.76409 10.6185 6.13082 10.6185 5.74022 10.2279C5.34962 9.83727 5.34962 9.204 5.74022 8.81339Z" fill="#050F9C"/>
</svg>
