<svg width="16" height="16" viewBox="0 0 16 16" fill="none" xmlns="http://www.w3.org/2000/svg">
<path d="M3.61499 5.26123H0.271484V15.9228H3.61499V5.26123Z" fill="#050F9C"/>
<path d="M12.6549 5.03024C12.5316 5.01483 12.4006 5.00713 12.2697 4.99942C10.3976 4.92239 9.3422 6.03168 8.97241 6.5093C8.87226 6.64025 8.82603 6.71729 8.82603 6.71729V5.29215H5.62891V15.9537H8.82603H8.97241C8.97241 14.8675 8.97241 13.789 8.97241 12.7029C8.97241 12.1174 8.97241 11.5319 8.97241 10.9465C8.97241 10.2224 8.91848 9.45201 9.28057 8.78951C9.58872 8.23487 10.1434 7.95754 10.7674 7.95754C12.6164 7.95754 12.6549 9.62919 12.6549 9.78326C12.6549 9.79096 12.6549 9.79866 12.6549 9.79866V15.9999H15.9984V9.04373C15.9984 6.66337 14.7889 5.26134 12.6549 5.03024Z" fill="#050F9C"/>
<path d="M1.94138 3.88253C3.01358 3.88253 3.88278 3.0134 3.88278 1.94127C3.88278 0.869135 3.01358 0 1.94138 0C0.869185 0 0 0.869135 0 1.94127C0 3.0134 0.869185 3.88253 1.94138 3.88253Z" fill="#050F9C"/>
</svg>
