<svg width="18" height="18" viewBox="0 0 18 18" fill="none" xmlns="http://www.w3.org/2000/svg">
<path d="M3.90472 5.68701H0.291016V17.2109H3.90472V5.68701Z" fill="white"/>
<path d="M13.6797 5.43709C13.5465 5.42044 13.4049 5.41211 13.2634 5.40378C11.24 5.32052 10.0993 6.51953 9.69964 7.03578C9.59139 7.17733 9.54143 7.26059 9.54143 7.26059V5.72019H6.08594V17.2441H9.54143H9.69964C9.69964 16.07 9.69964 14.9043 9.69964 13.7303C9.69964 13.0975 9.69964 12.4647 9.69964 11.8318C9.69964 11.0491 9.64135 10.2165 10.0327 9.50042C10.3658 8.90091 10.9653 8.60116 11.6397 8.60116C13.6381 8.60116 13.6797 10.408 13.6797 10.5745C13.6797 10.5829 13.6797 10.5912 13.6797 10.5912V17.294H17.2934V9.77519C17.2934 7.20231 15.9861 5.68688 13.6797 5.43709Z" fill="white"/>
<path d="M2.09827 4.19655C3.25712 4.19655 4.19656 3.25712 4.19656 2.09828C4.19656 0.939431 3.25712 0 2.09827 0C0.939426 0 0 0.939431 0 2.09828C0 3.25712 0.939426 4.19655 2.09827 4.19655Z" fill="white"/>
</svg>
