<svg width="24" height="24" viewBox="0 0 24 24" fill="none" xmlns="http://www.w3.org/2000/svg">
<path d="M3.37893 8.45C4.42893 3.83 8.45893 1.75 11.9989 1.75C11.9989 1.75 11.9989 1.75 12.0089 1.75C15.5389 1.75 19.5789 3.82 20.6289 8.44C21.7989 13.6 18.6389 17.97 15.7789 20.72C14.7189 21.74 13.3589 22.25 11.9989 22.25C10.6389 22.25 9.27893 21.74 8.22893 20.72C5.36893 17.97 2.20893 13.61 3.37893 8.45ZM11.9989 13.46C13.7389 13.46 15.1489 12.05 15.1489 10.31C15.1489 8.57 13.7389 7.16 11.9989 7.16C10.2589 7.16 8.84893 8.57 8.84893 10.31C8.84893 12.05 10.2589 13.46 11.9989 13.46Z" fill="#7EB3F9"/>
</svg>
