<svg width="146" height="33" viewBox="0 0 146 33" fill="none" xmlns="http://www.w3.org/2000/svg">
<g clip-path="url(#clip0_507_1528)">
<path d="M57.0394 6.95466L56.5726 6.9436L53.4199 11.1776L56.9272 16.6547C54.5477 17.4073 49.4244 17.4673 47.2636 17.2162C45.3515 16.9935 44.5246 15.8215 45.1896 11.5985L44.1724 11.574C41.5093 21.2725 45.2544 22.375 47.3189 22.6885C49.9891 23.0929 55.4922 22.5353 57.676 21.5418C58.3473 19.6724 60.2174 13.663 57.0394 6.95466Z" fill="white"/>
<path d="M43.2147 29.7743L45.9668 32.5264L48.7189 29.7743L45.9668 27.0222L43.2147 29.7743Z" fill="white"/>
<path d="M37.8475 29.7738L40.5996 32.5259L43.3517 29.7738L40.5996 27.0218L37.8475 29.7738Z" fill="white"/>
<path d="M48.6444 2.75184L51.3965 5.50391L54.1485 2.75184L51.3965 -0.000220539L48.6444 2.75184Z" fill="white"/>
<path d="M9.4745 2.75209L12.2266 5.50415L14.9786 2.75209L12.2266 2.19158e-05L9.4745 2.75209Z" fill="white"/>
<path d="M44.4932 16.9471C40.6929 17.353 37.5259 17.879 33.126 17.8664C23.3502 17.8387 22.1663 16.6817 22.1663 16.6817C22.611 14.2476 24.8468 13.1175 26.5235 13.4357C29.1242 13.9301 31.5086 17.3056 30.6888 20.4908C29.7821 24.0092 22.701 26.4575 15.5915 27.4527L15.5859 27.9099L24.5996 30.7302C27.7587 28.9761 29.6881 27.2505 30.9083 24.5297C33.9332 17.7842 31.5457 8.91665 26.7668 8.85189C23.0098 8.80056 21.5424 14.7578 21.3513 16.6256C21.1144 18.916 21.4942 21.2016 25.0356 22.4178C26.8955 23.056 37.4027 23.0978 41.9762 22.023L44.4932 16.9471Z" fill="white"/>
<path d="M0 26.2489V25.7916C8.41504 24.3203 13.5217 22.1689 14.9409 18.8337C14.2301 16.2322 11.9959 13.6568 10.7441 12.5771L13.3867 7.60156L13.7247 7.62999C14.4071 8.76332 15.5633 10.6059 16.2559 11.5125L15.5222 12.5929C15.9534 13.6078 17.1586 17.3497 15.5657 22.0157C13.8597 27.0142 9.0516 28.946 9.0516 28.946L0 26.2489Z" fill="white"/>
<path d="M91.7409 16.0009C74.2821 18.266 69.6904 16.5063 68.3896 14.3155C67.419 12.6791 67.7681 10.6131 68.1638 8.37878L67.2366 8.2998C65.815 12.2566 64.8277 17.1232 67.4214 19.979C71.5132 24.4854 84.7403 22.4999 89.2902 21.658L91.7132 18.1127L91.7409 16.0009Z" fill="white"/>
<path d="M102.689 6.95393L102.222 6.94287L99.0712 11.1753L102.577 16.4889C100.198 17.2415 97.2066 17.3015 95.0489 17.0504C93.1376 16.8285 92.3115 15.8168 92.9765 11.5954L91.9601 11.5709C89.297 21.2646 93.0381 22.3672 95.1042 22.6807C97.7728 23.0851 101.143 22.5275 103.325 21.5347C103.996 19.6653 105.866 13.6631 102.689 6.95393Z" fill="white"/>
<path d="M145.664 17.6853C138.201 16.5346 129.698 17.5755 119.515 17.7564C109.746 17.9293 108.545 16.7178 108.545 16.7178C108.956 14.2798 111.175 13.1196 112.856 13.415C115.462 13.8731 117.917 17.2217 117.115 20.4092C116.191 24.0769 109.212 26.4834 102.121 27.5764V28.0369L111.089 30.6976C114.071 29.0391 116.207 27.1855 117.389 24.4505C120.32 17.6671 117.814 8.83667 113.037 8.83667C109.28 8.83667 107.895 14.8113 107.729 16.6807C107.526 18.9711 107.935 21.2519 111.49 22.4192C113.198 22.9792 115.632 22.8141 119.072 22.7043C128.745 22.3931 141.795 21.9098 144.424 23.0889L145.465 18.6472L145.664 17.6853Z" fill="white"/>
<path d="M79.8389 7.30398L82.5898 10.0549L85.3408 7.30398L82.5898 4.55304L79.8389 7.30398Z" fill="white"/>
<path d="M74.4737 7.3035L77.2246 10.0544L79.9756 7.3035L77.2246 4.55255L74.4737 7.3035Z" fill="white"/>
<path d="M95.2861 28.2404L92.5352 25.4895L89.7842 28.2404L92.5352 30.9914L95.2861 28.2404Z" fill="white"/>
<path d="M100.649 28.2407L97.8984 25.4897L95.1475 28.2407L97.8984 30.9916L100.649 28.2407Z" fill="white"/>
<path d="M122.577 12.8347C123.479 6.87746 132.054 5.63988 132.054 5.63988L133.612 0.591645L133.225 0.15332C119.048 3.2445 122.117 15.2925 122.115 15.2893C138.874 14.6291 145.176 13.0938 143.874 18.5337L145.464 18.6435C146.788 13.551 145.658 10.7718 142.101 9.9631C137.679 8.95693 126.61 11.0617 122.995 10.2269C122.995 10.2269 122.778 10.2008 122.723 8.66471L122.577 12.8347Z" fill="white"/>
</g>
<defs>
<clipPath id="clip0_507_1528">
<rect width="146" height="32.5261" fill="white"/>
</clipPath>
</defs>
</svg>
