<svg width="61" height="54" viewBox="0 0 61 54" fill="none" xmlns="http://www.w3.org/2000/svg">
<rect x="1.5" y="1.5" width="58" height="51" rx="25.5" stroke="white" stroke-width="3"/>
<g clip-path="url(#clip0_130_2697)">
<path d="M38.9634 22.7128L29.8634 16.0358C29.0711 15.4543 28.1331 15.1037 27.1536 15.0231C26.1741 14.9425 25.1915 15.1349 24.3147 15.579C23.438 16.0231 22.7015 16.7016 22.187 17.539C21.6726 18.3764 21.4003 19.34 21.4004 20.3228V33.6768C21.3985 34.66 21.6696 35.6244 22.1834 36.4627C22.6973 37.3009 23.4337 37.9801 24.3107 38.4245C25.1878 38.869 26.171 39.0612 27.1508 38.9799C28.1306 38.8985 29.0687 38.5468 29.8604 37.9638L38.9654 31.2868C39.6389 30.7932 40.1867 30.1478 40.5643 29.403C40.9418 28.6582 41.1386 27.8349 41.1386 26.9998C41.1386 26.1647 40.9418 25.3414 40.5643 24.5966C40.1867 23.8518 39.6389 23.2064 38.9654 22.7128H38.9634ZM37.1894 28.8678L28.0894 35.5448C27.7441 35.7985 27.3353 35.9515 26.9083 35.9868C26.4813 36.0221 26.0529 35.9383 25.6707 35.7448C25.2885 35.5512 24.9674 35.2555 24.7431 34.8904C24.5189 34.5253 24.4002 34.1052 24.4004 33.6768V20.3228C24.3958 19.8937 24.5126 19.4721 24.7373 19.1066C24.962 18.741 25.2855 18.4464 25.6704 18.2568C25.9963 18.0895 26.3571 18.0014 26.7234 17.9998C27.2143 18.0022 27.6916 18.1617 28.0854 18.4548L37.1854 25.1318C37.4789 25.3469 37.7175 25.6281 37.8821 25.9527C38.0466 26.2772 38.1323 26.6359 38.1323 26.9998C38.1323 27.3637 38.0466 27.7224 37.8821 28.0469C37.7175 28.3715 37.4789 28.6527 37.1854 28.8678H37.1894Z" fill="white"/>
</g>
<defs>
<clipPath id="clip0_130_2697">
<rect width="24" height="24" fill="white" transform="translate(18.5 15)"/>
</clipPath>
</defs>
</svg>
