<svg width="16" height="16" viewBox="0 0 16 16" fill="none" xmlns="http://www.w3.org/2000/svg">
<g clip-path="url(#clip0_256_5442)">
<path d="M15.7067 14.2971L12.6099 11.199C14.9271 8.10247 14.2953 3.7138 11.1987 1.39666C8.10222 -0.920492 3.71356 -0.288681 1.39641 2.80783C-0.920736 5.90435 -0.288925 10.293 2.80759 12.6102C5.29497 14.4715 8.71133 14.4715 11.1987 12.6102L14.2968 15.7082C14.6861 16.0976 15.3174 16.0976 15.7067 15.7082C16.096 15.3189 16.096 14.6877 15.7067 14.2984L15.7067 14.2971ZM7.02898 12.0122C4.27695 12.0122 2.04601 9.78126 2.04601 7.02923C2.04601 4.27719 4.27695 2.04625 7.02898 2.04625C9.78102 2.04625 12.012 4.27719 12.012 7.02923C12.009 9.78002 9.7798 12.0093 7.02898 12.0122Z" fill="#959595"/>
</g>
<defs>
<clipPath id="clip0_256_5442">
<rect width="16" height="16" fill="white"/>
</clipPath>
</defs>
</svg>
